SplineFontDB: 3.0
FontName: JuraMedium
FullName: Jura Medium
FamilyName: Jura
Weight: Medium
Copyright: Copyright 2009, 2010, 2011 by Daniel Johnson.  Released under the terms of the Open Font License.
Version: 2.6.1
ItalicAngle: 0
UnderlinePosition: -102
UnderlineWidth: 51
Ascent: 819
Descent: 205
LayerCount: 2
Layer: 0 0 "Back"  1
Layer: 1 1 "Fore"  0
NeedsXUIDChange: 1
XUID: [1021 338 342 32004]
FSType: 0
OS2Version: 2
OS2_WeightWidthSlopeOnly: 0
OS2_UseTypoMetrics: 1
CreationTime: 1232036477
ModificationTime: 1315628857
PfmFamily: 17
TTFWeight: 500
TTFWidth: 5
LineGap: 92
VLineGap: 0
Panose: 2 0 6 3 0 0 0 0 0 0
OS2TypoAscent: 0
OS2TypoAOffset: 1
OS2TypoDescent: 0
OS2TypoDOffset: 1
OS2TypoLinegap: 92
OS2WinAscent: 0
OS2WinAOffset: 1
OS2WinDescent: 0
OS2WinDOffset: 1
HheadAscent: 0
HheadAOffset: 1
HheadDescent: 0
HheadDOffset: 1
OS2SubXSize: 665
OS2SubYSize: 716
OS2SubXOff: 0
OS2SubYOff: 143
OS2SupXSize: 665
OS2SupYSize: 716
OS2SupXOff: 0
OS2SupYOff: 491
OS2StrikeYSize: 51
OS2StrikeYPos: 265
OS2Vendor: 'PfEd'
OS2CodePages: 2000009f.00000000
OS2UnicodeRanges: a00002ef.5000204b.00000020.00000000
Lookup: 260 0 0 "'abvm' Above Base Mark lookup 1"  {"'abvm' Above Base Mark lookup 1-1"  } ['abvm' ('DFLT' <'dflt' > 'cyrl' <'dflt' > 'grek' <'dflt' > 'latn' <'dflt' > ) ]
Lookup: 260 0 0 "'blwm' Below Base Mark lookup 2"  {"'blwm' Below Base Mark lookup 2-1"  } ['blwm' ('DFLT' <'dflt' > 'cyrl' <'dflt' > 'grek' <'dflt' > 'latn' <'dflt' > ) ]
Lookup: 258 0 0 "'kern' Horizontal Kerning in Latin lookup 0"  {"'kern' Horizontal Kerning in Latin lookup 0 per glyph data 0"  "'kern' Horizontal Kerning in Latin lookup 0 kerning class 1"  } ['kern' ('latn' <'dflt' > ) ]
MarkAttachClasses: 1
DEI: 91125
KernClass2: 158+ 128 "'kern' Horizontal Kerning in Latin lookup 0 kerning class 1" 
 5 space
 2 Xi
 29 Alphatonos Alpha Delta Lambda
 5 Gamma
 20 Epsilontonos Epsilon
 4 Zeta
 49 Etatonos Iotatonos Eta Iota Mu Nu Pi Iotadieresis
 5 Kappa
 26 Omicrontonos Theta Omicron
 3 Rho
 5 Sigma

StartChar: .notdef
Encoding: 65536 -1 0
Width: 538
Flags: HW
HStem: 0 71<167.864 370.136> 606 72<167.864 370.136>
VStem: 85 71<84.9264 591.558> 382 71<84.9264 591.558>
LayerCount: 2
Fore
SplineSet
156 546 m 2,0,-1
 156 130 l 2,1,2
 156 98 156 98 167.5 84.5 c 128,-1,3
 179 71 179 71 210 71 c 2,4,-1
 328 71 l 2,5,6
 359 71 359 71 370.5 84.5 c 128,-1,7
 382 98 382 98 382 130 c 2,8,-1
 382 546 l 2,9,10
 382 578 382 578 370.5 592 c 128,-1,11
 359 606 359 606 328 606 c 2,12,-1
 210 606 l 2,13,14
 179 606 179 606 167.5 592 c 128,-1,15
 156 578 156 578 156 546 c 2,0,-1
85 0 m 1,16,-1
 85 678 l 1,17,-1
 453 678 l 1,18,-1
 453 0 l 1,19,-1
 85 0 l 1,16,-1
EndSplineSet
Validated: 1
EndChar

StartChar: exclam
Encoding: 33 33 2
Width: 253
Flags: HW
HStem: -17 92<79.2988 173.359>
VStem: 70 113<-6.29163 63.1348> 95 62<159.928 653.072>
LayerCount: 2
Fore
SplineSet
70 29 m 128,-1,1
 70 48 70 48 89 61.5 c 128,-1,2
 108 75 108 75 126 75 c 128,-1,3
 144 75 144 75 163.5 61.5 c 128,-1,4
 183 48 183 48 183 28 c 128,-1,5
 183 8 183 8 164.5 -4.5 c 128,-1,6
 146 -17 146 -17 126 -17 c 128,-1,7
 106 -17 106 -17 88 -3.5 c 128,-1,0
 70 10 70 10 70 29 c 128,-1,1
157 616 m 2,8,-1
 157 197 l 2,9,10
 157 159 157 159 126 159 c 128,-1,11
 95 159 95 159 95 197 c 2,12,-1
 95 616 l 2,13,14
 95 654 95 654 126 654 c 128,-1,15
 157 654 157 654 157 616 c 2,8,-1
EndSplineSet
Validated: 8388609
EndChar

StartChar: quotedbl
Encoding: 34 34 3
Width: 305
Flags: HW
HStem: 428 225<73.0618 130.352 173.703 232.297>
VStem: 71 61<428.928 652.072> 172 62<428.928 652.072>
LayerCount: 2
Fore
SplineSet
172 466 m 2,0,-1
 172 615 l 2,1,2
 172 653 172 653 203 653 c 128,-1,3
 234 653 234 653 234 615 c 2,4,-1
 234 466 l 2,5,6
 234 428 234 428 203 428 c 128,-1,7
 172 428 172 428 172 466 c 2,0,-1
71 466 m 2,8,-1
 71 615 l 2,9,10
 72 653 72 653 102 653 c 128,-1,11
 132 653 132 653 132 615 c 2,12,-1
 132 466 l 2,13,14
 132 428 132 428 102 428 c 128,-1,15
 72 428 72 428 71 466 c 2,8,-1
EndSplineSet
Validated: 1
EndChar

StartChar: numbersign
Encoding: 35 35 4
Width: 613
Flags: HW
HStem: 1 21G<101 127 277.5 304> 195 62<44.9277 141 229 320 408 537.072> 379 62<75.9033 208 295 386 475 568.072> 615 20G<312 336.5 488.75 506.25>
VStem: 84 62<2.11401 28> 262 63<2.4834 28> 291 62<608 633.708> 469 63<608 625.203>
LayerCount: 2
Fore
SplineSet
350 587 m 2,0,-1
 295 441 l 1,1,-1
 409 441 l 1,2,-1
 469 608 l 1,3,4
 480 635 480 635 497.5 635 c 128,-1,5
 515 635 515 635 523.5 625.5 c 128,-1,6
 532 616 532 616 532 606 c 128,-1,7
 532 596 532 596 529 586 c 2,8,-1
 475 441 l 1,9,-1
 531 441 l 2,10,11
 569 441 569 441 569 410 c 128,-1,12
 569 379 569 379 531 379 c 2,13,-1
 453 379 l 1,14,-1
 408 257 l 1,15,-1
 500 257 l 2,16,17
 538 257 538 257 538 226 c 128,-1,18
 538 195 538 195 500 195 c 2,19,-1
 385 195 l 1,20,-1
 325 28 l 2,21,22
 315 1 315 1 293 1 c 0,23,24
 262 1 262 1 262 32 c 0,25,26
 262 40 262 40 265 50 c 2,27,-1
 320 195 l 1,28,-1
 206 195 l 1,29,-1
 146 28 l 2,30,31
 136 1 136 1 118 1 c 0,32,33
 84 1 84 1 84 31 c 0,34,35
 84 40 84 40 87 49 c 2,36,-1
 141 195 l 1,37,-1
 82 195 l 2,38,39
 44 195 44 195 44 226 c 128,-1,40
 44 257 44 257 82 257 c 2,41,-1
 163 257 l 1,42,-1
 208 379 l 1,43,-1
 112 379 l 2,44,45
 75 379 75 379 75 410 c 128,-1,46
 75 441 75 441 112 441 c 2,47,-1
 231 441 l 1,48,-1
 291 608 l 1,49,50
 304 635 304 635 320 635 c 0,51,52
 353 635 353 635 353 605 c 0,53,54
 353 594 353 594 350 587 c 2,0,-1
274 379 m 1,55,-1
 229 257 l 1,56,-1
 341 257 l 1,57,-1
 386 379 l 1,58,-1
 274 379 l 1,55,-1
EndSplineSet
Validated: 8388609
EndChar

StartChar: dollar
Encoding: 36 36 5
Width: 608
Flags: HW
HStem: -7 21G<292.5 323.5> 87 62<134.348 278 340 475.272> 296 62<138.471 278 340 467.044> 492 62<136.925 278 340 474.167> 623 20G<293.5 324.5>
VStem: 61 62<160.865 239.072 374.486 482.733> 278 62<-5.69922 87 149 296 358 492 554 642.097> 485 62<157.522 277.388 404.152 481.682>
LayerCount: 2
Fore
SplineSet
166 87 m 2,0,1
 103 87 103 87 82 118 c 128,-1,2
 61 149 61 149 61 202 c 0,3,4
 61 240 61 240 92 240 c 128,-1,5
 123 240 123 240 123 206 c 128,-1,6
 123 172 123 172 134 160.5 c 128,-1,7
 145 149 145 149 173 149 c 2,8,-1
 278 149 l 1,9,-1
 278 296 l 1,10,-1
 195 296 l 2,11,12
 61 296 61 296 61 430 c 0,13,14
 61 490 61 490 91.5 522 c 128,-1,15
 122 554 122 554 195 554 c 2,16,-1
 278 554 l 1,17,-1
 278 606 l 2,18,19
 278 643 278 643 309 643 c 128,-1,20
 340 643 340 643 340 607 c 2,21,-1
 340 554 l 1,22,-1
 442 554 l 2,23,24
 505 554 505 554 526 524 c 128,-1,25
 547 494 547 494 547 442 c 0,26,27
 547 403 547 403 516 403 c 0,28,29
 485 404 485 404 485 438 c 128,-1,30
 485 472 485 472 474.5 482 c 128,-1,31
 464 492 464 492 435 492 c 2,32,-1
 340 492 l 1,33,-1
 340 358 l 1,34,-1
 416 358 l 2,35,36
 547 358 547 358 547 218 c 0,37,38
 547 87 547 87 414 87 c 2,39,-1
 340 87 l 1,40,-1
 340 30 l 2,41,42
 340 -7 340 -7 307 -7 c 0,43,44
 278 -7 278 -7 278 28 c 2,45,-1
 278 87 l 1,46,-1
 166 87 l 2,0,1
431 296 m 2,47,-1
 340 296 l 1,48,-1
 340 149 l 1,49,-1
 431 149 l 2,50,51
 485 149 485 149 485 214 c 0,52,53
 485 250 485 250 470 273 c 128,-1,54
 455 296 455 296 431 296 c 2,47,-1
177 358 m 2,55,-1
 278 358 l 1,56,-1
 278 492 l 1,57,-1
 177 492 l 2,58,59
 150 492 150 492 136.5 480 c 128,-1,60
 123 468 123 468 123 432 c 128,-1,61
 123 396 123 396 138 377 c 128,-1,62
 153 358 153 358 177 358 c 2,55,-1
EndSplineSet
Validated: 1
EndChar

StartChar: percent
Encoding: 37 37 6
Width: 578
Flags: HW
HStem: 96 62<386.418 435.463> 208 62<386.418 431.944> 374 62<143.647 192.432> 486 62<143.643 192.432>
VStem: 80 63<436.299 485.727> 193 68<436.372 485.605> 317 69<158.315 207.668> 436 62<158.315 204.15>
LayerCount: 2
Fore
SplineSet
386 183 m 128,-1,1
 386 173 386 173 393.5 165.5 c 128,-1,2
 401 158 401 158 411 158 c 128,-1,3
 421 158 421 158 428.5 165.5 c 128,-1,4
 436 173 436 173 436 183.5 c 128,-1,5
 436 194 436 194 429 201 c 128,-1,6
 422 208 422 208 411.5 208 c 128,-1,7
 401 208 401 208 393.5 200.5 c 128,-1,0
 386 193 386 193 386 183 c 128,-1,1
317 183 m 128,-1,9
 317 219 317 219 345 244.5 c 128,-1,10
 373 270 373 270 410 270 c 128,-1,11
 447 270 447 270 472.5 244.5 c 128,-1,12
 498 219 498 219 498 183 c 128,-1,13
 498 147 498 147 472.5 121.5 c 128,-1,14
 447 96 447 96 410 96 c 128,-1,15
 373 96 373 96 345 121.5 c 128,-1,8
 317 147 317 147 317 183 c 128,-1,9
143 461 m 128,-1,17
 143 451 143 451 151 443.5 c 128,-1,18
 159 436 159 436 167.5 436 c 128,-1,19
 176 436 176 436 184.5 443.5 c 128,-1,20
 193 451 193 451 193 461 c 128,-1,21
 193 471 193 471 184.5 478.5 c 128,-1,22
 176 486 176 486 167 486 c 128,-1,23
 158 486 158 486 150.5 478.5 c 128,-1,16
 143 471 143 471 143 461 c 128,-1,17
80 461 m 128,-1,25
 80 497 80 497 105.5 522.5 c 128,-1,26
 131 548 131 548 168.5 548 c 128,-1,27
 206 548 206 548 233.5 522.5 c 128,-1,28
 261 497 261 497 261 461 c 128,-1,29
 261 425 261 425 233.5 399.5 c 128,-1,30
 206 374 206 374 168.5 374 c 128,-1,31
 131 374 131 374 105.5 399.5 c 128,-1,24
 80 425 80 425 80 461 c 128,-1,25
453 515 m 1,32,33
 469 528 469 528 479.5 528 c 128,-1,34
 490 528 490 528 500 519.5 c 128,-1,35
 510 511 510 511 510 499 c 128,-1,36
 510 487 510 487 497 471 c 1,37,-1
 126 124 l 2,38,39
 112 111 112 111 100 111 c 128,-1,40
 88 111 88 111 78 119.5 c 128,-1,41
 68 128 68 128 68 141.5 c 128,-1,42
 68 155 68 155 82 169 c 2,43,-1
 453 515 l 1,32,33
EndSplineSet
Validated: 1
EndChar

StartChar: ampersand
Encoding: 38 38 7
Width: 520
Flags: HW
HStem: -19 62<166.334 330.748> 595 62<178.834 299.382>
VStem: 40 62<101.185 273.427> 65 64<418.934 546.023> 422 61<138.476 266.789>
LayerCount: 2
Fore
SplineSet
358 85 m 1,0,-1
 162 312 l 1,1,2
 102 271 102 271 102 190 c 128,-1,3
 102 109 102 109 148.5 76 c 128,-1,4
 195 43 195 43 252.5 43 c 128,-1,5
 310 43 310 43 358 85 c 1,0,-1
397 528 m 128,-1,7
 397 516 397 516 388 507 c 128,-1,8
 379 498 379 498 366 498 c 128,-1,9
 353 498 353 498 340.5 513 c 128,-1,10
 328 528 328 528 319 546.5 c 128,-1,11
 310 565 310 565 291 580 c 128,-1,12
 272 595 272 595 248 595 c 0,13,14
 203 595 203 595 166 562.5 c 128,-1,15
 129 530 129 530 129 476 c 0,16,17
 129 442 129 442 166 400 c 2,18,-1
 397 133 l 1,19,20
 422 174 422 174 422 227 c 0,21,22
 422 268 422 268 454 268 c 0,23,24
 483 268 483 268 483 227 c 0,25,26
 483 148 483 148 439 84 c 1,27,-1
 483 35 l 2,28,29
 491 26 491 26 491 11 c 128,-1,30
 491 -4 491 -4 482 -10.5 c 128,-1,31
 473 -17 473 -17 459.5 -17 c 128,-1,32
 446 -17 446 -17 430 1 c 2,33,-1
 398 38 l 1,34,35
 332 -19 332 -19 254 -19 c 0,36,37
 182 -19 182 -19 116 25 c 0,38,39
 82 47 82 47 61 88 c 128,-1,40
 40 129 40 129 40 180 c 128,-1,41
 40 231 40 231 60 279 c 128,-1,42
 80 327 80 327 122 358 c 1,43,-1
 114 367 l 1,44,45
 65 426 65 426 65 476 c 0,46,47
 65 555 65 555 122.5 606 c 128,-1,48
 180 657 180 657 248 657 c 0,49,50
 291 657 291 657 328 627.5 c 128,-1,51
 365 598 365 598 381 569 c 128,-1,6
 397 540 397 540 397 528 c 128,-1,7
EndSplineSet
Validated: 8388609
EndChar

StartChar: quotesingle
Encoding: 39 39 8
Width: 203
Flags: HW
HStem: 428 225<73.0618 130.352>
VStem: 71 61<428.928 652.072>
LayerCount: 2
Fore
SplineSet
71 466 m 2,0,-1
 71 615 l 2,1,2
 72 653 72 653 102 653 c 128,-1,3
 132 653 132 653 132 615 c 2,4,-1
 132 466 l 2,5,6
 132 428 132 428 102 428 c 128,-1,7
 72 428 72 428 71 466 c 2,0,-1
EndSplineSet
Validated: 1
EndChar

StartChar: parenleft
Encoding: 40 40 9
Width: 260
Flags: HW
HStem: -52 62<143.43 213> 626 62<143.43 213>
VStem: 73 62<16.613 619.746>
LayerCount: 2
Fore
SplineSet
135 133 m 2,0,1
 135 83 135 83 136 61.5 c 128,-1,2
 137 40 137 40 147 26.5 c 128,-1,3
 157 13 157 13 169 11.5 c 128,-1,4
 181 10 181 10 213 10 c 1,5,-1
 213 -52 l 1,6,7
 182 -52 182 -52 164.5 -50 c 128,-1,8
 147 -48 147 -48 127 -38 c 128,-1,9
 107 -28 107 -28 97 -8 c 0,10,11
 73 39 73 39 73 133 c 2,12,-1
 73 503 l 2,13,14
 73 598 73 598 97 644 c 0,15,16
 107 664 107 664 127 674 c 128,-1,17
 147 684 147 684 164.5 686 c 128,-1,18
 182 688 182 688 213 688 c 1,19,-1
 213 626 l 1,20,21
 181 626 181 626 169 624.5 c 128,-1,22
 157 623 157 623 147 609.5 c 128,-1,23
 137 596 137 596 136 574.5 c 128,-1,24
 135 553 135 553 135 503 c 2,25,-1
 135 133 l 2,0,1
EndSplineSet
Validated: 1
EndChar

StartChar: parenright
Encoding: 41 41 10
Width: 260
Flags: HW
HStem: -52 62<47 116.57> 626 62<47 116.57>
VStem: 125 62<16.2542 619.387>
LayerCount: 2
Fore
SplineSet
125 133 m 2,0,-1
 125 503 l 2,1,2
 125 553 125 553 124 574.5 c 128,-1,3
 123 596 123 596 113 609.5 c 128,-1,4
 103 623 103 623 91 624.5 c 128,-1,5
 79 626 79 626 47 626 c 1,6,-1
 47 688 l 1,7,8
 78 688 78 688 95.5 686 c 128,-1,9
 113 684 113 684 133 674 c 128,-1,10
 153 664 153 664 163 644 c 0,11,12
 187 597 187 597 187 503 c 2,13,-1
 187 133 l 2,14,15
 187 38 187 38 163 -8 c 0,16,17
 153 -28 153 -28 133 -38 c 128,-1,18
 113 -48 113 -48 95.5 -50 c 128,-1,19
 78 -52 78 -52 47 -52 c 1,20,-1
 47 10 l 1,21,22
 79 10 79 10 91 11.5 c 128,-1,23
 103 13 103 13 113 26.5 c 128,-1,24
 123 40 123 40 124 61.5 c 128,-1,25
 125 83 125 83 125 133 c 2,0,-1
EndSplineSet
Validated: 1
EndChar

StartChar: asterisk
Encoding: 42 42 11
Width: 405
Flags: HW
HStem: 399 60<65.4111 84> 626 20G<186.5 217.5>
VStem: 171 62<336.928 437 545 645.072>
LayerCount: 2
Fore
SplineSet
233 437 m 1,0,-1
 233 374 l 2,1,2
 233 336 233 336 202 336 c 128,-1,3
 171 336 171 336 171 374 c 2,4,-1
 171 437 l 1,5,6
 161 432 161 432 132 416 c 128,-1,7
 103 400 103 400 92 399 c 0,8,9
 81 399 81 399 72.5 408.5 c 128,-1,10
 64 418 64 418 64 432 c 128,-1,11
 64 446 64 446 84 459 c 2,12,-1
 140 492 l 1,13,-1
 84 523 l 2,14,15
 64 534 64 534 64 553 c 0,16,17
 64 561 64 561 71 572 c 128,-1,18
 78 583 78 583 90 583 c 128,-1,19
 102 583 102 583 171 545 c 1,20,-1
 171 608 l 2,21,22
 171 646 171 646 202 646 c 128,-1,23
 233 646 233 646 233 608 c 2,24,-1
 233 545 l 1,25,26
 243 550 243 550 272 566 c 0,27,28
 300 582 300 582 312 583 c 0,29,30
 324 583 324 583 332.5 573.5 c 128,-1,31
 341 564 341 564 341 550 c 128,-1,32
 341 536 341 536 320 523 c 1,33,-1
 265 492 l 1,34,-1
 320 459 l 2,35,36
 341 446 341 446 341 434 c 128,-1,37
 341 422 341 422 333.5 410.5 c 128,-1,38
 326 399 326 399 314 399 c 128,-1,39
 302 399 302 399 233 437 c 1,0,-1
EndSplineSet
Validated: 1
EndChar

StartChar: plus
Encoding: 43 43 12
Width: 525
Flags: HW
HStem: 199 63<44.7682 231 293 477.14>
VStem: 231 62<-16.0967 199 262 477.072>
LayerCount: 2
Fore
SplineSet
231 20 m 2,0,-1
 231 199 l 1,1,-1
 72 199 l 2,2,3
 36 199 36 199 36 231 c 0,4,5
 36 243 36 243 44.5 252.5 c 128,-1,6
 53 262 53 262 72 262 c 2,7,-1
 231 262 l 1,8,-1
 231 440 l 2,9,10
 231 478 231 478 262 478 c 128,-1,11
 293 478 293 478 293 440 c 2,12,-1
 293 262 l 1,13,-1
 450 262 l 2,14,15
 489 262 489 262 489 229 c 0,16,17
 489 215 489 215 477.5 207 c 128,-1,18
 466 199 466 199 450 199 c 2,19,-1
 293 199 l 1,20,-1
 293 20 l 2,21,22
 293 -17 293 -17 262 -17 c 128,-1,23
 231 -17 231 -17 231 20 c 2,0,-1
EndSplineSet
Validated: 1
EndChar

StartChar: comma
Encoding: 44 44 13
Width: 219
Flags: HW
HStem: -90 161<76.623 102.527>
VStem: 48 103<-60 44> 48 57<-88.5168 -63>
LayerCount: 2
Fore
SplineSet
145 20 m 1,0,-1
 105 -63 l 2,1,2
 92 -90 92 -90 75 -90 c 0,3,4
 48 -90 48 -90 48 -60 c 0,5,6
 48 -55 48 -55 51 -43 c 2,7,-1
 75 44 l 2,8,9
 83 71 83 71 105 71 c 0,10,11
 119 71 119 71 135 64 c 0,12,13
 151 58 151 58 151 44 c 128,-1,14
 151 30 151 30 145 20 c 1,0,-1
EndSplineSet
Validated: 8388609
EndChar

StartChar: hyphen
Encoding: 45 45 14
Width: 466
Flags: HW
HStem: 199 63<81.7682 381.14>
VStem: 73 320<207.251 252.203>
LayerCount: 2
Fore
SplineSet
109 262 m 2,0,-1
 354 262 l 2,1,2
 393 262 393 262 393 229 c 0,3,4
 393 215 393 215 381.5 207 c 128,-1,5
 370 199 370 199 354 199 c 2,6,-1
 109 199 l 2,7,8
 73 199 73 199 73 231 c 0,9,10
 73 243 73 243 81.5 252.5 c 128,-1,11
 90 262 90 262 109 262 c 2,0,-1
EndSplineSet
Validated: 1
EndChar

StartChar: period
Encoding: 46 46 15
Width: 239
Flags: HW
HStem: -18 94<73.2988 166.185>
VStem: 64 112<-6.89502 64.1021>
LayerCount: 2
Fore
SplineSet
176 29 m 128,-1,1
 176 10 176 10 158 -4 c 0,2,3
 141 -18 141 -18 121 -18 c 0,4,5
 120 -18 l 0,6,7
 100 -18 100 -18 82 -4 c 0,8,9
 64 8 64 8 64 28 c 128,-1,10
 64 48 64 48 82 62 c 0,11,12
 101 76 101 76 119 76 c 0,13,14
 120 76 l 0,15,16
 138 76 138 76 157 62 c 128,-1,0
 176 48 176 48 176 29 c 128,-1,1
EndSplineSet
Validated: 1
EndChar

StartChar: slash
Encoding: 47 47 16
Width: 367
Flags: HW
VStem: 42 283
LayerCount: 2
Fore
SplineSet
322 606 m 1,0,-1
 104 8 l 2,1,2
 94 -18 94 -18 73 -18 c 0,3,4
 63 -18 63 -18 52.5 -11 c 128,-1,5
 42 -4 42 -4 42 7 c 128,-1,6
 42 18 42 18 45 30 c 1,7,-1
 263 629 l 2,8,9
 273 655 273 655 293 655 c 0,10,11
 304 655 304 655 314.5 648 c 128,-1,12
 325 641 325 641 325 631 c 128,-1,13
 325 621 325 621 322 606 c 1,0,-1
EndSplineSet
Validated: 1
EndChar

StartChar: zero
Encoding: 48 48 17
Width: 592
Flags: HW
HStem: -5 62<153.86 438.14> 578 63<153.86 438.14>
VStem: 54 62<93.3188 540.85> 476 62<93.3188 540.85>
LayerCount: 2
Fore
SplineSet
116 494 m 2,0,-1
 116 141 l 2,1,2
 116 110 116 110 148.5 83.5 c 128,-1,3
 181 57 181 57 230 57 c 2,4,-1
 362 57 l 2,5,6
 411 57 411 57 443.5 83.5 c 128,-1,7
 476 110 476 110 476 141 c 2,8,-1
 476 494 l 2,9,10
 476 525 476 525 443.5 551.5 c 128,-1,11
 411 578 411 578 362 578 c 2,12,-1
 230 578 l 2,13,14
 181 578 181 578 148.5 551.5 c 128,-1,15
 116 525 116 525 116 494 c 2,0,-1
538 156 m 2,16,17
 538 85 538 85 485.5 40 c 128,-1,18
 433 -5 433 -5 352 -5 c 2,19,-1
 240 -5 l 2,20,21
 159 -5 159 -5 106.5 40 c 128,-1,22
 54 85 54 85 54 156 c 2,23,-1
 54 480 l 2,24,25
 54 551 54 551 106.5 596 c 128,-1,26
 159 641 159 641 240 641 c 2,27,-1
 352 641 l 2,28,29
 433 641 433 641 485.5 596 c 128,-1,30
 538 551 538 551 538 480 c 2,31,-1
 538 156 l 2,16,17
EndSplineSet
Validated: 1
EndChar

StartChar: one
Encoding: 49 49 18
Width: 592
Flags: HW
HStem: -7 21G<289.5 320.5>
VStem: 274 62<-6.12109 585>
LayerCount: 2
Fore
SplineSet
274 585 m 1,0,-1
 258 569 l 2,1,2
 242 554 242 554 226 554 c 128,-1,3
 210 554 210 554 203 562.5 c 128,-1,4
 196 571 196 571 196 583 c 128,-1,5
 196 595 196 595 212 610 c 2,6,-1
 273 671 l 1,7,8
 289 685 289 685 302 685 c 128,-1,9
 315 685 315 685 325.5 677 c 128,-1,10
 336 669 336 669 336 652 c 2,11,-1
 336 29 l 2,12,13
 336 -7 336 -7 305 -7 c 128,-1,14
 274 -7 274 -7 274 29 c 2,15,-1
 274 585 l 1,0,-1
EndSplineSet
Validated: 1
EndChar

StartChar: two
Encoding: 50 50 19
Width: 592
Flags: HW
HStem: -5 62<117 537.023> 579 62<127.317 443.054>
VStem: 55 62<57 126.559 484.977 567.135> 476 62<402.074 547.059>
LayerCount: 2
Fore
SplineSet
538 458 m 0,0,1
 538 408 538 408 496 367.5 c 128,-1,2
 454 327 454 327 393 297 c 128,-1,3
 332 267 332 267 271 236 c 128,-1,4
 210 205 210 205 165 159.5 c 128,-1,5
 120 114 120 114 117 57 c 1,6,-1
 498 57 l 2,7,8
 538 57 538 57 538 26 c 128,-1,9
 538 -5 538 -5 498 -5 c 2,10,-1
 55 -5 l 1,11,-1
 55 48 l 2,12,13
 55 100 55 100 78 143 c 128,-1,14
 101 186 101 186 138.5 215.5 c 128,-1,15
 176 245 176 245 221 269.5 c 128,-1,16
 266 294 266 294 310 315 c 128,-1,17
 354 336 354 336 392 356 c 0,18,19
 476 401 476 401 476 457 c 0,20,21
 476 536 476 536 442 557.5 c 128,-1,22
 408 579 408 579 313 579 c 2,23,-1
 166 579 l 2,24,25
 137 579 137 579 127 567.5 c 128,-1,26
 117 556 117 556 117 520 c 128,-1,27
 117 484 117 484 86 484 c 128,-1,28
 55 484 55 484 55 524 c 0,29,30
 55 587 55 587 79.5 614 c 128,-1,31
 104 641 104 641 159 641 c 2,32,-1
 313 641 l 2,33,34
 429 641 429 641 483.5 604 c 128,-1,35
 538 567 538 567 538 458 c 0,0,1
EndSplineSet
Validated: 1
EndChar

StartChar: three
Encoding: 51 51 20
Width: 592
Flags: HW
HStem: -5 62<147.23 439.367> 294 63<246.536 383.382> 579 62<147.23 440.107>
VStem: 54 62<84.0015 150.877 485.123 551.999> 477 61<94.525 221.806 417.269 543.243>
LayerCount: 2
Fore
SplineSet
340 579 m 2,0,-1
 252 579 l 2,1,2
 204 579 204 579 160 562.5 c 128,-1,3
 116 546 116 546 116 522 c 0,4,5
 116 484 116 484 85 484 c 128,-1,6
 54 484 54 484 54 528 c 128,-1,7
 54 572 54 572 105.5 606.5 c 128,-1,8
 157 641 157 641 245 641 c 2,9,-1
 328 641 l 2,10,11
 442 641 442 641 490 597.5 c 128,-1,12
 538 554 538 554 538 449 c 0,13,14
 538 417 538 417 499 381 c 128,-1,15
 460 345 460 345 419 326 c 1,16,17
 458 308 458 308 498 264.5 c 128,-1,18
 538 221 538 221 538 187 c 0,19,20
 538 82 538 82 490 38.5 c 128,-1,21
 442 -5 442 -5 328 -5 c 2,22,-1
 245 -5 l 2,23,24
 157 -5 157 -5 105.5 29.5 c 128,-1,25
 54 64 54 64 54 108 c 128,-1,26
 54 152 54 152 85 152 c 128,-1,27
 116 152 116 152 116 114 c 0,28,29
 116 90 116 90 159.5 73.5 c 128,-1,30
 203 57 203 57 252 57 c 2,31,-1
 340 57 l 2,32,33
 418 57 418 57 447.5 85.5 c 128,-1,34
 477 114 477 114 477 166 c 128,-1,35
 477 218 477 218 413 256 c 128,-1,36
 349 294 349 294 297 294 c 128,-1,37
 245 294 245 294 245 326 c 0,38,39
 245 357 245 357 288 357 c 0,40,41
 289 357 289 357 291 357 c 0,42,43
 355 357 355 357 416 388.5 c 128,-1,44
 477 420 477 420 477 472 c 128,-1,45
 477 524 477 524 447.5 551.5 c 128,-1,46
 418 579 418 579 340 579 c 2,0,-1
EndSplineSet
Validated: 1
EndChar

StartChar: four
Encoding: 52 52 21
Width: 592
Flags: HW
HStem: -7 21G<404 436> 165 62<119 388 452 539.097> 621 20G<361.029 452>
VStem: 388 64<-5.96606 165 227 564>
LayerCount: 2
Fore
SplineSet
503 165 m 2,0,-1
 452 165 l 1,1,-1
 452 28 l 2,2,3
 452 -7 452 -7 420 -7 c 128,-1,4
 388 -7 388 -7 388 28 c 2,5,-1
 388 165 l 1,6,-1
 52 165 l 1,7,-1
 52 234 l 1,8,-1
 377 641 l 1,9,-1
 452 641 l 1,10,-1
 452 227 l 1,11,-1
 503 227 l 2,12,13
 540 227 540 227 540 196 c 128,-1,14
 540 165 540 165 503 165 c 2,0,-1
388 564 m 1,15,-1
 119 227 l 1,16,-1
 388 227 l 1,17,-1
 388 564 l 1,15,-1
EndSplineSet
Validated: 1
EndChar

StartChar: five
Encoding: 53 53 22
Width: 592
Flags: HW
HStem: -9 62<189.833 391.811> 382 62<132 399.914> 579 62<152.862 490.097>
VStem: 471 62<133.905 314.146>
LayerCount: 2
Fore
SplineSet
68.5 121.5 m 128,-1,1
 78 131 78 131 86.5 131 c 128,-1,2
 95 131 95 131 122.5 111.5 c 128,-1,3
 150 92 150 92 195.5 72.5 c 128,-1,4
 241 53 241 53 291 53 c 0,5,6
 379 53 379 53 425 100 c 128,-1,7
 471 147 471 147 471 235 c 0,8,9
 471 287 471 287 444 321 c 0,10,11
 397 382 397 382 318 382 c 2,12,-1
 65 382 l 1,13,-1
 74 510 l 2,14,15
 79 583 79 583 106.5 612 c 128,-1,16
 134 641 134 641 194 641 c 2,17,-1
 454 641 l 2,18,19
 491 641 491 641 491 610 c 128,-1,20
 491 579 491 579 454 579 c 2,21,-1
 187 579 l 2,22,23
 164 579 164 579 152.5 567.5 c 128,-1,24
 141 556 141 556 138 526 c 2,25,-1
 132 444 l 1,26,-1
 309 444 l 2,27,28
 398 444 398 444 465.5 386 c 128,-1,29
 533 328 533 328 533 223.5 c 128,-1,30
 533 119 533 119 466 55 c 128,-1,31
 399 -9 399 -9 291 -9 c 0,32,33
 225 -9 225 -9 142 26.5 c 128,-1,34
 59 62 59 62 59 100 c 0,35,0
 59 112 59 112 68.5 121.5 c 128,-1,1
EndSplineSet
Validated: 1
EndChar

StartChar: six
Encoding: 54 54 23
Width: 592
Flags: HW
HStem: -9 62<193.311 398.689> 371 62<193.461 398.009> 624 20G<297 322>
VStem: 54 62<126.058 298.199> 476 62<126.024 297.976>
LayerCount: 2
Fore
SplineSet
122 52.5 m 128,-1,1
 54 114 54 114 54 205.5 c 128,-1,2
 54 297 54 297 76 372.5 c 128,-1,3
 98 448 98 448 130 496 c 128,-1,4
 162 544 162 544 198.5 579 c 128,-1,5
 235 614 235 614 262.5 629 c 128,-1,6
 290 644 290 644 304 644 c 0,7,8
 340 644 340 644 340 616 c 0,9,10
 340 597 340 597 314 585 c 0,11,12
 263 560 263 560 216.5 510.5 c 128,-1,13
 170 461 170 461 144 389 c 1,14,15
 207 433 207 433 304.5 433 c 128,-1,16
 402 433 402 433 470 371 c 128,-1,17
 538 309 538 309 538 212 c 128,-1,18
 538 115 538 115 470 53 c 128,-1,19
 402 -9 402 -9 296 -9 c 128,-1,0
 190 -9 190 -9 122 52.5 c 128,-1,1
116 212 m 128,-1,21
 116 139 116 139 163 96 c 128,-1,22
 210 53 210 53 296 53 c 128,-1,23
 382 53 382 53 429 96 c 128,-1,24
 476 139 476 139 476 212 c 128,-1,25
 476 285 476 285 428.5 328 c 128,-1,26
 381 371 381 371 296 371 c 128,-1,27
 211 371 211 371 163.5 328 c 128,-1,20
 116 285 116 285 116 212 c 128,-1,21
EndSplineSet
Validated: 1
EndChar

StartChar: seven
Encoding: 55 55 24
Width: 592
Flags: HW
HStem: -10 21G<263 280> 584 62<135.833 455>
VStem: 63 62<489.977 571.105>
LayerCount: 2
Fore
SplineSet
269 -10 m 0,0,1
 257 -10 257 -10 245 -3.5 c 128,-1,2
 233 3 233 3 233 16 c 128,-1,3
 233 29 233 29 239 41 c 1,4,-1
 455 584 l 1,5,-1
 176 584 l 2,6,7
 146 584 146 584 135.5 571.5 c 128,-1,8
 125 559 125 559 125 529 c 0,9,10
 125 489 125 489 94 489 c 128,-1,11
 63 489 63 489 63 529 c 0,12,13
 63 592 63 592 88 619 c 128,-1,14
 113 646 113 646 168 646 c 2,15,-1
 498 646 l 2,16,17
 529 646 529 646 529 618 c 0,18,19
 529 608 529 608 525 596 c 2,20,-1
 302 19 l 2,21,22
 291 -10 291 -10 269 -10 c 0,0,1
EndSplineSet
Validated: 1
EndChar

StartChar: eight
Encoding: 56 56 25
Width: 592
Flags: HW
HStem: -5 62<148.173 443.432> 297 62<148.946 444.092> 579 62<152.581 450.728>
VStem: 54 62<88.5812 265.039 384.596 554.015> 476 62<87.8817 264.998 383.529 555.533>
LayerCount: 2
Fore
SplineSet
150 275.5 m 128,-1,1
 116 254 116 254 116 176.5 c 128,-1,2
 116 99 116 99 150 78 c 128,-1,3
 184 57 184 57 280 57 c 2,4,-1
 313 57 l 2,5,6
 409 57 409 57 442.5 78 c 128,-1,7
 476 99 476 99 476 177 c 128,-1,8
 476 255 476 255 442 276 c 128,-1,9
 408 297 408 297 313 297 c 2,10,-1
 280 297 l 2,11,0
 184 297 184 297 150 275.5 c 128,-1,1
479 326 m 1,12,13
 538 282 538 282 538 175 c 128,-1,14
 538 68 538 68 483.5 31.5 c 128,-1,15
 429 -5 429 -5 313 -5 c 2,16,-1
 280 -5 l 2,17,18
 223 -4 223 -4 185 2 c 0,19,20
 148 8 148 8 116 27 c 0,21,22
 54 64 54 64 54 174 c 128,-1,23
 54 284 54 284 114 326 c 1,24,25
 54 364 54 364 54 470 c 0,26,27
 54 557 54 557 94 599 c 0,28,29
 126 632 126 632 204 638 c 0,30,31
 234 640 234 640 280 641 c 2,32,-1
 313 641 l 2,33,34
 458 641 458 641 498 599 c 128,-1,35
 538 557 538 557 538 470 c 0,36,37
 538 362 538 362 479 326 c 1,12,13
476 469 m 128,-1,39
 476 493 476 493 473 509.5 c 128,-1,40
 470 526 470 526 465.5 538.5 c 128,-1,41
 461 551 461 551 449.5 558.5 c 128,-1,42
 438 566 438 566 429 570 c 128,-1,43
 420 574 420 574 398 576 c 0,44,45
 366 579 366 579 313 579 c 2,46,-1
 278 579 l 2,47,48
 271 579 271 579 264 579 c 0,49,50
 170 579 170 579 152 566 c 0,51,52
 124 546 124 546 120 521.5 c 128,-1,53
 116 497 116 497 116 466.5 c 128,-1,54
 116 436 116 436 122.5 416 c 128,-1,55
 129 396 129 396 138 384 c 128,-1,56
 147 372 147 372 171 366 c 0,57,58
 200 359 200 359 264 359 c 0,59,60
 272 359 272 359 280 359 c 2,61,-1
 313 359 l 2,62,63
 407 359 407 359 422.5 365.5 c 128,-1,64
 438 372 438 372 449.5 379.5 c 128,-1,65
 461 387 461 387 465.5 399.5 c 128,-1,66
 470 412 470 412 473 428.5 c 128,-1,38
 476 445 476 445 476 469 c 128,-1,39
EndSplineSet
Validated: 1
EndChar

StartChar: nine
Encoding: 57 57 26
Width: 592
Flags: HW
HStem: -16 63<129.879 255.583> 297 62<169.634 431.32> 579 62<177.213 427.55>
VStem: 54 62<404.509 529.688> 476 62<399.872 535.575>
LayerCount: 2
Fore
SplineSet
54 469 m 0,0,1
 54 514 54 514 74 547.5 c 128,-1,2
 94 581 94 581 121.5 598.5 c 128,-1,3
 149 616 149 616 188 626 c 0,4,5
 246 641 246 641 313 641 c 0,6,7
 538 641 538 641 538 468 c 0,8,9
 538 362 538 362 506 270 c 128,-1,10
 474 178 474 178 421.5 116.5 c 128,-1,11
 369 55 369 55 302 19.5 c 128,-1,12
 235 -16 235 -16 165 -16 c 0,13,14
 129 -16 129 -16 129 15.5 c 128,-1,15
 129 47 129 47 164.5 47 c 128,-1,16
 200 47 200 47 241 63 c 128,-1,17
 282 79 282 79 325.5 110 c 128,-1,18
 369 141 369 141 406 197 c 128,-1,19
 443 253 443 253 460 324 c 1,20,21
 409 297 409 297 313 297 c 0,22,23
 54 297 54 297 54 469 c 0,0,1
313 579 m 0,24,25
 116 579 116 579 116 469 c 0,26,27
 116 397 116 397 182 376 c 0,28,29
 236 359 236 359 319.5 359 c 128,-1,30
 403 359 403 359 439.5 386.5 c 128,-1,31
 476 414 476 414 476 468 c 128,-1,32
 476 522 476 522 438.5 550.5 c 128,-1,33
 401 579 401 579 313 579 c 0,24,25
EndSplineSet
Validated: 1
EndChar

StartChar: colon
Encoding: 58 58 27
Width: 258
Flags: HW
HStem: 34 92<81.3512 175.443> 388 92<81.3512 175.443>
VStem: 73 112<45.0874 114.135 399.087 468.135>
LayerCount: 2
Back
SplineSet
185 80 m 128
 185 67.3333 178.833 56.5 166.5 47.5 c 128
 154.166 38.5 141.333 34 128 34 c 128
 114.667 34 102.167 38.3333 90.5 47 c 128
 78.8333 55.6667 73 66.6667 73 80 c 128
 73 93.3333 79.1667 104.333 91.5 113 c 128
 103.833 121.667 116 126 128 126 c 128
 140 126 152.5 121.5 165.5 112.5 c 128
 178.5 103.5 185 92.6667 185 80 c 128
185 433 m 128
 185 420.333 178.833 409.5 166.5 400.5 c 128
 154.166 391.5 141.333 387 128 387 c 0
 114.667 387.667 102 392 90 400 c 128
 78 408 72 418.667 72 432 c 128
 72 445.335 78.6667 456.668 92 466 c 1
 103.333 475.333 115 480 127 480 c 2
 128 480 l 2
 140 480 152.5 475.333 165.5 466 c 128
 178.5 456.667 185 445.667 185 433 c 128
EndSplineSet
Fore
SplineSet
185 434 m 128,-1,1
 185 415 185 415 166.5 401.5 c 128,-1,2
 148 388 148 388 128 388 c 128,-1,3
 108 388 108 388 90.5 401 c 128,-1,4
 73 414 73 414 73 434 c 128,-1,5
 73 454 73 454 91.5 467 c 128,-1,6
 110 480 110 480 128 480 c 128,-1,7
 146 480 146 480 165.5 466.5 c 128,-1,0
 185 453 185 453 185 434 c 128,-1,1
185 80 m 132,-1,9
 185 61 185 61 166.5 47.5 c 132,-1,10
 148 34 148 34 128 34 c 132,-1,11
 108 34 108 34 90.5 47 c 132,-1,12
 73 60 73 60 73 80 c 132,-1,13
 73 100 73 100 91.5 113 c 132,-1,14
 110 126 110 126 128 126 c 132,-1,15
 146 126 146 126 165.5 112.5 c 132,-1,8
 185 99 185 99 185 80 c 132,-1,9
EndSplineSet
Validated: 1
EndChar

StartChar: semicolon
Encoding: 59 59 28
Width: 261
Flags: HW
HStem: 388 92<81.3512 175.443>
VStem: 80 103<-9 94 397.611 469.664> 80 57<-37.5168 -12>
LayerCount: 2
Fore
SplineSet
185 434 m 128,-1,1
 185 415 185 415 166.5 401.5 c 128,-1,2
 148 388 148 388 128 388 c 128,-1,3
 108 388 108 388 90.5 401 c 128,-1,4
 73 414 73 414 73 434 c 128,-1,5
 73 454 73 454 91.5 467 c 128,-1,6
 110 480 110 480 128 480 c 128,-1,7
 146 480 146 480 165.5 466.5 c 128,-1,0
 185 453 185 453 185 434 c 128,-1,1
177 71 m 1,8,-1
 137 -12 l 2,9,10
 124 -39 124 -39 107 -39 c 0,11,12
 80 -39 80 -39 80 -9 c 0,13,14
 80 -4 80 -4 83 8 c 2,15,-1
 107 95 l 2,16,17
 115 122 115 122 137 122 c 0,18,19
 151 122 151 122 167 115 c 128,-1,20
 183 108 183 108 183 94 c 128,-1,21
 183 80 183 80 177 71 c 1,8,-1
EndSplineSet
Validated: 8388609
EndChar

StartChar: less
Encoding: 60 60 29
Width: 539
Flags: W
LayerCount: 2
Fore
SplineSet
417 92 m 2,0,-1
 53 302 l 2,1,2
 33 314 33 314 33 332 c 128,-1,3
 33 350 33 350 53 362 c 2,4,-1
 417 572 l 2,5,6
 430 579 430 579 442 579 c 128,-1,7
 454 579 454 579 462 571.5 c 128,-1,8
 470 564 470 564 470 548 c 128,-1,9
 470 532 470 532 448 519 c 2,10,-1
 125 333 l 1,11,-1
 447 145 l 2,12,13
 470 131 470 131 470 119 c 128,-1,14
 470 107 470 107 463 95.5 c 128,-1,15
 456 84 456 84 442 84 c 128,-1,16
 428 84 428 84 417 92 c 2,0,-1
EndSplineSet
Validated: 1
EndChar

StartChar: equal
Encoding: 61 61 30
Width: 478
Flags: HW
HStem: 249 63<87.7682 387.14> 352 63<87.7682 387.14>
VStem: 79 320<257.251 302.203 360.251 405.203>
LayerCount: 2
Fore
SplineSet
115 415 m 2,0,-1
 360 415 l 2,1,2
 399 415 399 415 399 382 c 0,3,4
 399 368 399 368 387.5 360 c 128,-1,5
 376 352 376 352 360 352 c 2,6,-1
 115 352 l 2,7,8
 79 352 79 352 79 384 c 0,9,10
 79 396 79 396 87.5 405.5 c 128,-1,11
 96 415 96 415 115 415 c 2,0,-1
115 312 m 2,12,-1
 360 312 l 2,13,14
 399 312 399 312 399 279 c 0,15,16
 399 265 399 265 387.5 257 c 128,-1,17
 376 249 376 249 360 249 c 2,18,-1
 115 249 l 2,19,20
 79 249 79 249 79 281 c 0,21,22
 79 293 79 293 87.5 302.5 c 128,-1,23
 96 312 96 312 115 312 c 2,12,-1
EndSplineSet
Validated: 1
EndChar

StartChar: greater
Encoding: 62 62 31
Width: 539
Flags: W
LayerCount: 2
Fore
SplineSet
122 92 m 2,0,1
 110 84 110 84 96.5 84 c 128,-1,2
 83 84 83 84 76 95.5 c 128,-1,3
 69 107 69 107 69 119 c 128,-1,4
 69 131 69 131 92 145 c 2,5,-1
 414 333 l 1,6,-1
 91 519 l 2,7,8
 69 532 69 532 69 548 c 0,9,10
 69 579 69 579 97 579 c 0,11,12
 98 579 98 579 99 579 c 0,13,14
 109 579 109 579 122 572 c 2,15,-1
 486 362 l 2,16,17
 506 350 506 350 506 332 c 128,-1,18
 506 314 506 314 486 302 c 2,19,-1
 122 92 l 2,0,1
EndSplineSet
Validated: 1
EndChar

StartChar: question
Encoding: 63 63 32
Width: 545
Flags: HW
HStem: -17 92<208.899 302.854> 592 62<131.25 409.191>
VStem: 38 63<433.928 560.956> 200 112<-5.9126 63.527> 225 62<164.769 295> 442 62<409.771 558.456>
LayerCount: 2
Fore
SplineSet
312 29 m 128,-1,1
 312 10 312 10 293.5 -3.5 c 128,-1,2
 275 -17 275 -17 255.5 -17 c 128,-1,3
 236 -17 236 -17 218 -4 c 128,-1,4
 200 9 200 9 200 28.5 c 128,-1,5
 200 48 200 48 218.5 61.5 c 128,-1,6
 237 75 237 75 255.5 75 c 128,-1,7
 274 75 274 75 293 61.5 c 128,-1,0
 312 48 312 48 312 29 c 128,-1,1
256 156 m 0,8,9
 244 156 244 156 234.5 164.5 c 128,-1,10
 225 173 225 173 225 194 c 2,11,-1
 225 342 l 1,12,-1
 386 386 l 2,13,14
 410 392 410 392 426 419 c 128,-1,15
 442 446 442 446 442 484.5 c 128,-1,16
 442 523 442 523 420.5 557.5 c 128,-1,17
 399 592 399 592 350 592 c 2,18,-1
 257 592 l 2,19,20
 165 592 165 592 133 571 c 128,-1,21
 101 550 101 550 101 471 c 0,22,23
 101 433 101 433 69.5 433 c 128,-1,24
 38 433 38 433 38 471 c 0,25,26
 38 585 38 585 99 622 c 0,27,28
 130 641 130 641 166 647.5 c 128,-1,29
 202 654 202 654 257 654 c 2,30,-1
 333 654 l 2,31,32
 424 654 424 654 464 604 c 128,-1,33
 504 554 504 554 504 484.5 c 128,-1,34
 504 415 504 415 474.5 377 c 128,-1,35
 445 339 445 339 373 319 c 2,36,-1
 287 295 l 1,37,-1
 287 194 l 2,38,39
 287 156 287 156 256 156 c 0,8,9
EndSplineSet
Validated: 8388609
EndChar

StartChar: at
Encoding: 64 64 33
Width: 603
Flags: HW
HStem: -10 62<201.361 461.652> 180 62<248.233 365.199> 421 62<247.769 365.231> 584 62<201.361 403.541>
VStem: 70 62<128.781 507.219> 175 62<255.656 407.344> 376 62<259.195 407.386> 473 62<64.3807 145.865 270.803 507.883>
LayerCount: 2
Fore
SplineSet
70 241 m 2,0,-1
 70 395 l 2,1,2
 70 512 70 512 129.5 579 c 128,-1,3
 189 646 189 646 288 646 c 2,4,-1
 317 646 l 2,5,6
 416 646 416 646 475.5 579 c 128,-1,7
 535 512 535 512 535 395 c 0,8,9
 535 276 535 276 502 240 c 0,10,11
 464 198 464 198 398 186 c 0,12,13
 359 180 359 180 306 180 c 0,14,15
 230 180 230 180 202.5 215.5 c 128,-1,16
 175 251 175 251 175 331.5 c 128,-1,17
 175 412 175 412 203 447.5 c 128,-1,18
 231 483 231 483 306.5 483 c 128,-1,19
 382 483 382 483 410 447.5 c 128,-1,20
 438 412 438 412 438 332 c 0,21,22
 438 285 438 285 430 258 c 1,23,24
 455 266 455 266 464 294 c 128,-1,25
 473 322 473 322 473 403.5 c 128,-1,26
 473 485 473 485 433.5 534.5 c 128,-1,27
 394 584 394 584 317 584 c 2,28,-1
 288 584 l 2,29,30
 210 584 210 584 171 534.5 c 128,-1,31
 132 485 132 485 132 395 c 2,32,-1
 132 241 l 2,33,34
 132 151 132 151 171 101.5 c 128,-1,35
 210 52 210 52 288 52 c 2,36,-1
 422 52 l 2,37,38
 451 52 451 52 462 64 c 128,-1,39
 473 76 473 76 473 111.5 c 128,-1,40
 473 147 473 147 504 147 c 128,-1,41
 535 147 535 147 535 100.5 c 128,-1,42
 535 54 535 54 513.5 22 c 128,-1,43
 492 -10 492 -10 429 -10 c 2,44,-1
 288 -10 l 2,45,46
 189 -10 189 -10 129.5 57 c 128,-1,47
 70 124 70 124 70 241 c 2,0,-1
249 259 m 128,-1,49
 261 242 261 242 306.5 242 c 128,-1,50
 352 242 352 242 364 259 c 128,-1,51
 376 276 376 276 376 331.5 c 128,-1,52
 376 387 376 387 364 404 c 128,-1,53
 352 421 352 421 306.5 421 c 128,-1,54
 261 421 261 421 249 404 c 128,-1,55
 237 387 237 387 237 331.5 c 128,-1,48
 237 276 237 276 249 259 c 128,-1,49
EndSplineSet
Validated: 1
EndChar

StartChar: A
Encoding: 65 65 34
Width: 590
Flags: HW
HStem: 194 62<181 409> 616 20G<251.331 338.669>
VStem: 24 63<-14.375 10> 503 63<-14.5627 10>
AnchorPoint: "top" 294 678 basechar 0
AnchorPoint: "bottom" 294 0 basechar 0
LayerCount: 2
Fore
SplineSet
331 636 m 1,0,-1
 563 31 l 2,1,2
 566 22 566 22 566 10 c 128,-1,3
 566 -2 566 -2 555 -9 c 128,-1,4
 544 -16 544 -16 535 -16 c 0,5,6
 513 -16 513 -16 503 10 c 2,7,-1
 433 194 l 1,8,-1
 157 194 l 1,9,-1
 87 10 l 1,10,11
 76 -16 76 -16 55 -16 c 0,12,13
 46 -16 46 -16 35 -9 c 128,-1,14
 24 -2 24 -2 24 10 c 128,-1,15
 24 22 24 22 27 31 c 2,16,-1
 259 636 l 1,17,-1
 331 636 l 1,0,-1
409 256 m 1,18,-1
 294 546 l 1,19,-1
 181 256 l 1,20,-1
 409 256 l 1,18,-1
EndSplineSet
Validated: 1
EndChar

StartChar: B
Encoding: 66 66 35
Width: 624
Flags: HW
HStem: 0 62<146 472.669> 317 62<146 434.308> 569 67<146 433.612>
VStem: 84 62<62 317 379 569> 464 62<407.833 539.659> 506 62<95.7427 283.594>
AnchorPoint: "bottom" 304 0 basechar 0
AnchorPoint: "top" 304 678 basechar 0
LayerCount: 2
Fore
SplineSet
343 317 m 2,0,-1
 146 317 l 1,1,-1
 146 62 l 1,2,-1
 331 62 l 2,3,4
 435 62 435 62 470.5 83 c 128,-1,5
 506 104 506 104 506 181 c 2,6,-1
 506 198 l 2,7,8
 506 275 506 275 472 296 c 128,-1,9
 438 317 438 317 343 317 c 2,0,-1
84 40 m 2,10,-1
 84 596 l 2,11,12
 84 636 84 636 113 636 c 2,13,-1
 297 636 l 2,14,15
 414 636 414 636 470 602 c 0,16,17
 526 570 526 570 526 486 c 128,-1,18
 526 402 526 402 482 365 c 1,19,20
 568 328 568 328 568 201 c 2,21,-1
 568 182 l 2,22,23
 568 73 568 73 512 36.5 c 128,-1,24
 456 0 456 0 331 0 c 2,25,-1
 113 0 l 2,26,27
 84 0 84 0 84 40 c 2,10,-1
297 379 m 2,28,29
 392 379 392 379 428 397.5 c 128,-1,30
 464 416 464 416 464 474 c 128,-1,31
 464 532 464 532 427 550.5 c 128,-1,32
 390 569 390 569 297 569 c 2,33,-1
 146 569 l 1,34,-1
 146 379 l 1,35,-1
 297 379 l 2,28,29
EndSplineSet
Validated: 8388609
EndChar

StartChar: C
Encoding: 67 67 36
Width: 610
Flags: HW
HStem: 0 62<167.084 482.167> 574 62<165.946 482.167>
VStem: 71 62<95.7427 541.967> 493 62<74.8961 155.556 480.034 561.619>
AnchorPoint: "bottom" 320 0 basechar 0
AnchorPoint: "top" 320 678 basechar 0
LayerCount: 2
Fore
SplineSet
450 0 m 2,0,-1
 309 0 l 2,1,2
 184 0 184 0 127.5 36.5 c 128,-1,3
 71 73 71 73 71 182 c 2,4,-1
 71 454 l 2,5,6
 71 562 71 562 125.5 599 c 128,-1,7
 180 636 180 636 297 636 c 2,8,-1
 450 636 l 2,9,10
 513 636 513 636 534 604 c 128,-1,11
 555 572 555 572 555 519 c 0,12,13
 555 479 555 479 524 479 c 0,14,15
 523 479 523 479 522 479 c 0,16,17
 493 479 493 479 493 514 c 0,18,19
 493 550 493 550 482.5 562 c 128,-1,20
 472 574 472 574 443 574 c 2,21,-1
 297 574 l 2,22,23
 201 574 201 574 167 552.5 c 128,-1,24
 133 531 133 531 133 453 c 2,25,-1
 133 183 l 2,26,27
 133 104 133 104 168.5 83 c 128,-1,28
 204 62 204 62 309 62 c 2,29,-1
 443 62 l 2,30,31
 472 62 472 62 482.5 74.5 c 128,-1,32
 493 87 493 87 493 122 c 128,-1,33
 493 157 493 157 524 157 c 0,34,35
 555 156 555 156 555 110 c 128,-1,36
 555 64 555 64 534 32 c 128,-1,37
 513 0 513 0 450 0 c 2,0,-1
EndSplineSet
Validated: 1
EndChar

StartChar: D
Encoding: 68 68 37
Width: 639
Flags: HW
HStem: 0 62<146 472.669> 574 62<146 473.432>
VStem: 84 62<62 574> 506 62<95.7427 541.967>
AnchorPoint: "bottom" 333 0 basechar 0
AnchorPoint: "top" 333 678 basechar 0
LayerCount: 2
Fore
SplineSet
568 454 m 2,0,-1
 568 182 l 2,1,2
 568 73 568 73 512 36.5 c 128,-1,3
 456 0 456 0 331 0 c 2,4,-1
 113 0 l 2,5,6
 84 0 84 0 84 40 c 2,7,-1
 84 596 l 2,8,9
 84 636 84 636 113 636 c 2,10,-1
 343 636 l 2,11,12
 459 636 459 636 513.5 599 c 128,-1,13
 568 562 568 562 568 454 c 2,0,-1
506 183 m 2,14,-1
 506 453 l 2,15,16
 506 532 506 532 472 553 c 128,-1,17
 438 574 438 574 343 574 c 2,18,-1
 146 574 l 1,19,-1
 146 62 l 1,20,-1
 331 62 l 2,21,22
 435 62 435 62 470.5 83 c 128,-1,23
 506 104 506 104 506 183 c 2,14,-1
EndSplineSet
Validated: 1
EndChar

StartChar: E
Encoding: 69 69 38
Width: 617
Flags: HW
HStem: 0 62<146 566.629> 327 62<146 449.488> 574 62<146 566.629>
VStem: 84 62<62 327 389 574>
AnchorPoint: "bottom" 333 0 basechar 0
AnchorPoint: "top" 333 678 basechar 0
LayerCount: 2
Fore
SplineSet
146 327 m 1,0,-1
 146 62 l 1,1,-1
 529 62 l 2,2,3
 568 62 568 62 568 29 c 0,4,5
 568 0 568 0 529 0 c 2,6,-1
 113 0 l 2,7,8
 84 0 84 0 84 40 c 2,9,-1
 84 596 l 2,10,11
 84 636 84 636 113 636 c 2,12,-1
 529 636 l 2,13,14
 568 636 568 636 568 603 c 0,15,16
 568 574 568 574 529 574 c 2,17,-1
 146 574 l 1,18,-1
 146 389 l 1,19,-1
 408 389 l 2,20,21
 451 389 451 389 451 356 c 0,22,23
 451 327 451 327 408 327 c 2,24,-1
 146 327 l 1,0,-1
EndSplineSet
Validated: 1
EndChar

StartChar: F
Encoding: 70 70 39
Width: 596
Flags: HW
HStem: -7 21G<99.5 130.5> 327 62<146 449.488> 574 62<146 566.629>
VStem: 84 62<-6.04785 327 389 574>
AnchorPoint: "bottom" 293 0 basechar 0
AnchorPoint: "top" 333 678 basechar 0
LayerCount: 2
Fore
SplineSet
146 31 m 2,0,1
 146 -7 146 -7 115 -7 c 128,-1,2
 84 -7 84 -7 84 32 c 2,3,-1
 84 596 l 2,4,5
 84 636 84 636 113 636 c 2,6,-1
 529 636 l 2,7,8
 568 636 568 636 568 603 c 0,9,10
 568 574 568 574 529 574 c 2,11,-1
 146 574 l 1,12,-1
 146 389 l 1,13,-1
 408 389 l 2,14,15
 451 389 451 389 451 356 c 0,16,17
 451 327 451 327 408 327 c 2,18,-1
 146 327 l 1,19,-1
 146 31 l 2,0,1
EndSplineSet
Validated: 1
EndChar

StartChar: G
Encoding: 71 71 40
Width: 625
Flags: HW
HStem: 0 62<165.666 482.683> 241 62<322.05 493> 574 62<167.084 482.167>
VStem: 71 62<94.2881 539.989> 493 62<73.8641 241 481.123 561.619>
AnchorPoint: "bottom" 320 0 basechar 0
AnchorPoint: "top" 320 678 basechar 0
LayerCount: 2
Fore
SplineSet
493 241 m 1,0,-1
 364 241 l 2,1,2
 321 241 321 241 321 272 c 128,-1,3
 321 303 321 303 364 303 c 2,4,-1
 555 303 l 1,5,-1
 555 112 l 2,6,7
 555 80 555 80 549 58 c 128,-1,8
 543 36 543 36 518.5 18 c 128,-1,9
 494 0 494 0 450 0 c 2,10,-1
 297 0 l 2,11,12
 180 0 180 0 125.5 36 c 128,-1,13
 71 72 71 72 71 179 c 2,14,-1
 71 457 l 2,15,16
 71 565 71 565 127.5 600.5 c 128,-1,17
 184 636 184 636 309 636 c 2,18,-1
 450 636 l 2,19,20
 513 636 513 636 534 604 c 128,-1,21
 555 572 555 572 555 526 c 128,-1,22
 555 480 555 480 524 480 c 0,23,24
 522 480 522 480 521 480 c 0,25,26
 493 480 493 480 493 514 c 0,27,28
 493 550 493 550 482.5 562 c 128,-1,29
 472 574 472 574 443 574 c 2,30,-1
 309 574 l 2,31,32
 205 574 205 574 169 553 c 128,-1,33
 133 532 133 532 133 455 c 2,34,-1
 133 181 l 2,35,36
 133 104 133 104 167 83 c 128,-1,37
 201 62 201 62 297 62 c 2,38,-1
 443 62 l 2,39,40
 473 62 473 62 483 73.5 c 128,-1,41
 493 85 493 85 493 116 c 2,42,-1
 493 241 l 1,0,-1
EndSplineSet
Validated: 1
EndChar

StartChar: H
Encoding: 72 72 41
Width: 652
Flags: HW
HStem: -7 21G<99.5 130.5 521.5 552.5> 312 62<146 506> 623 20G<98.5 129.5 521.5 552.5>
VStem: 84 62<-6.07227 312 374 641.629> 506 62<-6.07227 312 374 642.048>
AnchorPoint: "top" 326 678 basechar 0
AnchorPoint: "bottom" 326 0 basechar 0
LayerCount: 2
Fore
SplineSet
146 31 m 2,0,1
 146 -7 146 -7 115 -7 c 128,-1,2
 84 -7 84 -7 84 31 c 2,3,-1
 84 604 l 2,4,5
 84 643 84 643 113 643 c 0,6,7
 146 643 146 643 146 604 c 2,8,-1
 146 374 l 1,9,-1
 506 374 l 1,10,-1
 506 604 l 2,11,12
 506 643 506 643 537 643 c 128,-1,13
 568 643 568 643 568 604 c 2,14,-1
 568 31 l 2,15,16
 568 -7 568 -7 537 -7 c 128,-1,17
 506 -7 506 -7 506 31 c 2,18,-1
 506 312 l 1,19,-1
 146 312 l 1,20,-1
 146 31 l 2,0,1
EndSplineSet
Validated: 1
EndChar

StartChar: I
Encoding: 73 73 42
Width: 230
Flags: HW
HStem: -7 21G<99.5 130.5> 623 20G<99.5 130.5>
VStem: 84 62<-6.12109 642.097>
AnchorPoint: "top" 116 678 basechar 0
AnchorPoint: "bottom" 116 0 basechar 0
LayerCount: 2
Fore
SplineSet
146 29 m 2,0,1
 146 -7 146 -7 115 -7 c 128,-1,2
 84 -7 84 -7 84 29 c 2,3,-1
 84 606 l 2,4,5
 84 643 84 643 115 643 c 128,-1,6
 146 643 146 643 146 606 c 2,7,-1
 146 29 l 2,0,1
EndSplineSet
Validated: 1
EndChar

StartChar: J
Encoding: 74 74 43
Width: 571
Flags: HW
HStem: -8 62<128.761 395.023> 623 20G<443.5 474.5>
VStem: 33 63<86.8306 204.17> 428 62<86.2881 642.097>
AnchorPoint: "top" 459 678 basechar 0
AnchorPoint: "bottom" 263 0 basechar 0
LayerCount: 2
Fore
SplineSet
130 75.5 m 128,-1,1
 164 54 164 54 261.5 54 c 128,-1,2
 359 54 359 54 393.5 75 c 128,-1,3
 428 96 428 96 428 173 c 2,4,-1
 428 607 l 2,5,6
 428 643 428 643 459 643 c 128,-1,7
 490 643 490 643 490 606 c 2,8,-1
 490 171 l 2,9,10
 490 64 490 64 435 28 c 128,-1,11
 380 -8 380 -8 261.5 -8 c 128,-1,12
 143 -8 143 -8 88 29 c 128,-1,13
 33 66 33 66 33 177 c 0,14,15
 33 215 33 215 66 215 c 0,16,17
 80 215 80 215 88 204.5 c 128,-1,18
 96 194 96 194 96 177 c 0,19,0
 96 97 96 97 130 75.5 c 128,-1,1
EndSplineSet
Validated: 1
EndChar

StartChar: K
Encoding: 75 75 44
Width: 539
Flags: HW
HStem: -7 21G<99.5 130.5 494.25 506.75> 623 20G<99.5 130.5 429 441>
VStem: 84 62<-6.09668 261 338 642.072>
AnchorPoint: "bottom" 283 0 basechar 0
AnchorPoint: "top" 283 678 basechar 0
LayerCount: 2
Fore
SplineSet
522 48 m 2,0,1
 534 34 534 34 534 22 c 128,-1,2
 534 10 534 10 523.5 1.5 c 128,-1,3
 513 -7 513 -7 500.5 -7 c 128,-1,4
 488 -7 488 -7 474 10 c 1,5,-1
 194 319 l 1,6,-1
 146 261 l 1,7,-1
 146 30 l 2,8,9
 146 -7 146 -7 115 -7 c 128,-1,10
 84 -7 84 -7 84 29 c 2,11,-1
 84 606 l 2,12,13
 84 643 84 643 115 643 c 128,-1,14
 146 643 146 643 146 605 c 2,15,-1
 146 338 l 1,16,-1
 408 626 l 2,17,18
 423 643 423 643 435 643 c 128,-1,19
 447 643 447 643 457 634.5 c 128,-1,20
 467 626 467 626 467 613.5 c 128,-1,21
 467 601 467 601 456 588 c 2,22,-1
 237 355 l 1,23,-1
 522 48 l 2,0,1
EndSplineSet
Validated: 1
EndChar

StartChar: L
Encoding: 76 76 45
Width: 535
Flags: HW
HStem: 0 62<146 511.072> 623 20G<99.5 130.5>
VStem: 84 62<62 642.121>
AnchorPoint: "bottom" 303 0 basechar 0
AnchorPoint: "top" 114 678 basechar 0
LayerCount: 2
Fore
SplineSet
113 0 m 2,0,1
 84 0 84 0 84 39 c 2,2,-1
 84 607 l 2,3,4
 84 643 84 643 115 643 c 128,-1,5
 146 643 146 643 146 607 c 2,6,-1
 146 62 l 1,7,-1
 474 62 l 2,8,9
 512 62 512 62 512 31 c 128,-1,10
 512 0 512 0 474 0 c 2,11,-1
 113 0 l 2,0,1
EndSplineSet
Validated: 1
EndChar

StartChar: M
Encoding: 77 77 46
Width: 673
Flags: HW
HStem: -7 21G<99.5 130.5 542.5 573.5> 623 20G<98.5 123 550 574>
VStem: 84 62<-6.02344 534> 527 62<-6.02344 534>
AnchorPoint: "bottom" 336 0 basechar 0
AnchorPoint: "top" 336 678 basechar 0
LayerCount: 2
Fore
SplineSet
359 289 m 2,0,1
 351 279 351 279 337.5 279 c 128,-1,2
 324 279 324 279 314 289 c 1,3,-1
 146 534 l 1,4,-1
 146 33 l 2,5,6
 146 -7 146 -7 115 -7 c 128,-1,7
 84 -7 84 -7 84 31 c 2,8,-1
 84 604 l 2,9,10
 84 643 84 643 113 643 c 0,11,12
 133 643 133 643 147 622 c 2,13,-1
 336 350 l 1,14,-1
 526 622 l 2,15,16
 541 643 541 643 559 643 c 0,17,18
 589 643 589 643 589 604 c 2,19,-1
 589 31 l 2,20,21
 589 -7 589 -7 558 -7 c 128,-1,22
 527 -7 527 -7 527 33 c 2,23,-1
 527 534 l 1,24,-1
 359 289 l 2,0,1
EndSplineSet
Validated: 1
EndChar

StartChar: N
Encoding: 78 78 47
Width: 652
Flags: HW
HStem: -7 21G<99.5 130.5 529.5 553> 623 20G<98.5 123 521.5 552.5>
VStem: 84 62<-6.07227 530> 506 62<107 641.999>
AnchorPoint: "bottom" 326 0 basechar 0
AnchorPoint: "top" 326 678 basechar 0
LayerCount: 2
Fore
SplineSet
538 -7 m 0,0,1
 521 -7 521 -7 514 0 c 1,2,-1
 146 530 l 1,3,-1
 146 29 l 2,4,5
 146 -7 146 -7 115 -7 c 128,-1,6
 84 -7 84 -7 84 31 c 2,7,-1
 84 604 l 2,8,9
 84 643 84 643 113 643 c 0,10,11
 133 643 133 643 147 622 c 2,12,-1
 506 107 l 1,13,-1
 506 602 l 2,14,15
 506 643 506 643 537 643 c 128,-1,16
 568 643 568 643 568 604 c 2,17,-1
 568 31 l 2,18,19
 568 -7 568 -7 538 -7 c 0,0,1
EndSplineSet
Validated: 1
EndChar

StartChar: O
Encoding: 79 79 48
Width: 614
Flags: HW
HStem: -9 62<206.13 407.437> 583 62<206.463 407.104>
VStem: 65 62<132.613 503.012> 487 62<132.613 503.012>
AnchorPoint: "bottom" 307 0 basechar 0
AnchorPoint: "top" 307 678 basechar 0
LayerCount: 2
Fore
SplineSet
481.5 54.5 m 128,-1,1
 414 -9 414 -9 306.5 -9 c 128,-1,2
 199 -9 199 -9 132 54.5 c 128,-1,3
 65 118 65 118 65 229 c 2,4,-1
 65 407 l 2,5,6
 65 518 65 518 132 581.5 c 128,-1,7
 199 645 199 645 306.5 645 c 128,-1,8
 414 645 414 645 481.5 581.5 c 128,-1,9
 549 518 549 518 549 407 c 2,10,-1
 549 229 l 2,11,0
 549 118 549 118 481.5 54.5 c 128,-1,1
307 583 m 128,-1,13
 220 583 220 583 173.5 536 c 128,-1,14
 127 489 127 489 127 405 c 2,15,-1
 127 231 l 2,16,17
 127 146 127 146 173 99.5 c 128,-1,18
 219 53 219 53 307 53 c 128,-1,19
 395 53 395 53 441 99.5 c 128,-1,20
 487 146 487 146 487 231 c 2,21,-1
 487 405 l 2,22,23
 487 489 487 489 440.5 536 c 128,-1,12
 394 583 394 583 307 583 c 128,-1,13
EndSplineSet
Validated: 1
EndChar

StartChar: P
Encoding: 80 80 49
Width: 560
Flags: HW
HStem: -7 21G<99.5 130.5> 322 62<146 435.105> 574 62<146 435.427>
VStem: 84 62<-6.12109 322 384 574> 464 62<411.601 545.74>
AnchorPoint: "bottom" 305 0 basechar 0
AnchorPoint: "top" 305 678 basechar 0
LayerCount: 2
Fore
SplineSet
146 29 m 2,0,1
 146 -7 146 -7 115 -7 c 128,-1,2
 84 -7 84 -7 84 29 c 2,3,-1
 84 596 l 2,4,5
 84 636 84 636 113 636 c 2,6,-1
 299 636 l 2,7,8
 413 636 413 636 469.5 602.5 c 128,-1,9
 526 569 526 569 526 486 c 128,-1,10
 526 403 526 403 478.5 362.5 c 128,-1,11
 431 322 431 322 345 322 c 2,12,-1
 146 322 l 1,13,-1
 146 29 l 2,0,1
299 384 m 2,14,15
 396 384 396 384 430 403 c 128,-1,16
 464 422 464 422 464 480 c 128,-1,17
 464 538 464 538 428 556 c 128,-1,18
 392 574 392 574 299 574 c 2,19,-1
 146 574 l 1,20,-1
 146 384 l 1,21,-1
 299 384 l 2,14,15
EndSplineSet
Validated: 1
EndChar

StartChar: Q
Encoding: 81 81 50
Width: 614
Flags: HW
HStem: -9 62<206.426 409.157> 583 62<206.463 407.104>
VStem: 65 62<132.613 503.012> 487 62<131.676 503.012>
AnchorPoint: "top" 307 678 basechar 0
AnchorPoint: "bottom" 307 0 basechar 0
LayerCount: 2
Fore
SplineSet
307 583 m 128,-1,1
 220 583 220 583 173.5 536 c 128,-1,2
 127 489 127 489 127 405 c 2,3,-1
 127 231 l 2,4,5
 127 146 127 146 173 99.5 c 128,-1,6
 219 53 219 53 307 53 c 0,7,8
 372 53 372 53 412 77 c 1,9,-1
 359 124 l 1,10,11
 344 135 344 135 344 148 c 128,-1,12
 344 161 344 161 353 171 c 128,-1,13
 362 181 362 181 377 181 c 128,-1,14
 392 181 392 181 407 166 c 2,15,-1
 457 118 l 1,16,17
 487 162 487 162 487 231 c 2,18,-1
 487 405 l 2,19,20
 487 489 487 489 440.5 536 c 128,-1,0
 394 583 394 583 307 583 c 128,-1,1
457 31 m 1,21,22
 397 -9 397 -9 298 -9 c 128,-1,23
 199 -9 199 -9 132 54.5 c 128,-1,24
 65 118 65 118 65 229 c 2,25,-1
 65 407 l 2,26,27
 65 518 65 518 132 581.5 c 128,-1,28
 199 645 199 645 306.5 645 c 128,-1,29
 414 645 414 645 481.5 581.5 c 128,-1,30
 549 518 549 518 549 407 c 2,31,-1
 549 229 l 2,32,33
 549 135 549 135 502 75 c 1,34,-1
 534 45 l 2,35,36
 546 33 546 33 546 20 c 128,-1,37
 546 7 546 7 537.5 -2.5 c 128,-1,38
 529 -12 529 -12 514.5 -12 c 128,-1,39
 500 -12 500 -12 489 -1 c 2,40,-1
 457 31 l 1,21,22
EndSplineSet
Validated: 1
EndChar

StartChar: R
Encoding: 82 82 51
Width: 589
Flags: HW
HStem: -7 21G<99.5 130.5 488 509> 317 62<146 357.855> 569 67<146 433.012>
VStem: 84 62<-6.12109 317 379 569> 464 62<407.072 540.742>
AnchorPoint: "top" 305 678 basechar 0
AnchorPoint: "bottom" 305 0 basechar 0
LayerCount: 2
Fore
SplineSet
414 329 m 1,0,1
 446 294 446 294 475.5 220.5 c 128,-1,2
 505 147 505 147 519.5 93.5 c 128,-1,3
 534 40 534 40 534 27 c 128,-1,4
 534 14 534 14 525 3.5 c 128,-1,5
 516 -7 516 -7 502 -7 c 0,6,7
 474 -7 474 -7 472 30 c 128,-1,8
 470 67 470 67 431 170 c 128,-1,9
 392 273 392 273 333 317 c 1,10,-1
 146 317 l 1,11,-1
 146 29 l 2,12,13
 146 -7 146 -7 115 -7 c 128,-1,14
 84 -7 84 -7 84 29 c 2,15,-1
 84 596 l 2,16,17
 84 636 84 636 113 636 c 2,18,-1
 297 636 l 2,19,20
 413 636 413 636 469.5 602.5 c 128,-1,21
 526 569 526 569 526 478 c 0,22,23
 526 418 526 418 496.5 380 c 128,-1,24
 467 342 467 342 414 329 c 1,0,1
146 379 m 1,25,-1
 297 379 l 2,26,27
 392 379 392 379 428 397 c 128,-1,28
 464 415 464 415 464 474 c 128,-1,29
 464 533 464 533 427.5 551 c 128,-1,30
 391 569 391 569 297 569 c 2,31,-1
 146 569 l 1,32,-1
 146 379 l 1,25,-1
EndSplineSet
Validated: 8388609
EndChar

StartChar: S
Encoding: 83 83 52
Width: 628
Flags: HW
HStem: -8 62<157.43 470.338> 582 62<157.839 471.793>
VStem: 61 62<89.1973 204.17 405.893 546.714> 506 61<89.4613 238.922 434.167 548.262>
AnchorPoint: "top" 303 678 basechar 0
AnchorPoint: "bottom" 303 0 basechar 0
LayerCount: 2
Fore
SplineSet
147 549 m 128,-1,1
 123 516 123 516 123 478.5 c 128,-1,2
 123 441 123 441 139.5 414.5 c 128,-1,3
 156 388 156 388 179 382 c 1,4,-1
 435 332 l 2,5,6
 506 318 506 318 536.5 270 c 128,-1,7
 567 222 567 222 567 158 c 0,8,9
 566 94 566 94 530 46 c 0,10,11
 489 -8 489 -8 392 -8 c 0,12,13
 390 -8 390 -8 388 -8 c 2,14,-1
 298 -8 l 2,15,16
 174 -8 174 -8 117.5 29 c 128,-1,17
 61 66 61 66 61 177 c 0,18,19
 61 215 61 215 94 215 c 0,20,21
 108 215 108 215 116 204.5 c 128,-1,22
 124 194 124 194 124 177 c 0,23,24
 124 97 124 97 158.5 75.5 c 128,-1,25
 193 54 193 54 298 54 c 2,26,-1
 408 54 l 2,27,28
 444 54 444 54 468 74 c 0,29,30
 506 105 506 105 506 155 c 0,31,32
 506 208 506 208 486 236 c 0,33,34
 468 264 468 264 449 268 c 2,35,-1
 195 320 l 2,36,37
 123 335 123 335 92 373 c 128,-1,38
 61 411 61 411 61 479.5 c 128,-1,39
 61 548 61 548 105.5 596 c 128,-1,40
 150 644 150 644 253 644 c 2,41,-1
 329 644 l 2,42,43
 391 644 391 644 430.5 637.5 c 128,-1,44
 470 631 470 631 504 612 c 0,45,46
 567 577 567 577 567 465 c 0,47,48
 567 423 567 423 535 423 c 0,49,50
 521 423 521 423 512.5 433.5 c 128,-1,51
 504 444 504 444 504 473.5 c 128,-1,52
 504 503 504 503 496.5 527 c 128,-1,53
 489 551 489 551 465.5 563.5 c 128,-1,54
 442 576 442 576 413.5 579 c 128,-1,55
 385 582 385 582 329 582 c 2,56,-1
 227 582 l 2,57,0
 171 582 171 582 147 549 c 128,-1,1
EndSplineSet
Validated: 1
EndChar

StartChar: T
Encoding: 84 84 53
Width: 500
Flags: HW
HStem: -7 21G<232.5 256> 574 62<26.9277 216 285 472.072>
VStem: 216 69<1.25293 574>
AnchorPoint: "bottom" 250 0 basechar 0
AnchorPoint: "top" 250 678 basechar 0
LayerCount: 2
Fore
SplineSet
435 636 m 2,0,1
 473 636 473 636 473 605 c 128,-1,2
 473 574 473 574 435 574 c 2,3,-1
 285 574 l 1,4,-1
 285 29 l 2,5,6
 285 9 285 9 274 1 c 128,-1,7
 263 -7 263 -7 249 -7 c 0,8,9
 216 -7 216 -7 216 29 c 2,10,-1
 216 574 l 1,11,-1
 64 574 l 2,12,13
 26 574 26 574 26 605 c 128,-1,14
 26 636 26 636 64 636 c 2,15,-1
 435 636 l 2,0,1
EndSplineSet
Validated: 1
EndChar

StartChar: U
Encoding: 85 85 54
Width: 640
Flags: HW
HStem: -10 63<219.526 421.148> 623 20G<93.5 124.5 515.5 546.5>
VStem: 78 62<132.496 642.097> 500 62<132.496 642.097>
AnchorPoint: "bottom" 320 0 basechar 0
AnchorPoint: "top" 320 678 basechar 0
LayerCount: 2
Fore
SplineSet
500 607 m 2,0,1
 500 643 500 643 531 643 c 128,-1,2
 562 643 562 643 562 606 c 2,3,-1
 562 229 l 2,4,5
 562 118 562 118 494 54 c 0,6,7
 429 -10 429 -10 322 -10 c 0,8,9
 321 -10 321 -10 320 -10 c 0,10,11
 212 -10 212 -10 145 54 c 128,-1,12
 78 118 78 118 78 229 c 2,13,-1
 78 606 l 2,14,15
 78 643 78 643 109 643 c 128,-1,16
 140 643 140 643 140 607 c 2,17,-1
 140 231 l 2,18,19
 140 146 140 146 186 99.5 c 128,-1,20
 232 53 232 53 320 53 c 128,-1,21
 408 53 408 53 454 99.5 c 128,-1,22
 500 146 500 146 500 231 c 2,23,-1
 500 607 l 2,0,1
EndSplineSet
Validated: 1
EndChar

StartChar: V
Encoding: 86 86 55
Width: 590
Flags: HW
HStem: 0 21G<251.331 338.669>
VStem: 24 63<626 650.358> 503 63<626 650.375>
AnchorPoint: "top" 294 678 basechar 0
AnchorPoint: "bottom" 294 0 basechar 0
LayerCount: 2
Fore
SplineSet
503 626 m 2,0,1
 514 652 514 652 535 652 c 0,2,3
 544 652 544 652 555 645 c 128,-1,4
 566 638 566 638 566 626 c 128,-1,5
 566 614 566 614 563 605 c 2,6,-1
 331 0 l 1,7,-1
 259 0 l 1,8,-1
 27 605 l 2,9,10
 24 614 24 614 24 626 c 128,-1,11
 24 638 24 638 35 645 c 128,-1,12
 46 652 46 652 55 652 c 0,13,14
 75 652 75 652 87 626 c 1,15,-1
 296 90 l 1,16,-1
 503 626 l 2,0,1
EndSplineSet
Validated: 1
EndChar

StartChar: W
Encoding: 87 87 56
Width: 935
Flags: HW
HStem: 0 21G<218.639 296.531 638.432 717.37>
AnchorPoint: "bottom" 467 0 basechar 0
AnchorPoint: "top" 467 678 basechar 0
LayerCount: 2
Fore
SplineSet
679 84 m 1,0,-1
 846 624 l 1,1,2
 856 649 856 649 882 649 c 128,-1,3
 908 649 908 649 908 624 c 0,4,5
 908 618 908 618 904 606 c 2,6,-1
 711 0 l 1,7,-1
 645 0 l 1,8,-1
 467 542 l 1,9,-1
 290 0 l 1,10,-1
 225 0 l 1,11,-1
 31 610 l 2,12,13
 27 622 27 622 27 628 c 0,14,15
 27 653 27 653 53 653 c 128,-1,16
 79 653 79 653 89 628 c 1,17,-1
 258 84 l 1,18,-1
 432 623 l 2,19,20
 442 652 442 652 468 652 c 128,-1,21
 494 652 494 652 504 622 c 2,22,-1
 679 84 l 1,0,-1
EndSplineSet
Validated: 1
EndChar

StartChar: X
Encoding: 88 88 57
Width: 582
Flags: HW
HStem: -7 21G<64 78 505.5 518.5> 623 20G<61.5 76.5 506 518>
AnchorPoint: "bottom" 291 0 basechar 0
AnchorPoint: "top" 291 678 basechar 0
LayerCount: 2
Fore
SplineSet
485 623 m 2,0,1
 500 643 500 643 512 643 c 128,-1,2
 524 643 524 643 534.5 635.5 c 128,-1,3
 545 628 545 628 545 614.5 c 128,-1,4
 545 601 545 601 536 589 c 2,5,-1
 332 317 l 1,6,-1
 536 46 l 2,7,8
 545 34 545 34 545 21 c 128,-1,9
 545 8 545 8 535 0.5 c 128,-1,10
 525 -7 525 -7 512 -7 c 128,-1,11
 499 -7 499 -7 485 11 c 2,12,-1
 291 273 l 1,13,-1
 98 11 l 2,14,15
 85 -7 85 -7 71 -7 c 128,-1,16
 57 -7 57 -7 47.5 1 c 128,-1,17
 38 9 38 9 38 21.5 c 128,-1,18
 38 34 38 34 47 46 c 2,19,-1
 251 317 l 1,20,-1
 47 589 l 2,21,22
 38 600 38 600 38 611.5 c 128,-1,23
 38 623 38 623 44 631 c 0,24,25
 54 643 54 643 69 643 c 128,-1,26
 84 643 84 643 98 623 c 2,27,-1
 291 362 l 1,28,-1
 485 623 l 2,0,1
EndSplineSet
Validated: 1
EndChar

StartChar: Y
Encoding: 89 89 58
Width: 541
Flags: HW
HStem: -7 21G<254 286> 623 20G<42 54 485 497>
VStem: 238 65<-5.76953 307>
AnchorPoint: "bottom" 270 0 basechar 0
AnchorPoint: "top" 270 678 basechar 0
LayerCount: 2
Fore
SplineSet
238 307 m 1,0,-1
 26 590 l 1,1,2
 17 604 17 604 17 615 c 128,-1,3
 17 626 17 626 26.5 634.5 c 128,-1,4
 36 643 36 643 48 643 c 128,-1,5
 60 643 60 643 76 623 c 2,6,-1
 270 362 l 1,7,-1
 463 623 l 2,8,9
 479 643 479 643 491 643 c 128,-1,10
 503 643 503 643 513 634.5 c 128,-1,11
 523 626 523 626 523 615 c 128,-1,12
 523 604 523 604 514 590 c 1,13,-1
 303 307 l 1,14,-1
 303 28 l 2,15,16
 302 -7 302 -7 270 -7 c 128,-1,17
 238 -7 238 -7 238 28 c 2,18,-1
 238 307 l 1,0,-1
EndSplineSet
Validated: 1
EndChar

StartChar: Z
Encoding: 90 90 59
Width: 580
Flags: HW
HStem: 0 62<128 531.023> 574 62<49.001 455>
AnchorPoint: "bottom" 282 0 basechar 0
AnchorPoint: "top" 282 678 basechar 0
LayerCount: 2
Fore
SplineSet
49 0 m 1,0,-1
 49 58 l 1,1,-1
 455 574 l 1,2,-1
 89 574 l 2,3,4
 48 574 48 574 48 605 c 128,-1,5
 48 636 48 636 89 636 c 2,6,-1
 532 636 l 1,7,-1
 532 576 l 1,8,-1
 128 62 l 1,9,-1
 492 62 l 2,10,11
 532 62 532 62 532 31 c 128,-1,12
 532 0 532 0 492 0 c 2,13,-1
 49 0 l 1,0,-1
EndSplineSet
Validated: 1
EndChar

StartChar: bracketleft
Encoding: 91 91 60
Width: 267
Flags: HW
HStem: -52 62<142 220> 626 62<142 220>
VStem: 80 140<-52 10 626 688> 80 62<10 626>
LayerCount: 2
Fore
SplineSet
142 10 m 1,0,-1
 220 10 l 1,1,-1
 220 -52 l 1,2,-1
 80 -52 l 1,3,-1
 80 688 l 1,4,-1
 220 688 l 1,5,-1
 220 626 l 1,6,-1
 142 626 l 1,7,-1
 142 10 l 1,0,-1
EndSplineSet
Validated: 8388609
EndChar

StartChar: backslash
Encoding: 92 92 61
Width: 367
Flags: HW
VStem: 42 283
LayerCount: 2
Fore
SplineSet
45 606 m 1,0,1
 42 621 42 621 42 631 c 128,-1,2
 42 641 42 641 52.5 648 c 128,-1,3
 63 655 63 655 74 655 c 0,4,5
 94 655 94 655 104 629 c 2,6,-1
 322 30 l 1,7,8
 325 18 325 18 325 7 c 128,-1,9
 325 -4 325 -4 314.5 -11 c 128,-1,10
 304 -18 304 -18 294 -18 c 0,11,12
 273 -18 273 -18 263 8 c 2,13,-1
 45 606 l 1,0,1
EndSplineSet
Validated: 1
EndChar

StartChar: bracketright
Encoding: 93 93 62
Width: 267
Flags: HW
HStem: -52 62<47 125> 626 62<47 125>
VStem: 47 140<-52 10 626 688> 125 62<10 626>
LayerCount: 2
Fore
SplineSet
125 10 m 1,0,-1
 125 626 l 1,1,-1
 47 626 l 1,2,-1
 47 688 l 1,3,-1
 187 688 l 1,4,-1
 187 -52 l 1,5,-1
 47 -52 l 1,6,-1
 47 10 l 1,7,-1
 125 10 l 1,0,-1
EndSplineSet
Validated: 8388609
EndChar

StartChar: asciicircum
Encoding: 94 94 63
Width: 443
Flags: HW
HStem: 355 291
VStem: 306 62<356.976 379>
LayerCount: 2
Fore
SplineSet
136 379 m 2,0,1
 126 355 126 355 103 355 c 0,2,3
 91 355 91 355 83 363 c 0,4,5
 75 372 75 372 75 382 c 128,-1,6
 75 392 75 392 77 397 c 2,7,-1
 189 646 l 1,8,-1
 255 646 l 1,9,-1
 366 397 l 2,10,11
 368 392 368 392 368 383 c 0,12,13
 368 355 368 355 340 355 c 0,14,15
 318 355 318 355 306 379 c 1,16,-1
 222 569 l 1,17,-1
 136 379 l 2,0,1
EndSplineSet
Validated: 1
EndChar

StartChar: underscore
Encoding: 95 95 64
Width: 475
Flags: HW
HStem: -52 62<-9.07227 484.072>
LayerCount: 2
Fore
SplineSet
28 10 m 2,0,-1
 447 10 l 2,1,2
 485 10 485 10 485 -21 c 128,-1,3
 485 -52 485 -52 447 -52 c 2,4,-1
 28 -52 l 2,5,6
 -10 -52 -10 -52 -10 -21 c 128,-1,7
 -10 10 -10 10 28 10 c 2,0,-1
EndSplineSet
Validated: 1
EndChar

StartChar: grave
Encoding: 96 96 65
Width: 212
Flags: HW
HStem: 500 188
VStem: 24 165
LayerCount: 2
Fore
SplineSet
83 671 m 2,0,-1
 179 556 l 2,1,2
 189 544 189 544 189 530 c 128,-1,3
 189 516 189 516 179.5 508 c 128,-1,4
 170 500 170 500 158 500 c 128,-1,5
 146 500 146 500 130 517 c 2,6,-1
 34 632 l 2,7,8
 24 643 24 643 24 657 c 0,9,10
 24 672 24 672 34 680 c 128,-1,11
 44 688 44 688 56 688 c 128,-1,12
 68 688 68 688 83 671 c 2,0,-1
EndSplineSet
Validated: 1
EndChar

StartChar: a
Encoding: 97 97 66
Width: 573
Flags: HW
HStem: 0 62<135.076 368.18> 238 62<155.025 440> 399 62<142.158 429.167>
VStem: 60 62<74.2539 207.003 304.977 377.706> 440 62<-6.02344 56 133.49 238 300 388.168>
AnchorPoint: "bottom" 262 0 basechar 0
AnchorPoint: "top" 287 510 basechar 0
LayerCount: 2
Fore
SplineSet
298 238 m 2,0,1
 192 238 192 238 157 217.5 c 128,-1,2
 122 197 122 197 122 121 c 0,3,4
 122 98 122 98 138 80 c 128,-1,5
 154 62 154 62 172 62 c 2,6,-1
 265 62 l 2,7,8
 440 62 440 62 440 228 c 2,9,-1
 440 238 l 1,10,-1
 298 238 l 2,0,1
298 300 m 2,11,-1
 440 300 l 1,12,-1
 440 350 l 2,13,14
 440 378 440 378 429.5 388.5 c 128,-1,15
 419 399 419 399 390 399 c 2,16,-1
 249 399 l 2,17,18
 122 399 122 399 122 344 c 0,19,20
 122 304 122 304 91 304 c 128,-1,21
 60 304 60 304 60 344 c 0,22,23
 60 461 60 461 242 461 c 2,24,-1
 397 461 l 2,25,26
 458 461 458 461 480 432 c 128,-1,27
 502 403 502 403 502 333 c 2,28,-1
 502 31 l 2,29,30
 502 -7 502 -7 471 -7 c 128,-1,31
 440 -7 440 -7 440 33 c 2,32,-1
 440 56 l 1,33,34
 381 0 381 0 265 0 c 2,35,-1
 172 0 l 2,36,37
 123 0 123 0 91.5 34.5 c 128,-1,38
 60 69 60 69 60 126 c 0,39,40
 60 228 60 228 117.5 264 c 128,-1,41
 175 300 175 300 298 300 c 2,11,-1
EndSplineSet
Validated: 1
EndChar

StartChar: b
Encoding: 98 98 67
Width: 641
Flags: HW
HStem: 0 62<209.23 484.75> 399 62<209.23 484.75> 623 20G<89.5 120.5>
VStem: 75 62<-6.02344 56 133.49 327.079 405 641.559> 517 62<93.7236 367.276>
AnchorPoint: "bottom" 337 0 basechar 0
AnchorPoint: "top" 347 510 basechar 0
LayerCount: 2
Fore
SplineSet
137 405 m 1,0,1
 197 461 197 461 313 461 c 2,2,-1
 342 461 l 2,3,4
 466 461 466 461 522.5 425 c 128,-1,5
 579 389 579 389 579 284 c 2,6,-1
 579 177 l 2,7,8
 579 72 579 72 522.5 36 c 128,-1,9
 466 0 466 0 342 0 c 2,10,-1
 313 0 l 2,11,12
 197 0 197 0 137 56 c 1,13,-1
 137 33 l 2,14,15
 137 -7 137 -7 106 -7 c 128,-1,16
 75 -7 75 -7 75 31 c 2,17,-1
 75 602 l 2,18,19
 75 643 75 643 104 643 c 0,20,21
 137 643 137 643 137 602 c 2,22,-1
 137 405 l 1,0,1
313 399 m 2,23,24
 137 399 137 399 137 232 c 2,25,-1
 137 228 l 2,26,27
 137 62 137 62 313 62 c 2,28,-1
 342 62 l 2,29,30
 446 62 446 62 481.5 82 c 128,-1,31
 517 102 517 102 517 179 c 2,32,-1
 517 282 l 2,33,34
 517 359 517 359 481.5 379 c 128,-1,35
 446 399 446 399 342 399 c 2,36,-1
 313 399 l 2,23,24
EndSplineSet
Validated: 1
EndChar

StartChar: c
Encoding: 99 99 68
Width: 604
Flags: HW
HStem: 0 62<158.084 473.167> 399 62<158.084 473.167>
VStem: 62 62<93.7236 367.276> 484 62<74.8961 155.865 305.074 386.619>
AnchorPoint: "bottom" 324 0 basechar 0
AnchorPoint: "top" 324 510 basechar 0
LayerCount: 2
Fore
SplineSet
441 0 m 2,0,-1
 300 0 l 2,1,2
 175 0 175 0 118.5 36 c 128,-1,3
 62 72 62 72 62 177 c 2,4,-1
 62 284 l 2,5,6
 62 389 62 389 118.5 425 c 128,-1,7
 175 461 175 461 300 461 c 2,8,-1
 441 461 l 2,9,10
 508 461 508 461 529 423 c 0,11,12
 546 392 546 392 546 348 c 128,-1,13
 546 304 546 304 515 304 c 128,-1,14
 484 304 484 304 484 339.5 c 128,-1,15
 484 375 484 375 473.5 387 c 128,-1,16
 463 399 463 399 434 399 c 2,17,-1
 300 399 l 2,18,19
 194 399 194 399 159 378.5 c 128,-1,20
 124 358 124 358 124 282 c 2,21,-1
 124 179 l 2,22,23
 124 103 124 103 159 82.5 c 128,-1,24
 194 62 194 62 300 62 c 2,25,-1
 434 62 l 2,26,27
 463 62 463 62 473.5 74.5 c 128,-1,28
 484 87 484 87 484 122 c 128,-1,29
 484 157 484 157 515 157 c 128,-1,30
 546 157 546 157 546 110.5 c 128,-1,31
 546 64 546 64 525 32 c 128,-1,32
 504 0 504 0 441 0 c 2,0,-1
EndSplineSet
Validated: 1
EndChar

StartChar: d
Encoding: 100 100 69
Width: 641
Flags: HW
HStem: 0 62<156.25 431.77> 399 62<157.155 504> 623 20G<520.5 551.5>
VStem: 62 62<93.7236 367.276> 504 62<-6.02344 56 133.921 399 461 641.594>
AnchorPoint: "bottom" 304 0 basechar 0
AnchorPoint: "top" 294 510 basechar 0
LayerCount: 2
Fore
SplineSet
124 179 m 2,0,1
 124 102 124 102 159.5 82 c 128,-1,2
 195 62 195 62 299 62 c 2,3,-1
 328 62 l 2,4,5
 504 62 504 62 504 229 c 2,6,-1
 504 399 l 1,7,-1
 297 399 l 2,8,9
 194 399 194 399 159 379 c 128,-1,10
 124 359 124 359 124 282 c 2,11,-1
 124 179 l 2,0,1
62 284 m 2,12,13
 62 389 62 389 118 425 c 128,-1,14
 174 461 174 461 297 461 c 2,15,-1
 504 461 l 1,16,-1
 504 603 l 2,17,18
 504 643 504 643 537 643 c 0,19,20
 566 643 566 643 566 603 c 2,21,-1
 566 31 l 2,22,23
 566 -7 566 -7 535 -7 c 128,-1,24
 504 -7 504 -7 504 33 c 2,25,-1
 504 56 l 1,26,27
 444 0 444 0 328 0 c 2,28,-1
 299 0 l 2,29,30
 175 0 175 0 118.5 36 c 128,-1,31
 62 72 62 72 62 177 c 2,32,-1
 62 284 l 2,12,13
EndSplineSet
Validated: 1
EndChar

StartChar: e
Encoding: 101 101 70
Width: 626
Flags: HW
HStem: 0 62<158.084 493.167> 240 62<124 504> 399 62<155.7 472.379>
VStem: 62 62<93.7236 240 302 369.53> 504 62<74.8961 155.556 302 369.53>
AnchorPoint: "bottom" 324 0 basechar 0
AnchorPoint: "top" 324 510 basechar 0
LayerCount: 2
Fore
SplineSet
566 284 m 2,0,-1
 566 240 l 1,1,-1
 124 240 l 1,2,-1
 124 179 l 2,3,4
 124 103 124 103 159 82.5 c 128,-1,5
 194 62 194 62 300 62 c 2,6,-1
 454 62 l 2,7,8
 483 62 483 62 493.5 74.5 c 128,-1,9
 504 87 504 87 504 122 c 128,-1,10
 504 157 504 157 535 157 c 0,11,12
 566 156 566 156 566 110 c 128,-1,13
 566 64 566 64 545 32 c 128,-1,14
 524 0 524 0 461 0 c 2,15,-1
 300 0 l 2,16,17
 175 0 175 0 118.5 36 c 128,-1,18
 62 72 62 72 62 177 c 2,19,-1
 62 284 l 2,20,21
 62 389 62 389 118.5 425 c 128,-1,22
 175 461 175 461 300 461 c 2,23,-1
 329 461 l 2,24,25
 453 461 453 461 509.5 425 c 128,-1,26
 566 389 566 389 566 284 c 2,0,-1
329 399 m 2,27,-1
 300 399 l 2,28,29
 198 399 198 399 162 381.5 c 128,-1,30
 126 364 126 364 124 302 c 1,31,-1
 504 302 l 1,32,33
 502 364 502 364 466 381.5 c 128,-1,34
 430 399 430 399 329 399 c 2,27,-1
EndSplineSet
Validated: 1
EndChar

StartChar: f
Encoding: 102 102 71
Width: 334
Flags: HW
HStem: -7 21G<94.5 125.5> 399 62<142 314.559> 574 62<173.051 337.559>
VStem: 80 62<-5.62891 399 461 542.211>
AnchorPoint: "bottom" 110 0 basechar 0
AnchorPoint: "top" 281 678 basechar 0
LayerCount: 2
Fore
SplineSet
298 574 m 0,0,1
 209 574 209 574 176 554 c 128,-1,2
 143 534 143 534 142 461 c 1,3,-1
 275 461 l 2,4,5
 316 461 316 461 316 428 c 0,6,7
 316 399 316 399 275 399 c 2,8,-1
 142 399 l 1,9,-1
 142 32 l 2,10,11
 142 -7 142 -7 109 -7 c 0,12,13
 80 -7 80 -7 80 32 c 2,14,-1
 80 402 l 1,15,16
 49 406 49 406 49 433 c 0,17,18
 49 457 49 457 80 461 c 1,19,20
 82 570 82 570 143 605 c 0,21,22
 174 623 174 623 209.5 629.5 c 128,-1,23
 245 636 245 636 298 636 c 0,24,25
 339 636 339 636 339 603 c 0,26,27
 339 574 339 574 298 574 c 0,0,1
EndSplineSet
Validated: 1
EndChar

StartChar: g
Encoding: 103 103 72
Width: 641
Flags: HW
HStem: -205 62<134.833 496.261> 0 62<157.243 504> 399 62<156.25 431.77>
VStem: 62 62<-130.619 -49.0742 93.7236 367.276> 504 62<-134.23 0 62 327.51 405 467.023>
AnchorPoint: "top" 304 510 basechar 0
AnchorPoint: "bottom" 304 0 basechar 0
LayerCount: 2
Fore
SplineSet
566 -82 m 2,0,1
 566 -149 566 -149 546 -177 c 128,-1,2
 526 -205 526 -205 470 -205 c 2,3,-1
 167 -205 l 2,4,5
 100 -205 100 -205 79 -167 c 0,6,7
 62 -136 62 -136 62 -92 c 128,-1,8
 62 -48 62 -48 93 -48 c 128,-1,9
 124 -48 124 -48 124 -83.5 c 128,-1,10
 124 -119 124 -119 134.5 -131 c 128,-1,11
 145 -143 145 -143 174 -143 c 2,12,-1
 463 -143 l 2,13,14
 489 -143 489 -143 496.5 -134.5 c 128,-1,15
 504 -126 504 -126 504 -98 c 2,16,-1
 504 0 l 1,17,-1
 298 0 l 2,18,19
 174 0 174 0 118 36 c 128,-1,20
 62 72 62 72 62 177 c 2,21,-1
 62 284 l 2,22,23
 62 389 62 389 118.5 425 c 128,-1,24
 175 461 175 461 299 461 c 2,25,-1
 328 461 l 2,26,27
 444 461 444 461 504 405 c 1,28,-1
 504 428 l 2,29,30
 504 468 504 468 535 468 c 128,-1,31
 566 468 566 468 566 430 c 2,32,-1
 566 -82 l 2,0,1
298 62 m 2,33,-1
 504 62 l 1,34,-1
 504 233 l 2,35,36
 504 399 504 399 328 399 c 2,37,-1
 299 399 l 2,38,39
 195 399 195 399 159.5 379 c 128,-1,40
 124 359 124 359 124 282 c 2,41,-1
 124 179 l 2,42,43
 124 102 124 102 159 82 c 128,-1,44
 194 62 194 62 298 62 c 2,33,-1
EndSplineSet
Validated: 1
EndChar

StartChar: h
Encoding: 104 104 73
Width: 648
Flags: HW
HStem: -7 21G<90.5 121.5 532.5 563.5> 399 62<209.23 484.75> 623 20G<89.5 120.5>
VStem: 75 62<-6.07227 326.218 405 641.559> 517 62<-6.07227 367.276>
AnchorPoint: "top" 337 510 basechar 0
AnchorPoint: "bottom" 322 0 basechar 0
LayerCount: 2
Fore
SplineSet
313 399 m 2,0,1
 137 399 137 399 137 230 c 2,2,-1
 137 31 l 2,3,4
 137 -7 137 -7 106 -7 c 128,-1,5
 75 -7 75 -7 75 31 c 2,6,-1
 75 602 l 2,7,8
 75 643 75 643 104 643 c 0,9,10
 137 643 137 643 137 602 c 2,11,-1
 137 405 l 1,12,13
 197 461 197 461 313 461 c 2,14,-1
 342 461 l 2,15,16
 466 461 466 461 522.5 425 c 128,-1,17
 579 389 579 389 579 284 c 2,18,-1
 579 31 l 2,19,20
 579 -7 579 -7 548 -7 c 128,-1,21
 517 -7 517 -7 517 31 c 2,22,-1
 517 282 l 2,23,24
 517 359 517 359 481.5 379 c 128,-1,25
 446 399 446 399 342 399 c 2,26,-1
 313 399 l 2,0,1
EndSplineSet
Validated: 1
EndChar

StartChar: i
Encoding: 105 105 74
Width: 208
Flags: HW
HStem: 555 92<57.3933 150.701>
VStem: 48 112<566.473 636.292> 73 62<-16.0967 477.072>
AnchorPoint: "top" 104 678 basechar 0
AnchorPoint: "bottom" 104 0 basechar 0
LayerCount: 2
Fore
SplineSet
73 20 m 2,0,-1
 73 440 l 2,1,2
 73 478 73 478 104 478 c 128,-1,3
 135 478 135 478 135 440 c 2,4,-1
 135 20 l 2,5,6
 135 -17 135 -17 104 -17 c 128,-1,7
 73 -17 73 -17 73 20 c 2,0,-1
160 601 m 128,-1,9
 160 582 160 582 141 568.5 c 128,-1,10
 122 555 122 555 104 555 c 128,-1,11
 86 555 86 555 67 568.5 c 128,-1,12
 48 582 48 582 48 602 c 128,-1,13
 48 622 48 622 66 634.5 c 128,-1,14
 84 647 84 647 104 647 c 128,-1,15
 124 647 124 647 142 633.5 c 128,-1,8
 160 620 160 620 160 601 c 128,-1,9
EndSplineSet
Validated: 8388609
EndChar

StartChar: j
Encoding: 106 106 75
Width: 212
Flags: HW
HStem: -175 62<-120.999 45.4755> 448 20G<90.5 121.5> 555 92<58.8989 152.854>
VStem: 50 112<566.473 635.913> 75 62<-84.2883 466.999>
AnchorPoint: "top" 106 678 basechar 0
AnchorPoint: "bottom" 105 -175 basechar 0
LayerCount: 2
Fore
SplineSet
162 601 m 128,-1,1
 162 582 162 582 143 568.5 c 128,-1,2
 124 555 124 555 105.5 555 c 128,-1,3
 87 555 87 555 68.5 568.5 c 128,-1,4
 50 582 50 582 50 601.5 c 128,-1,5
 50 621 50 621 68 634 c 128,-1,6
 86 647 86 647 105.5 647 c 128,-1,7
 125 647 125 647 143.5 633.5 c 128,-1,0
 162 620 162 620 162 601 c 128,-1,1
137 0 m 2,8,9
 137 -110 137 -110 76 -145 c 0,10,11
 45 -163 45 -163 9 -169 c 128,-1,12
 -27 -175 -27 -175 -81 -175 c 0,13,14
 -122 -175 -122 -175 -122 -144 c 128,-1,15
 -122 -113 -122 -113 -81 -113 c 0,16,17
 10 -113 10 -113 42.5 -93 c 128,-1,18
 75 -73 75 -73 75 0 c 2,19,-1
 75 427 l 2,20,21
 75 468 75 468 106 468 c 128,-1,22
 137 468 137 468 137 427 c 2,23,-1
 137 0 l 2,8,9
EndSplineSet
Validated: 8388609
EndChar

StartChar: k
Encoding: 107 107 76
Width: 476
Flags: HW
HStem: -7 22G<90.5 121.5 426.25 438.75> 446 20G<351.5 364.5> 623 20G<90.5 121.5>
VStem: 75 62<-6.09668 209 276 642.072>
AnchorPoint: "bottom" 272 0 basechar 0
AnchorPoint: "top" 272 510 basechar 0
LayerCount: 2
Fore
SplineSet
450 50 m 2,0,1
 462 40 462 40 462 26.5 c 128,-1,2
 462 13 462 13 453.5 3.5 c 128,-1,3
 445 -6 445 -6 432.5 -6 c 128,-1,4
 420 -6 420 -6 405 7 c 2,5,-1
 161 233 l 1,6,-1
 137 209 l 1,7,-1
 137 30 l 2,8,9
 137 -7 137 -7 106 -7 c 128,-1,10
 75 -7 75 -7 75 28 c 2,11,-1
 75 605 l 2,12,13
 75 643 75 643 106 643 c 128,-1,14
 137 643 137 643 137 605 c 2,15,-1
 137 276 l 1,16,-1
 332 453 l 2,17,18
 345 466 345 466 358 466 c 128,-1,19
 371 466 371 466 380.5 457.5 c 128,-1,20
 390 449 390 449 390 435.5 c 128,-1,21
 390 422 390 422 376 410 c 2,22,-1
 205 264 l 1,23,-1
 450 50 l 2,0,1
EndSplineSet
Validated: 1
EndChar

StartChar: l
Encoding: 108 108 77
Width: 283
Flags: HW
HStem: 0 62<163.833 242.023> 623 20G<106.5 137.5>
VStem: 91 62<73.3484 642.023>
AnchorPoint: "bottom" 183 0 basechar 0
AnchorPoint: "top" 123 678 basechar 0
LayerCount: 2
Fore
SplineSet
203 0 m 2,0,-1
 196 0 l 2,1,2
 135 0 135 0 113 30 c 128,-1,3
 91 60 91 60 91 130 c 2,4,-1
 91 603 l 2,5,6
 91 643 91 643 122 643 c 128,-1,7
 153 643 153 643 153 603 c 2,8,-1
 153 114 l 2,9,10
 153 84 153 84 163.5 73 c 128,-1,11
 174 62 174 62 203 62 c 0,12,13
 243 62 243 62 243 31 c 128,-1,14
 243 0 243 0 203 0 c 2,0,-1
EndSplineSet
Validated: 1
EndChar

StartChar: m
Encoding: 109 109 78
Width: 850
Flags: HW
HStem: -7 21G<89.5 120.5 410.5 441.5 732.5 763.5> 399 62<191.606 369.755 514.862 693.503>
VStem: 74 62<-6.07227 339.421 406 466.559> 395 62<-6.07227 336.158> 717 62<-6.07227 375.45>
AnchorPoint: "bottom" 427 0 basechar 0
AnchorPoint: "top" 427 510 basechar 0
LayerCount: 2
Fore
SplineSet
368 378 m 0,0,1
 342 398 342 398 272 399 c 0,2,3
 136 399 136 399 136 230 c 2,4,-1
 136 31 l 2,5,6
 136 -7 136 -7 105 -7 c 128,-1,7
 74 -7 74 -7 74 31 c 2,8,-1
 74 429 l 2,9,10
 74 468 74 468 103 468 c 0,11,12
 136 468 136 468 136 427 c 2,13,-1
 136 406 l 1,14,15
 162 435 162 435 190.5 448 c 128,-1,16
 219 461 219 461 274.5 461 c 128,-1,17
 330 461 330 461 374 445.5 c 128,-1,18
 418 430 418 430 439 386 c 1,19,20
 493 461 493 461 588.5 461 c 128,-1,21
 684 461 684 461 731.5 424.5 c 128,-1,22
 779 388 779 388 779 284 c 2,23,-1
 779 31 l 2,24,25
 779 -7 779 -7 748 -7 c 128,-1,26
 717 -7 717 -7 717 31 c 2,27,-1
 717 282 l 2,28,29
 717 359 717 359 691.5 379 c 128,-1,30
 666 399 666 399 596.5 399 c 128,-1,31
 527 399 527 399 492 355.5 c 128,-1,32
 457 312 457 312 457 230 c 2,33,-1
 457 31 l 2,34,35
 457 -7 457 -7 426 -7 c 128,-1,36
 395 -7 395 -7 395 31 c 2,37,-1
 395 282 l 2,38,39
 395 358 395 358 368 378 c 0,0,1
EndSplineSet
Validated: 1
EndChar

StartChar: n
Encoding: 110 110 79
Width: 647
Flags: HW
HStem: -7 21G<89.5 120.5 531.5 562.5> 399 62<208.23 483.75>
VStem: 74 62<-6.07227 326.218 405 466.559> 516 62<-6.07227 367.276>
AnchorPoint: "top" 326 510 basechar 0
AnchorPoint: "bottom" 321 0 basechar 0
LayerCount: 2
Fore
SplineSet
312 399 m 2,0,1
 136 399 136 399 136 230 c 2,2,-1
 136 31 l 2,3,4
 136 -7 136 -7 105 -7 c 128,-1,5
 74 -7 74 -7 74 31 c 2,6,-1
 74 429 l 2,7,8
 74 468 74 468 103 468 c 0,9,10
 136 468 136 468 136 427 c 2,11,-1
 136 405 l 1,12,13
 196 461 196 461 312 461 c 2,14,-1
 341 461 l 2,15,16
 465 461 465 461 521.5 425 c 128,-1,17
 578 389 578 389 578 284 c 2,18,-1
 578 31 l 2,19,20
 578 -7 578 -7 547 -7 c 128,-1,21
 516 -7 516 -7 516 31 c 2,22,-1
 516 282 l 2,23,24
 516 359 516 359 480.5 379 c 128,-1,25
 445 399 445 399 341 399 c 2,26,-1
 312 399 l 2,0,1
EndSplineSet
Validated: 1
EndChar

StartChar: o
Encoding: 111 111 80
Width: 628
Flags: HW
HStem: 0 62<158.084 471.75> 399 62<158.084 471.75>
VStem: 62 62<93.7236 367.276> 504 62<93.7236 367.276>
AnchorPoint: "top" 314 510 basechar 0
AnchorPoint: "bottom" 314 0 basechar 0
LayerCount: 2
Fore
SplineSet
329 0 m 2,0,-1
 300 0 l 2,1,2
 175 0 175 0 118.5 36 c 128,-1,3
 62 72 62 72 62 177 c 2,4,-1
 62 284 l 2,5,6
 62 389 62 389 118.5 425 c 128,-1,7
 175 461 175 461 300 461 c 2,8,-1
 329 461 l 2,9,10
 453 461 453 461 509.5 425 c 128,-1,11
 566 389 566 389 566 284 c 2,12,-1
 566 177 l 2,13,14
 566 72 566 72 509.5 36 c 128,-1,15
 453 0 453 0 329 0 c 2,0,-1
300 62 m 2,16,-1
 329 62 l 2,17,18
 433 62 433 62 468.5 82 c 128,-1,19
 504 102 504 102 504 179 c 2,20,-1
 504 282 l 2,21,22
 504 359 504 359 468.5 379 c 128,-1,23
 433 399 433 399 329 399 c 2,24,-1
 300 399 l 2,25,26
 194 399 194 399 159 378.5 c 128,-1,27
 124 358 124 358 124 282 c 2,28,-1
 124 179 l 2,29,30
 124 103 124 103 159 82.5 c 128,-1,31
 194 62 194 62 300 62 c 2,16,-1
EndSplineSet
Validated: 1
EndChar

StartChar: p
Encoding: 112 112 81
Width: 641
Flags: HW
HStem: -182 21G<89.5 120.5> 0 62<137 483.845> 399 62<209.23 484.75>
VStem: 75 62<-180.594 0 62 327.079 405 467.023> 517 62<93.7236 367.276>
AnchorPoint: "bottom" 327 0 basechar 0
AnchorPoint: "top" 327 510 basechar 0
LayerCount: 2
Fore
SplineSet
517 282 m 2,0,1
 517 359 517 359 481.5 379 c 128,-1,2
 446 399 446 399 342 399 c 2,3,-1
 313 399 l 2,4,5
 137 399 137 399 137 232 c 2,6,-1
 137 62 l 1,7,-1
 344 62 l 2,8,9
 447 62 447 62 482 82 c 128,-1,10
 517 102 517 102 517 179 c 2,11,-1
 517 282 l 2,0,1
579 177 m 2,12,13
 579 72 579 72 523 36 c 128,-1,14
 467 0 467 0 344 0 c 2,15,-1
 137 0 l 1,16,-1
 137 -142 l 2,17,18
 137 -182 137 -182 104 -182 c 0,19,20
 75 -182 75 -182 75 -142 c 2,21,-1
 75 430 l 2,22,23
 75 468 75 468 106 468 c 128,-1,24
 137 468 137 468 137 428 c 2,25,-1
 137 405 l 1,26,27
 197 461 197 461 313 461 c 2,28,-1
 342 461 l 2,29,30
 466 461 466 461 522.5 425 c 128,-1,31
 579 389 579 389 579 284 c 2,32,-1
 579 177 l 2,12,13
EndSplineSet
Validated: 1
EndChar

StartChar: q
Encoding: 113 113 82
Width: 641
Flags: HW
HStem: -182 21G<520.5 551.5> 0 62<157.243 504> 399 62<158.084 432.18>
VStem: 62 62<93.7236 367.276> 504 62<-180.594 0 62 327.079 405 467.023>
AnchorPoint: "bottom" 296 0 basechar 0
AnchorPoint: "top" 296 510 basechar 0
LayerCount: 2
Fore
SplineSet
124 282 m 2,0,-1
 124 179 l 2,1,2
 124 102 124 102 159 82 c 128,-1,3
 194 62 194 62 298 62 c 2,4,-1
 504 62 l 1,5,-1
 504 232 l 2,6,7
 504 399 504 399 329 399 c 2,8,-1
 300 399 l 2,9,10
 194 399 194 399 159 378.5 c 128,-1,11
 124 358 124 358 124 282 c 2,0,-1
62 177 m 2,12,-1
 62 284 l 2,13,14
 62 389 62 389 118.5 425 c 128,-1,15
 175 461 175 461 300 461 c 2,16,-1
 329 461 l 2,17,18
 445 461 445 461 504 405 c 1,19,-1
 504 428 l 2,20,21
 504 468 504 468 535 468 c 128,-1,22
 566 468 566 468 566 430 c 2,23,-1
 566 -142 l 2,24,25
 566 -182 566 -182 537 -182 c 0,26,27
 504 -182 504 -182 504 -142 c 2,28,-1
 504 0 l 1,29,-1
 298 0 l 2,30,31
 174 0 174 0 118 36 c 128,-1,32
 62 72 62 72 62 177 c 2,12,-1
EndSplineSet
Validated: 1
EndChar

StartChar: r
Encoding: 114 114 83
Width: 395
Flags: HW
HStem: -7 21G<89.5 120.5> 399 62<202.571 377.023>
VStem: 74 62<-6.07227 331.344 405 466.559>
AnchorPoint: "bottom" 208 0 basechar 0
AnchorPoint: "top" 258 510 basechar 0
LayerCount: 2
Fore
SplineSet
292 399 m 2,0,1
 216 399 216 399 176 355.5 c 128,-1,2
 136 312 136 312 136 230 c 2,3,-1
 136 31 l 2,4,5
 136 -7 136 -7 105 -7 c 128,-1,6
 74 -7 74 -7 74 31 c 2,7,-1
 74 429 l 2,8,9
 74 468 74 468 103 468 c 0,10,11
 136 468 136 468 136 427 c 2,12,-1
 136 405 l 1,13,14
 196 461 196 461 292 461 c 2,15,-1
 338 461 l 2,16,17
 378 461 378 461 378 430 c 128,-1,18
 378 399 378 399 338 399 c 2,19,-1
 292 399 l 2,0,1
EndSplineSet
Validated: 1
EndChar

StartChar: s
Encoding: 115 115 84
Width: 606
Flags: HW
HStem: 0 62<132.833 474.236> 205 62<137.471 468.529> 399 62<131.942 471.167>
VStem: 60 62<74.8961 155.865 282.111 390.871> 484 62<71.0956 187.599 305.699 386.619>
AnchorPoint: "bottom" 299 0 basechar 0
AnchorPoint: "top" 309 510 basechar 0
LayerCount: 2
Fore
SplineSet
165 0 m 2,0,1
 102 0 102 0 81 32 c 128,-1,2
 60 64 60 64 60 110.5 c 128,-1,3
 60 157 60 157 91 157 c 128,-1,4
 122 157 122 157 122 122 c 128,-1,5
 122 87 122 87 132.5 74.5 c 128,-1,6
 143 62 143 62 172 62 c 2,7,-1
 430 62 l 2,8,9
 484 62 484 62 484 129 c 0,10,11
 484 163 484 163 469 184 c 128,-1,12
 454 205 454 205 430 205 c 2,13,-1
 194 205 l 2,14,15
 124 205 124 205 92 241 c 128,-1,16
 60 277 60 277 60 337.5 c 128,-1,17
 60 398 60 398 94 429.5 c 128,-1,18
 128 461 128 461 214 461 c 2,19,-1
 439 461 l 2,20,21
 506 461 506 461 527 423 c 0,22,23
 544 392 544 392 544 348 c 128,-1,24
 544 304 544 304 513 304 c 128,-1,25
 482 304 482 304 482 339.5 c 128,-1,26
 482 375 482 375 471.5 387 c 128,-1,27
 461 399 461 399 432 399 c 2,28,-1
 176 399 l 2,29,30
 122 399 122 399 122 337 c 0,31,32
 122 303 122 303 137 285 c 128,-1,33
 152 267 152 267 176 267 c 2,34,-1
 413 267 l 2,35,36
 485 267 485 267 515.5 227.5 c 128,-1,37
 546 188 546 188 546 127 c 128,-1,38
 546 66 546 66 512 33 c 128,-1,39
 478 0 478 0 393 0 c 2,40,-1
 165 0 l 2,0,1
EndSplineSet
Validated: 1
EndChar

StartChar: t
Encoding: 116 116 85
Width: 358
Flags: HW
HStem: 0 62<171.219 334.594> 399 62<140 312.559>
VStem: 78 62<92.1387 399 461 599.559>
AnchorPoint: "top" 225 510 basechar 0
AnchorPoint: "bottom" 262 0 basechar 0
LayerCount: 2
Fore
SplineSet
140 179 m 2,0,1
 140 103 140 103 173 82.5 c 128,-1,2
 206 62 206 62 296 62 c 0,3,4
 336 62 336 62 336 33 c 0,5,6
 336 0 336 0 296 0 c 0,7,8
 186 0 186 0 132 36.5 c 128,-1,9
 78 73 78 73 78 177 c 2,10,-1
 78 402 l 1,11,12
 47 404 47 404 47 433 c 0,13,14
 47 457 47 457 78 461 c 1,15,-1
 78 560 l 2,16,17
 78 601 78 601 107 601 c 0,18,19
 140 601 140 601 140 560 c 2,20,-1
 140 461 l 1,21,-1
 273 461 l 2,22,23
 314 461 314 461 314 428 c 0,24,25
 314 399 314 399 273 399 c 2,26,-1
 140 399 l 1,27,-1
 140 179 l 2,0,1
EndSplineSet
Validated: 1
EndChar

StartChar: u
Encoding: 117 117 86
Width: 647
Flags: HW
HStem: 0 62<163.25 438.77> 448 20G<84.5 115.5 526.5 557.5>
VStem: 69 62<93.7236 467.072> 511 62<-5.55859 56 134.782 467.072>
AnchorPoint: "bottom" 321 0 basechar 0
AnchorPoint: "top" 321 510 basechar 0
LayerCount: 2
Fore
SplineSet
335 62 m 2,0,1
 511 62 511 62 511 231 c 2,2,-1
 511 430 l 2,3,4
 511 468 511 468 542 468 c 128,-1,5
 573 468 573 468 573 430 c 2,6,-1
 573 32 l 2,7,8
 573 -7 573 -7 544 -7 c 0,9,10
 511 -7 511 -7 511 34 c 2,11,-1
 511 56 l 1,12,13
 451 0 451 0 335 0 c 2,14,-1
 306 0 l 2,15,16
 182 0 182 0 125.5 36 c 128,-1,17
 69 72 69 72 69 177 c 2,18,-1
 69 430 l 2,19,20
 69 468 69 468 100 468 c 128,-1,21
 131 468 131 468 131 430 c 2,22,-1
 131 179 l 2,23,24
 131 102 131 102 166.5 82 c 128,-1,25
 202 62 202 62 306 62 c 2,26,-1
 335 62 l 2,0,1
EndSplineSet
Validated: 1
EndChar

StartChar: v
Encoding: 118 118 87
Width: 521
Flags: HW
HStem: 0 21G<204.705 305.848>
VStem: 29 62<453 476.022> 431 62<454 476.307>
AnchorPoint: "bottom" 258 0 basechar 0
AnchorPoint: "top" 258 510 basechar 0
LayerCount: 2
Fore
SplineSet
213 0 m 1,0,-1
 33 434 l 2,1,2
 29 444 29 444 29 450 c 0,3,4
 29 478 29 478 58 478 c 0,5,6
 78 478 78 478 91 453 c 1,7,-1
 258 63 l 1,8,-1
 431 454 l 2,9,10
 442 478 442 478 464 478 c 0,11,12
 493 478 493 478 493 451 c 0,13,14
 493 443 493 443 489 434 c 2,15,-1
 297 0 l 1,16,-1
 213 0 l 1,0,-1
EndSplineSet
Validated: 1
EndChar

StartChar: w
Encoding: 119 119 88
Width: 814
Flags: HW
HStem: 0 21G<176.163 276.637 528.967 630.256> 453 20G<45 71 396.5 421.5 743 769>
VStem: 721 62<448 471.236>
AnchorPoint: "bottom" 408 0 basechar 0
AnchorPoint: "top" 408 510 basechar 0
LayerCount: 2
Fore
SplineSet
779 430 m 2,0,-1
 623 0 l 1,1,-1
 536 0 l 1,2,-1
 408 364 l 1,3,-1
 269 0 l 1,4,-1
 183 0 l 1,5,-1
 36 430 l 2,6,7
 32 442 32 442 32 448 c 0,8,9
 32 473 32 473 58 473 c 128,-1,10
 84 473 84 473 94 448 c 1,11,-1
 229 58 l 1,12,-1
 374 443 l 2,13,14
 384 467 384 467 409 467 c 128,-1,15
 434 467 434 467 442 443 c 2,16,-1
 581 58 l 1,17,-1
 721 448 l 2,18,19
 730 473 730 473 756 473 c 128,-1,20
 782 473 782 473 783 448 c 0,21,22
 783 442 783 442 779 430 c 2,0,-1
EndSplineSet
Validated: 1
EndChar

StartChar: x
Encoding: 120 120 89
Width: 536
Flags: HW
HStem: 452 20G<68 82 454.75 468.25>
AnchorPoint: "bottom" 269 0 basechar 0
AnchorPoint: "top" 269 510 basechar 0
LayerCount: 2
Fore
SplineSet
483 43 m 2,0,1
 494 32 494 32 494 18.5 c 128,-1,2
 494 5 494 5 484.5 -3 c 128,-1,3
 475 -11 475 -11 461.5 -11 c 128,-1,4
 448 -11 448 -11 436 1 c 1,5,-1
 269 190 l 1,6,-1
 101 1 l 2,7,8
 89 -11 89 -11 75 -11 c 128,-1,9
 61 -11 61 -11 51.5 -3 c 128,-1,10
 42 5 42 5 42 18.5 c 128,-1,11
 42 32 42 32 53 43 c 2,12,-1
 224 230 l 1,13,-1
 53 418 l 2,14,15
 42 431 42 431 42 443.5 c 128,-1,16
 42 456 42 456 51.5 464 c 128,-1,17
 61 472 61 472 75 472 c 128,-1,18
 89 472 89 472 101 460 c 2,19,-1
 269 271 l 1,20,-1
 436 460 l 1,21,22
 448 472 448 472 461.5 472 c 128,-1,23
 475 472 475 472 484.5 464 c 128,-1,24
 494 456 494 456 494 443.5 c 128,-1,25
 494 431 494 431 483 418 c 2,26,-1
 312 230 l 1,27,-1
 483 43 l 2,0,1
EndSplineSet
Validated: 1
EndChar

StartChar: y
Encoding: 121 121 90
Width: 648
Flags: HW
HStem: -205 62<141.833 503.261> 0 62<163.25 438.77> 448 20G<84.5 115.5 526.5 557.5>
VStem: 69 62<-130.619 -49.0742 93.7236 467.072> 511 62<-134.23 56 134.782 467.072>
AnchorPoint: "top" 321 510 basechar 0
AnchorPoint: "bottom" 321 0 basechar 0
LayerCount: 2
Fore
SplineSet
573 -82 m 2,0,1
 573 -149 573 -149 553 -177 c 128,-1,2
 533 -205 533 -205 477 -205 c 2,3,-1
 174 -205 l 2,4,5
 107 -205 107 -205 86 -167 c 0,6,7
 69 -136 69 -136 69 -92 c 128,-1,8
 69 -48 69 -48 100 -48 c 128,-1,9
 131 -48 131 -48 131 -83.5 c 128,-1,10
 131 -119 131 -119 141.5 -131 c 128,-1,11
 152 -143 152 -143 181 -143 c 2,12,-1
 470 -143 l 2,13,14
 496 -143 496 -143 503.5 -134.5 c 128,-1,15
 511 -126 511 -126 511 -98 c 2,16,-1
 511 56 l 1,17,18
 451 0 451 0 335 0 c 2,19,-1
 306 0 l 2,20,21
 182 0 182 0 125.5 36 c 128,-1,22
 69 72 69 72 69 177 c 2,23,-1
 69 430 l 2,24,25
 69 468 69 468 100 468 c 128,-1,26
 131 468 131 468 131 430 c 2,27,-1
 131 179 l 2,28,29
 131 102 131 102 166.5 82 c 128,-1,30
 202 62 202 62 306 62 c 2,31,-1
 335 62 l 2,32,33
 511 62 511 62 511 231 c 2,34,-1
 511 430 l 2,35,36
 511 468 511 468 542 468 c 128,-1,37
 573 468 573 468 573 430 c 2,38,-1
 573 -82 l 2,0,1
EndSplineSet
Validated: 1
EndChar

StartChar: z
Encoding: 122 122 91
Width: 573
Flags: HW
HStem: 0 62<143 449.713> 399 62<130.287 419>
VStem: 59 62<287.001 382.463> 459 62<79.0214 173.999>
AnchorPoint: "bottom" 293 0 basechar 0
AnchorPoint: "top" 293 510 basechar 0
LayerCount: 2
Fore
SplineSet
143 62 m 1,0,-1
 408 62 l 2,1,2
 441 62 441 62 450 78.5 c 128,-1,3
 459 95 459 95 459 135 c 128,-1,4
 459 175 459 175 490 175 c 128,-1,5
 521 175 521 175 521 134 c 0,6,7
 521 62 521 62 499 31 c 128,-1,8
 477 0 477 0 416 0 c 2,9,-1
 59 0 l 1,10,-1
 59 69 l 1,11,-1
 419 399 l 1,12,-1
 171 399 l 2,13,14
 139 399 139 399 130 383 c 0,15,16
 121 366 121 366 121 326 c 128,-1,17
 121 286 121 286 90 286 c 128,-1,18
 59 286 59 286 59 327 c 0,19,20
 59 400 59 400 81 430.5 c 128,-1,21
 103 461 103 461 164 461 c 2,22,-1
 500 461 l 1,23,-1
 500 389 l 1,24,-1
 143 62 l 1,0,-1
EndSplineSet
Validated: 1
EndChar

StartChar: braceleft
Encoding: 123 123 92
Width: 275
Flags: HW
HStem: -52 62<158.385 224> 626 62<158.385 224>
VStem: 84 62<21.4226 194.391 441.481 614.32> 112 62<143.299 274.65 361.414 492.63>
LayerCount: 2
Fore
SplineSet
39 324 m 1,0,1
 60 335 60 335 86 357.5 c 128,-1,2
 112 380 112 380 112 398 c 128,-1,3
 112 416 112 416 98 462.5 c 128,-1,4
 84 509 84 509 84 528 c 0,5,6
 84 635 84 635 124 664 c 0,7,8
 145 679 145 679 166.5 683.5 c 128,-1,9
 188 688 188 688 224 688 c 1,10,-1
 224 626 l 1,11,12
 170 626 170 626 158 611.5 c 128,-1,13
 146 597 146 597 146 528 c 0,14,15
 146 520 146 520 160 473 c 128,-1,16
 174 426 174 426 174 400 c 0,17,18
 174 360 174 360 108 317 c 1,19,20
 174 278 174 278 174 236 c 0,21,22
 174 209 174 209 160 163.5 c 128,-1,23
 146 118 146 118 146 108 c 0,24,25
 146 38 146 38 158 24 c 128,-1,26
 170 10 170 10 224 10 c 1,27,-1
 224 -52 l 1,28,29
 188 -52 188 -52 166.5 -47.5 c 128,-1,30
 145 -43 145 -43 124 -28 c 0,31,32
 84 1 84 1 84 108 c 0,33,34
 84 127 84 127 98 173.5 c 128,-1,35
 112 220 112 220 112 238 c 128,-1,36
 112 256 112 256 87.5 276.5 c 128,-1,37
 63 297 63 297 39 310 c 1,38,-1
 39 324 l 1,0,1
EndSplineSet
Validated: 8388609
EndChar

StartChar: bar
Encoding: 124 124 93
Width: 224
Flags: HW
HStem: -7 21G<96.5 127.5> 623 20G<96.5 127.5>
VStem: 81 62<-6.12109 642.097>
LayerCount: 2
Fore
SplineSet
143 29 m 2,0,1
 143 -7 143 -7 112 -7 c 128,-1,2
 81 -7 81 -7 81 29 c 2,3,-1
 81 606 l 2,4,5
 81 643 81 643 112 643 c 128,-1,6
 143 643 143 643 143 606 c 2,7,-1
 143 29 l 2,0,1
EndSplineSet
Validated: 1
EndChar

StartChar: braceright
Encoding: 125 125 94
Width: 275
Flags: HW
HStem: -52 62<51 116.615> 626 62<51 116.615>
VStem: 101 62<143.299 274.65 361.414 492.63> 129 62<21.4226 194.391 441.481 614.32>
LayerCount: 2
Fore
SplineSet
236 324 m 1,0,-1
 236 310 l 1,1,2
 212 297 212 297 187.5 276.5 c 128,-1,3
 163 256 163 256 163 238 c 128,-1,4
 163 220 163 220 177 173.5 c 128,-1,5
 191 127 191 127 191 108 c 0,6,7
 191 1 191 1 151 -28 c 0,8,9
 130 -43 130 -43 108.5 -47.5 c 128,-1,10
 87 -52 87 -52 51 -52 c 1,11,-1
 51 10 l 1,12,13
 105 10 105 10 117 24 c 128,-1,14
 129 38 129 38 129 108 c 0,15,16
 129 118 129 118 115 163.5 c 128,-1,17
 101 209 101 209 101 236 c 0,18,19
 101 278 101 278 167 317 c 1,20,21
 101 360 101 360 101 400 c 0,22,23
 101 426 101 426 115 473 c 128,-1,24
 129 520 129 520 129 528 c 0,25,26
 129 597 129 597 117 611.5 c 128,-1,27
 105 626 105 626 51 626 c 1,28,-1
 51 688 l 1,29,30
 87 688 87 688 108.5 683.5 c 128,-1,31
 130 679 130 679 151 664 c 0,32,33
 191 635 191 635 191 528 c 0,34,35
 191 509 191 509 177 462.5 c 128,-1,36
 163 416 163 416 163 398 c 128,-1,37
 163 380 163 380 189 357.5 c 128,-1,38
 215 335 215 335 236 324 c 1,0,-1
EndSplineSet
Validated: 8388609
EndChar

StartChar: asciitilde
Encoding: 126 126 95
Width: 431
Flags: HW
HStem: 172 67<210.359 297.346> 212 67<133.565 220.641>
VStem: 70 291<214.656 236.344>
LayerCount: 2
Fore
SplineSet
262 241 m 2,0,1
 267 239 267 239 270 239 c 128,-1,2
 273 239 273 239 275 241 c 2,3,-1
 306 269 l 2,4,5
 316 279 316 279 329 279 c 128,-1,6
 342 279 342 279 351.5 271 c 128,-1,7
 361 263 361 263 361 248 c 128,-1,8
 361 233 361 233 345 220 c 2,9,-1
 300 182 l 1,10,11
 286 172 286 172 276 172 c 128,-1,12
 266 172 266 172 263 174 c 2,13,-1
 169 210 l 2,14,15
 164 212 164 212 161 212 c 128,-1,16
 158 212 158 212 156 210 c 2,17,-1
 125 182 l 2,18,19
 115 172 115 172 102 172 c 128,-1,20
 89 172 89 172 79.5 180 c 128,-1,21
 70 188 70 188 70 203 c 128,-1,22
 70 218 70 218 86 231 c 2,23,-1
 131 269 l 1,24,25
 144 279 144 279 154 279 c 128,-1,26
 164 279 164 279 168 277 c 2,27,-1
 262 241 l 2,0,1
EndSplineSet
Validated: 8388609
EndChar

StartChar: exclamdown
Encoding: 161 161 96
Width: 236
Flags: HW
HStem: -175 21G<102.5 133.5> 404 92<70.1461 164.854>
VStem: 61 113<415.473 484.913> 87 62<-174.097 319.072>
LayerCount: 2
Fore
SplineSet
87 -138 m 2,0,-1
 87 282 l 2,1,2
 87 320 87 320 118 320 c 128,-1,3
 149 320 149 320 149 282 c 2,4,-1
 149 -138 l 2,5,6
 149 -175 149 -175 118 -175 c 128,-1,7
 87 -175 87 -175 87 -138 c 2,0,-1
155.5 483 m 128,-1,9
 174 470 174 470 174 450.5 c 128,-1,10
 174 431 174 431 155 417.5 c 128,-1,11
 136 404 136 404 117.5 404 c 128,-1,12
 99 404 99 404 80 417.5 c 128,-1,13
 61 431 61 431 61 450 c 128,-1,14
 61 469 61 469 79.5 482.5 c 128,-1,15
 98 496 98 496 117.5 496 c 128,-1,8
 137 496 137 496 155.5 483 c 128,-1,9
EndSplineSet
Validated: 8388609
EndChar

StartChar: cent
Encoding: 162 162 97
Width: 488
Flags: HW
HStem: 113 62<143.75 218 280 358.167> 463 62<145 218 280 358.683>
VStem: 49 62<206.594 430.562> 218 62<-16.0967 113 176 462 525 652.072> 369 62<187.381 268.865 369.086 451.135>
LayerCount: 2
Fore
SplineSet
218 20 m 2,0,-1
 218 113 l 1,1,2
 133 119 133 119 91 160 c 128,-1,3
 49 201 49 201 49 298 c 2,4,-1
 49 340 l 2,5,6
 49 436 49 436 92 477 c 128,-1,7
 135 518 135 518 218 524 c 1,8,-1
 218 615 l 2,9,10
 218 653 218 653 249 653 c 128,-1,11
 280 653 280 653 280 615 c 2,12,-1
 280 525 l 1,13,-1
 327 525 l 2,14,15
 329 525 329 525 330 525 c 0,16,17
 394 525 394 525 414 488 c 0,18,19
 431 457 431 457 431 412.5 c 128,-1,20
 431 368 431 368 400 368 c 128,-1,21
 369 368 369 368 369 404 c 128,-1,22
 369 440 369 440 359 451.5 c 128,-1,23
 349 463 349 463 320 463 c 2,24,-1
 280 463 l 1,25,-1
 280 175 l 1,26,-1
 318 175 l 2,27,28
 348 175 348 175 358.5 187 c 128,-1,29
 369 199 369 199 369 234.5 c 128,-1,30
 369 270 369 270 400 270 c 128,-1,31
 431 270 431 270 431 223.5 c 128,-1,32
 431 177 431 177 409.5 145 c 128,-1,33
 388 113 388 113 325 113 c 2,34,-1
 280 113 l 1,35,-1
 280 20 l 2,36,37
 280 -17 280 -17 249 -17 c 128,-1,38
 218 -17 218 -17 218 20 c 2,0,-1
218 176 m 1,39,-1
 218 462 l 1,40,41
 160 458 160 458 135.5 433 c 128,-1,42
 111 408 111 408 111 340 c 2,43,-1
 111 298 l 2,44,45
 111 229 111 229 134.5 204.5 c 128,-1,46
 158 180 158 180 218 176 c 1,39,-1
EndSplineSet
Validated: 1
EndChar

StartChar: sterling
Encoding: 163 163 98
Width: 512
Flags: HW
HStem: -10 62<130 453.072> 312 62<158 223.097> 591 62<205.167 372.736>
VStem: 390 62<463.928 573.111>
LayerCount: 2
Fore
SplineSet
67 33 m 2,0,-1
 105 468 l 2,1,2
 115 584 115 584 172 621 c 0,3,4
 222 653 222 653 295 653 c 128,-1,5
 368 653 368 653 410 621 c 128,-1,6
 452 589 452 589 452 501 c 0,7,8
 452 463 452 463 421 463 c 128,-1,9
 390 463 390 463 390 501 c 0,10,11
 390 558 390 558 367 574.5 c 128,-1,12
 344 591 344 591 288 591 c 128,-1,13
 232 591 232 591 203 567.5 c 128,-1,14
 174 544 174 544 167 468 c 2,15,-1
 158 374 l 1,16,-1
 187 374 l 2,17,18
 224 374 224 374 224 343 c 128,-1,19
 224 312 224 312 187 312 c 2,20,-1
 154 312 l 1,21,-1
 130 52 l 1,22,-1
 416 52 l 2,23,24
 454 52 454 52 454 21 c 128,-1,25
 454 -10 454 -10 416 -10 c 2,26,-1
 93 -10 l 2,27,28
 66 -10 66 -10 66 24 c 0,29,30
 66 30 66 30 67 33 c 2,0,-1
EndSplineSet
Validated: 1
EndChar

StartChar: currency
Encoding: 164 164 99
Width: 509
Flags: HW
HStem: 77 54<192.071 317.001> 330 54<193.19 316.378>
VStem: 101 54<168.055 292.388> 354 54<168.063 292.247>
LayerCount: 2
Fore
SplineSet
155 230 m 128,-1,1
 155 189 155 189 184.5 160 c 128,-1,2
 214 131 214 131 255 131 c 128,-1,3
 296 131 296 131 325 160.5 c 128,-1,4
 354 190 354 190 354 230 c 128,-1,5
 354 270 354 270 325 300 c 128,-1,6
 296 330 296 330 255 330 c 128,-1,7
 214 330 214 330 184.5 300.5 c 128,-1,0
 155 271 155 271 155 230 c 128,-1,1
126 314 m 1,8,-1
 83 357 l 1,9,10
 70 373 70 373 70 384 c 128,-1,11
 70 395 70 395 80 404.5 c 128,-1,12
 90 414 90 414 100 414 c 128,-1,13
 110 414 110 414 127 401 c 1,14,-1
 170 358 l 1,15,16
 208 384 208 384 255 384 c 128,-1,17
 302 384 302 384 339 359 c 1,18,-1
 381 401 l 2,19,20
 394 414 394 414 406 414 c 128,-1,21
 418 414 418 414 428.5 406 c 128,-1,22
 439 398 439 398 439 384 c 128,-1,23
 439 370 439 370 423 356 c 1,24,-1
 383 315 l 1,25,26
 408 278 408 278 408 231 c 128,-1,27
 408 184 408 184 383 146 c 1,28,-1
 424 105 l 2,29,30
 439 90 439 90 439 78 c 128,-1,31
 439 66 439 66 429 56 c 128,-1,32
 419 46 419 46 407 46 c 128,-1,33
 395 46 395 46 380 62 c 2,34,-1
 339 102 l 1,35,36
 302 77 302 77 255 77 c 128,-1,37
 208 77 208 77 170 103 c 1,38,-1
 128 62 l 1,39,40
 114 46 114 46 101 46 c 128,-1,41
 88 46 88 46 79 54 c 128,-1,42
 70 62 70 62 70 76 c 128,-1,43
 70 90 70 90 83 104 c 2,44,-1
 126 147 l 1,45,46
 101 182 101 182 101 230 c 128,-1,47
 101 278 101 278 126 314 c 1,8,-1
EndSplineSet
Validated: 1
EndChar

StartChar: yen
Encoding: 165 165 100
Width: 549
Flags: HW
HStem: 131 62<113.903 245 306 432.072> 220 62<113.903 245 306 432.072>
VStem: 245 61<-16.2683 131 193 220 282 306>
LayerCount: 2
Fore
SplineSet
41 598 m 1,0,1
 32 614 32 614 32 625 c 128,-1,2
 32 636 32 636 41.5 644.5 c 128,-1,3
 51 653 51 653 63.5 653 c 128,-1,4
 76 653 76 653 91 633 c 2,5,-1
 275 372 l 1,6,-1
 458 633 l 2,7,8
 471 653 471 653 484.5 653 c 128,-1,9
 498 653 498 653 508 644.5 c 128,-1,10
 518 636 518 636 518 624 c 128,-1,11
 518 612 518 612 509 598 c 2,12,-1
 306 306 l 1,13,-1
 306 282 l 1,14,-1
 395 282 l 2,15,16
 433 282 433 282 433 251 c 128,-1,17
 433 220 433 220 395 220 c 2,18,-1
 306 220 l 1,19,-1
 306 193 l 1,20,-1
 395 193 l 2,21,22
 433 193 433 193 433 162 c 128,-1,23
 433 131 433 131 395 131 c 2,24,-1
 306 131 l 1,25,-1
 306 20 l 2,26,27
 306 -17 306 -17 275.5 -17 c 128,-1,28
 245 -17 245 -17 245 20 c 2,29,-1
 245 131 l 1,30,-1
 150 131 l 2,31,32
 113 131 113 131 113 162 c 128,-1,33
 113 193 113 193 150 193 c 2,34,-1
 245 193 l 1,35,-1
 245 220 l 1,36,-1
 150 220 l 2,37,38
 113 220 113 220 113 251 c 128,-1,39
 113 282 113 282 150 282 c 2,40,-1
 245 282 l 1,41,-1
 245 306 l 1,42,-1
 41 598 l 1,0,1
EndSplineSet
Validated: 1
EndChar

StartChar: brokenbar
Encoding: 166 166 101
Width: 221
Flags: HW
VStem: 80 61<-15.8479 272.121 364.123 652.097>
LayerCount: 2
Fore
SplineSet
141 616 m 2,0,-1
 141 401 l 2,1,2
 141 363 141 363 109 363 c 0,3,4
 80 363 80 363 80 401 c 2,5,-1
 80 616 l 2,6,7
 80 653 80 653 110 653 c 128,-1,8
 140 653 140 653 141 616 c 2,0,-1
141 237 m 2,9,-1
 141 22 l 2,10,11
 141 -17 141 -17 109 -17 c 0,12,13
 80 -17 80 -17 80 22 c 2,14,-1
 80 237 l 2,15,16
 80 273 80 273 110 273 c 128,-1,17
 140 273 140 273 141 237 c 2,9,-1
EndSplineSet
Validated: 1
EndChar

StartChar: section
Encoding: 167 167 102
Width: 529
Flags: HW
HStem: -10 62<141.676 384.262> 473 21G<416 438.5> 542 62<143.738 386.324>
VStem: 74 62<58.1907 111.201 266.931 355.586 433.927 535.637> 392 62<58.3629 160.073 238.326 326.153 482.799 535.809>
LayerCount: 2
Fore
SplineSet
454 99 m 0,0,1
 454 -10 454 -10 344 -10 c 2,2,-1
 160 -10 l 2,3,4
 109 -10 109 -10 91.5 16 c 128,-1,5
 74 42 74 42 74 86 c 0,6,7
 74 102 74 102 83 111.5 c 128,-1,8
 92 121 92 121 105.5 121 c 128,-1,9
 119 121 119 121 127.5 111.5 c 128,-1,10
 136 102 136 102 136 83 c 128,-1,11
 136 64 136 64 141.5 58 c 128,-1,12
 147 52 147 52 171 52 c 2,13,-1
 355 52 l 2,14,15
 377 52 377 52 384.5 62.5 c 128,-1,16
 392 73 392 73 392 99 c 0,17,18
 392 160 392 160 357 164 c 2,19,-1
 182 189 l 1,20,21
 74 203 74 203 74 306 c 0,22,23
 74 374 74 374 115 400 c 1,24,25
 74 429 74 429 74 495 c 0,26,27
 74 604 74 604 184 604 c 2,28,-1
 369 604 l 2,29,30
 420 604 420 604 437 578 c 128,-1,31
 454 552 454 552 454 512.5 c 128,-1,32
 454 473 454 473 423 473 c 0,33,34
 409 473 409 473 400.5 482.5 c 128,-1,35
 392 492 392 492 392 511 c 128,-1,36
 392 530 392 530 386.5 536 c 128,-1,37
 381 542 381 542 357 542 c 2,38,-1
 173 542 l 2,39,40
 151 542 151 542 143.5 531.5 c 128,-1,41
 136 521 136 521 136 495 c 0,42,43
 136 434 136 434 171 430 c 2,44,-1
 346 405 l 1,45,46
 454 391 454 391 454 289 c 0,47,48
 454 219 454 219 413 194 c 1,49,50
 454 165 454 165 454 99 c 0,0,1
149 354 m 0,51,52
 136 345 136 345 136 307.5 c 128,-1,53
 136 270 136 270 186.5 250.5 c 128,-1,54
 237 231 237 231 301 231 c 128,-1,55
 365 231 365 231 378.5 240 c 128,-1,56
 392 249 392 249 392 289 c 0,57,58
 392 310 392 310 374 326 c 0,59,60
 356 340 356 340 328 348 c 0,61,62
 274 362 274 362 218 362 c 0,63,64
 215 362 215 362 212 363 c 0,65,66
 161 363 161 363 149 354 c 0,51,52
EndSplineSet
Validated: 1
EndChar

StartChar: dieresis
Encoding: 168 168 103
Width: 367
Flags: HW
HStem: 584 92<43.3512 137.443 229.351 323.443>
VStem: 35 112<595.087 664.135> 221 112<595.087 664.135>
LayerCount: 2
Fore
SplineSet
147 630 m 128,-1,1
 147 611 147 611 128.5 597.5 c 128,-1,2
 110 584 110 584 90 584 c 128,-1,3
 70 584 70 584 52.5 597 c 128,-1,4
 35 610 35 610 35 630 c 128,-1,5
 35 650 35 650 53.5 663 c 128,-1,6
 72 676 72 676 90 676 c 128,-1,7
 108 676 108 676 127.5 662.5 c 128,-1,0
 147 649 147 649 147 630 c 128,-1,1
333 630 m 128,-1,9
 333 611 333 611 314.5 597.5 c 128,-1,10
 296 584 296 584 276 584 c 128,-1,11
 256 584 256 584 238.5 597 c 128,-1,12
 221 610 221 610 221 630 c 128,-1,13
 221 650 221 650 239.5 663 c 128,-1,14
 258 676 258 676 276 676 c 128,-1,15
 294 676 294 676 313.5 662.5 c 128,-1,8
 333 649 333 649 333 630 c 128,-1,9
EndSplineSet
Validated: 1
EndChar

StartChar: copyright
Encoding: 169 169 104
Width: 622
Flags: HW
HStem: 77 62<174.007 447.993> 209 51<269.924 365.905> 375 51<269.924 363.875> 496 62<174.007 447.993>
VStem: 79 62<171.824 462.458> 206 50<270.83 364.17> 366 50<260.258 287.81 341.177 373> 481 62<171.824 462.458>
LayerCount: 2
Fore
SplineSet
366 264 m 1,0,1
 366 294 366 294 390 294 c 0,2,3
 400 294 400 294 408 288 c 128,-1,4
 416 282 416 282 416 265.5 c 128,-1,5
 416 249 416 249 403 229 c 128,-1,6
 390 209 390 209 356 209 c 2,7,-1
 306 209 l 2,8,9
 264 209 264 209 235 232 c 128,-1,10
 206 255 206 255 206 298 c 2,11,-1
 206 337 l 2,12,13
 206 380 206 380 235 403 c 128,-1,14
 264 426 264 426 306 426 c 2,15,-1
 356 426 l 2,16,17
 388 426 388 426 402 406.5 c 128,-1,18
 416 387 416 387 416 370 c 0,19,20
 416 341 416 341 390 341 c 0,21,22
 372 341 372 341 368 357 c 2,23,-1
 364 373 l 1,24,25
 360 375 360 375 354 375 c 2,26,-1
 306 375 l 2,27,28
 283 375 283 375 269.5 364.5 c 128,-1,29
 256 354 256 354 256 337 c 2,30,-1
 256 298 l 2,31,32
 256 281 256 281 269.5 270.5 c 128,-1,33
 283 260 283 260 306 260 c 2,34,-1
 354 260 l 2,35,36
 363 260 363 260 366 264 c 1,0,1
79 262 m 2,37,-1
 79 373 l 2,38,39
 80 486 80 486 140 524 c 0,40,41
 170 544 170 544 206.5 551 c 128,-1,42
 243 558 243 558 297 558 c 2,43,-1
 326 558 l 2,44,45
 380 558 380 558 416 551 c 128,-1,46
 452 544 452 544 483 524 c 0,47,48
 543 486 543 486 543 373 c 2,49,-1
 543 262 l 2,50,51
 543 148 543 148 483 110 c 0,52,53
 452 90 452 90 416 83.5 c 128,-1,54
 380 77 380 77 326 77 c 2,55,-1
 297 77 l 2,56,57
 242 77 242 77 206 84 c 0,58,59
 170 90 170 90 140 110 c 0,60,61
 80 148 80 148 79 262 c 2,37,-1
297 139 m 2,62,-1
 326 139 l 2,63,64
 415 139 415 139 448 161 c 128,-1,65
 481 183 481 183 481 262 c 2,66,-1
 481 373 l 2,67,68
 481 452 481 452 448 474 c 128,-1,69
 415 496 415 496 326 496 c 2,70,-1
 297 496 l 2,71,72
 207 496 207 496 174 474 c 128,-1,73
 141 452 141 452 141 373 c 2,74,-1
 141 262 l 2,75,76
 141 183 141 183 174 161 c 128,-1,77
 207 139 207 139 297 139 c 2,62,-1
EndSplineSet
Validated: 1
EndChar

StartChar: ordfeminine
Encoding: 170 170 105
Width: 386
Flags: HW
HStem: 154 55<70.7365 313.717> 239 51<139.188 236.691> 344 51<150.319 247> 420 51<141.064 243.905>
VStem: 88 51<290.02 339.424 389.734 415.359> 247 51<299.611 344 395 416.905>
LayerCount: 2
Fore
SplineSet
247 344 m 1,0,-1
 195 344 l 2,1,2
 160 344 160 344 150 338 c 0,3,4
 140 330 140 330 139 316 c 0,5,6
 139 290 139 290 153 290 c 2,7,-1
 190 290 l 2,8,9
 241 290 241 290 247 344 c 1,0,-1
94 209 m 2,10,-1
 290 209 l 2,11,12
 305 209 305 209 314 201 c 128,-1,13
 323 193 323 193 323 180 c 0,14,15
 323 154 323 154 290 154 c 2,16,-1
 94 154 l 2,17,18
 78 154 78 154 70.5 162.5 c 128,-1,19
 63 171 63 171 63 181.5 c 128,-1,20
 63 192 63 192 70.5 200.5 c 128,-1,21
 78 209 78 209 94 209 c 2,10,-1
298 258 m 2,22,23
 298 247 298 247 289.5 241.5 c 128,-1,24
 281 236 281 236 273 236 c 0,25,26
 249 236 249 236 247 257 c 1,27,28
 227 239 227 239 190 239 c 2,29,-1
 153 239 l 2,30,31
 124 239 124 239 106 261 c 128,-1,32
 88 283 88 283 88 311 c 0,33,34
 88 358 88 358 115 376.5 c 128,-1,35
 142 395 142 395 195 395 c 2,36,-1
 247 395 l 1,37,-1
 247 404 l 2,38,39
 247 414 247 414 244 417 c 128,-1,40
 241 420 241 420 232 420 c 2,41,-1
 153 420 l 2,42,43
 143 420 143 420 141 415.5 c 128,-1,44
 139 411 139 411 139 404 c 128,-1,45
 139 397 139 397 133 389.5 c 128,-1,46
 127 382 127 382 115 382 c 128,-1,47
 103 382 103 382 95.5 388 c 128,-1,48
 88 394 88 394 88 404 c 0,49,50
 88 432 88 432 105.5 451.5 c 128,-1,51
 123 471 123 471 150 471 c 2,52,-1
 235 471 l 2,53,54
 298 471 298 471 298 397 c 2,55,-1
 298 258 l 2,22,23
EndSplineSet
Validated: 1
EndChar

StartChar: guillemotleft
Encoding: 171 171 106
Width: 509
Flags: HW
VStem: 34 253 188 253
LayerCount: 2
Back
SplineSet
390 531 m 2x40
 396 537 404.667 540 416 540 c 0
 432.667 540 441 531.667 441 515 c 0
 441 503 436 491.333 426 480 c 1
 274 333 l 1
 426 185 l 2
 436 174.333 441 162.667 441 150 c 0
 441 133.333 432.667 125 416 125 c 0
 404 125 395.333 127.667 390 133 c 2
 208 302 l 1
 194.667 312.667 188 323 188 333 c 0
 188 341 194.667 350.667 208 362 c 1
 390 531 l 2x40
236 531 m 2x80
 242 537 250.667 540 262 540 c 0
 278.667 540 287 531.667 287 515 c 0
 287 503 282 491.333 272 480 c 1
 120 333 l 1
 272 185 l 2
 282 174.333 287 162.667 287 150 c 0
 287 133.333 278.667 125 262 125 c 0
 250 125 241.333 127.667 236 133 c 2
 54 302 l 1
 40.6667 312.667 34 323 34 333 c 0
 34 341 40.6667 350.667 54 362 c 1
 236 531 l 2x80
EndSplineSet
Fore
Refer: 648 8249 N 1 0 0 1 154 0 2
Refer: 648 8249 N 1 0 0 1 0 0 2
Validated: 1
EndChar

StartChar: logicalnot
Encoding: 172 172 107
Width: 531
Flags: HW
HStem: 199 63<87.7682 389>
VStem: 389 63<113.83 199>
LayerCount: 2
Fore
SplineSet
419 103 m 0,0,1
 405 103 405 103 397 113.5 c 128,-1,2
 389 124 389 124 389 141 c 2,3,-1
 389 199 l 1,4,-1
 115 199 l 2,5,6
 79 199 79 199 79 231 c 0,7,8
 79 243 79 243 87.5 252.5 c 128,-1,9
 96 262 96 262 115 262 c 2,10,-1
 413 262 l 2,11,12
 452 262 452 262 452 225 c 2,13,-1
 452 141 l 2,14,15
 452 103 452 103 419 103 c 0,0,1
EndSplineSet
Validated: 1
EndChar

StartChar: uni00AD
Encoding: 173 173 108
Width: 466
Flags: HW
HStem: 199 63<81.7682 381.14>
VStem: 73 320<207.251 252.203>
LayerCount: 2
Fore
SplineSet
109 262 m 2,0,-1
 354 262 l 2,1,2
 393 262 393 262 393 229 c 0,3,4
 393 215 393 215 381.5 207 c 128,-1,5
 370 199 370 199 354 199 c 2,6,-1
 109 199 l 2,7,8
 73 199 73 199 73 231 c 0,9,10
 73 243 73 243 81.5 252.5 c 128,-1,11
 90 262 90 262 109 262 c 2,0,-1
EndSplineSet
Validated: 1
EndChar

StartChar: registered
Encoding: 174 174 109
Width: 622
Flags: HW
HStem: 77 62<174.007 447.993> 293 51<253 342.408> 380 51<253 360.618> 496 62<174.007 447.993>
VStem: 79 62<171.824 462.458> 202 51<204.188 293 344 380> 373 51<203.158 260.476 346.722 376.898> 481 62<171.824 462.458>
LayerCount: 2
Fore
SplineSet
297 139 m 2,0,-1
 326 139 l 2,1,2
 415 139 415 139 448 161 c 128,-1,3
 481 183 481 183 481 262 c 2,4,-1
 481 373 l 2,5,6
 481 452 481 452 448 474 c 128,-1,7
 415 496 415 496 326 496 c 2,8,-1
 297 496 l 2,9,10
 207 496 207 496 174 474 c 128,-1,11
 141 452 141 452 141 373 c 2,12,-1
 141 262 l 2,13,14
 141 183 141 183 174 161 c 128,-1,15
 207 139 207 139 297 139 c 2,0,-1
79 262 m 2,16,-1
 79 373 l 2,17,18
 80 486 80 486 140 524 c 0,19,20
 170 544 170 544 206.5 551 c 128,-1,21
 243 558 243 558 297 558 c 2,22,-1
 326 558 l 2,23,24
 380 558 380 558 416 551 c 128,-1,25
 452 544 452 544 483 524 c 0,26,27
 543 486 543 486 543 373 c 2,28,-1
 543 262 l 2,29,30
 543 148 543 148 483 110 c 0,31,32
 452 90 452 90 416 83.5 c 128,-1,33
 380 77 380 77 326 77 c 2,34,-1
 297 77 l 2,35,36
 242 77 242 77 206 84 c 0,37,38
 170 90 170 90 140 110 c 0,39,40
 80 148 80 148 79 262 c 2,16,-1
411.5 256 m 128,-1,42
 427 230 427 230 427 219 c 128,-1,43
 427 208 427 208 419 203 c 128,-1,44
 411 198 411 198 403 198 c 0,45,46
 380 198 380 198 377 212 c 128,-1,47
 374 226 374 226 356.5 252.5 c 128,-1,48
 339 279 339 279 318 293 c 1,49,-1
 253 293 l 1,50,-1
 253 217 l 2,51,52
 253 198 253 198 228 198 c 0,53,54
 215 198 215 198 208.5 204 c 128,-1,55
 202 210 202 210 202 217 c 2,56,-1
 202 411 l 2,57,58
 202 420 202 420 210.5 425.5 c 128,-1,59
 219 431 219 431 226 431 c 2,60,-1
 310 431 l 2,61,62
 424 431 424 431 424 361 c 0,63,64
 424 341 424 341 412.5 324 c 128,-1,65
 401 307 401 307 380 299 c 1,66,41
 396 282 396 282 411.5 256 c 128,-1,42
310 344 m 2,67,68
 348 344 348 344 360.5 347.5 c 128,-1,69
 373 351 373 351 373 362 c 128,-1,70
 373 373 373 373 361 376.5 c 128,-1,71
 349 380 349 380 310 380 c 2,72,-1
 253 380 l 1,73,-1
 253 344 l 1,74,-1
 310 344 l 2,67,68
EndSplineSet
Validated: 1
EndChar

StartChar: macron
Encoding: 175 175 110
Width: 429
Flags: HW
HStem: 668 63<63.7682 363.14>
VStem: 55 320<676.251 721.203>
LayerCount: 2
Fore
SplineSet
91 731 m 2,0,-1
 336 731 l 2,1,2
 375 731 375 731 375 698 c 0,3,4
 375 684 375 684 363.5 676 c 128,-1,5
 352 668 352 668 336 668 c 2,6,-1
 91 668 l 2,7,8
 55 668 55 668 55 700 c 0,9,10
 55 712 55 712 63.5 721.5 c 128,-1,11
 72 731 72 731 91 731 c 2,0,-1
EndSplineSet
Validated: 1
EndChar

StartChar: degree
Encoding: 176 176 111
Width: 413
Flags: HW
HStem: 381 61<147.331 265.367> 627 61<147.331 265.813>
VStem: 53 61<475.185 593.815> 299 61<475.633 593.669>
LayerCount: 2
Fore
SplineSet
141 599.5 m 128,-1,1
 114 572 114 572 114 534.5 c 128,-1,2
 114 497 114 497 141 469.5 c 128,-1,3
 168 442 168 442 206 442 c 128,-1,4
 244 442 244 442 271.5 469.5 c 128,-1,5
 299 497 299 497 299 535 c 128,-1,6
 299 573 299 573 271.5 600 c 128,-1,7
 244 627 244 627 206 627 c 128,-1,0
 168 627 168 627 141 599.5 c 128,-1,1
315 643 m 128,-1,9
 360 598 360 598 360 534.5 c 128,-1,10
 360 471 360 471 315 426 c 128,-1,11
 270 381 270 381 206.5 381 c 128,-1,12
 143 381 143 381 98 426 c 128,-1,13
 53 471 53 471 53 534.5 c 128,-1,14
 53 598 53 598 98 643 c 128,-1,15
 143 688 143 688 206.5 688 c 128,-1,8
 270 688 270 688 315 643 c 128,-1,9
EndSplineSet
Validated: 1
EndChar

StartChar: plusminus
Encoding: 177 177 112
Width: 583
Flags: HW
HStem: -5 63<66.2656 506.14> 260 63<66.2656 260 322 506.655>
VStem: 260 62<106.903 260 323 477.072>
LayerCount: 2
Fore
SplineSet
479 -5 m 2,0,-1
 101 -5 l 2,1,2
 65 -5 65 -5 65 28 c 0,3,4
 65 58 65 58 101 58 c 2,5,-1
 479 58 l 2,6,7
 518 58 518 58 518 25 c 0,8,9
 518 11 518 11 506.5 3 c 128,-1,10
 495 -5 495 -5 479 -5 c 2,0,-1
260 143 m 2,11,-1
 260 260 l 1,12,-1
 101 260 l 2,13,14
 65 260 65 260 65 293 c 0,15,16
 65 323 65 323 101 323 c 2,17,-1
 260 323 l 1,18,-1
 260 440 l 2,19,20
 260 478 260 478 291 478 c 128,-1,21
 322 478 322 478 322 440 c 2,22,-1
 322 323 l 1,23,-1
 479 323 l 2,24,25
 518 323 518 323 518 291 c 0,26,27
 518 277 518 277 507 268.5 c 128,-1,28
 496 260 496 260 479 260 c 2,29,-1
 322 260 l 1,30,-1
 322 143 l 2,31,32
 322 106 322 106 291 106 c 128,-1,33
 260 106 260 106 260 143 c 2,11,-1
EndSplineSet
Validated: 1
EndChar

StartChar: twosuperior
Encoding: 178 178 113
Width: 340
Flags: HW
HStem: 451 53<105 291.451> 724 53<103.877 224.554>
VStem: 47 56<675.861 722.816> 239 53<652.807 718.201>
LayerCount: 2
Fore
SplineSet
282 495.5 m 128,-1,1
 292 488 292 488 292 478 c 128,-1,2
 292 468 292 468 282 459.5 c 128,-1,3
 272 451 272 451 260 451 c 2,4,-1
 47 451 l 1,5,-1
 47 483 l 2,6,7
 47 528 47 528 77 562 c 128,-1,8
 107 596 107 596 143 612 c 0,9,10
 239 656 239 656 239 682 c 0,11,12
 239 711 239 711 225 717.5 c 128,-1,13
 211 724 211 724 162 724 c 2,14,-1
 136 724 l 2,15,16
 103 724 103 724 103 703 c 0,17,18
 103 691 103 691 94.5 683 c 128,-1,19
 86 675 86 675 76 675 c 128,-1,20
 66 675 66 675 56.5 683 c 128,-1,21
 47 691 47 691 47 703 c 0,22,23
 47 735 47 735 72.5 756 c 128,-1,24
 98 777 98 777 132 777 c 2,25,-1
 162 777 l 2,26,27
 226 777 226 777 259 759 c 128,-1,28
 292 741 292 741 292 682 c 0,29,30
 292 653 292 653 265 627.5 c 128,-1,31
 238 602 238 602 204 586 c 0,32,33
 113 544 113 544 105 504 c 1,34,-1
 260 504 l 1,35,0
 272 503 272 503 282 495.5 c 128,-1,1
EndSplineSet
Validated: 1
EndChar

StartChar: threesuperior
Encoding: 179 179 114
Width: 310
Flags: HW
HStem: 451 53<91.1025 207.049> 591 53<114.253 198.537> 724 53<91.3554 209.45>
VStem: 35 56<509.739 542.78 685.22 718.261> 216 52<509.719 572.103 659.275 716.011>
LayerCount: 2
Fore
SplineSet
91 701 m 0,0,1
 91 678 91 678 62 678 c 0,2,3
 51 678 51 678 43 685 c 128,-1,4
 35 692 35 692 35 703 c 0,5,6
 35 729 35 729 65.5 753 c 128,-1,7
 96 777 96 777 142 777 c 0,8,9
 218 776 218 776 240 756 c 0,10,11
 268 731 268 731 268 687.5 c 128,-1,12
 268 644 268 644 216 618 c 1,13,14
 268 588 268 588 268 540 c 0,15,16
 268 479 268 479 228 463 c 0,17,18
 197 451 197 451 146.5 451 c 128,-1,19
 96 451 96 451 65.5 475 c 128,-1,20
 35 499 35 499 35 525 c 0,21,22
 35 536 35 536 43 543 c 128,-1,23
 51 550 51 550 62 550 c 0,24,25
 91 550 91 550 91 527 c 0,26,27
 91 517 91 517 109 510.5 c 128,-1,28
 127 504 127 504 155.5 504 c 128,-1,29
 184 504 184 504 200 510 c 128,-1,30
 216 516 216 516 216 538 c 128,-1,31
 216 560 216 560 188.5 575.5 c 128,-1,32
 161 591 161 591 140 591 c 128,-1,33
 119 591 119 591 112.5 600 c 128,-1,34
 106 609 106 609 106 619 c 128,-1,35
 106 629 106 629 114 636.5 c 128,-1,36
 122 644 122 644 142 644 c 128,-1,37
 162 644 162 644 189 656.5 c 128,-1,38
 216 669 216 669 216 686.5 c 128,-1,39
 216 704 216 704 206 712.5 c 128,-1,40
 196 721 196 721 183.5 722.5 c 128,-1,41
 171 724 171 724 149 724 c 128,-1,42
 127 724 127 724 109 717.5 c 128,-1,43
 91 711 91 711 91 701 c 0,0,1
EndSplineSet
Validated: 1
EndChar

StartChar: acute
Encoding: 180 180 115
Width: 212
Flags: HW
HStem: 500 188
VStem: 24 165
LayerCount: 2
Fore
SplineSet
83 517 m 2,0,1
 68 500 68 500 56 500 c 128,-1,2
 44 500 44 500 34 508 c 128,-1,3
 24 516 24 516 24 530 c 128,-1,4
 24 544 24 544 34 556 c 2,5,-1
 130 671 l 2,6,7
 146 688 146 688 158 688 c 128,-1,8
 170 688 170 688 179.5 679.5 c 128,-1,9
 189 671 189 671 189 657 c 128,-1,10
 189 643 189 643 179 632 c 2,11,-1
 83 517 l 2,0,1
EndSplineSet
Validated: 1
EndChar

StartChar: paragraph
Encoding: 182 182 117
Width: 487
Flags: HW
HStem: 584 62<304 335>
VStem: 35 269<398.588 579.469> 242 62<-16.0967 327> 335 62<-16.0967 584>
LayerCount: 2
Fore
SplineSet
335 20 m 2,0,-1
 335 584 l 1,1,-1
 304 584 l 1,2,-1
 304 20 l 2,3,4
 304 -17 304 -17 273 -17 c 128,-1,5
 242 -17 242 -17 242 20 c 2,6,-1
 242 327 l 1,7,-1
 210 327 l 2,8,9
 128 327 128 327 81.5 368.5 c 128,-1,10
 35 410 35 410 35 494 c 128,-1,11
 35 578 35 578 90 612 c 128,-1,12
 145 646 145 646 252 646 c 2,13,-1
 397 646 l 1,14,-1
 397 20 l 2,15,16
 397 -17 397 -17 366 -17 c 128,-1,17
 335 -17 335 -17 335 20 c 2,0,-1
EndSplineSet
Validated: 8388609
EndChar

StartChar: periodcentered
Encoding: 183 183 118
Width: 245
Flags: HW
HStem: 341 92<74.3512 168.359>
VStem: 66 112<352.498 421.574>
LayerCount: 2
Back
SplineSet
179 387 m 128
 179 374.333 172.833 363.5 160.5 354.5 c 128
 148.167 345.5 135.333 341 122 341 c 128
 108.667 341 96 345.333 84 354 c 0
 72 362 66 372.333 66 385 c 0
 66 399 72.6667 410.667 86 420 c 0
 98 429.333 110 433.833 122 433.5 c 128
 134 433.167 146.5 428.5 159.5 419.5 c 128
 172.5 410.5 179 399.667 179 387 c 128
EndSplineSet
Fore
SplineSet
178 388 m 128,-1,1
 178 369 178 369 159.5 355 c 128,-1,2
 141 341 141 341 121 341 c 128,-1,3
 101 341 101 341 83.5 354 c 128,-1,4
 66 367 66 367 66 387 c 128,-1,5
 66 407 66 407 84.5 420 c 128,-1,6
 103 433 103 433 121 433 c 128,-1,7
 139 433 139 433 158.5 420 c 128,-1,0
 178 407 178 407 178 388 c 128,-1,1
EndSplineSet
Validated: 1
EndChar

StartChar: cedilla
Encoding: 184 184 119
Width: 242
Flags: HW
HStem: -180 60<49.6872 154.996>
VStem: 86 62<-24.7534 10> 155 62<-119.134 -71.9512>
LayerCount: 2
Fore
SplineSet
148 10 m 1,0,1
 148 -8 148 -8 165 -21 c 128,-1,2
 182 -34 182 -34 199.5 -50.5 c 128,-1,3
 217 -67 217 -67 217 -100 c 128,-1,4
 217 -133 217 -133 187 -156.5 c 128,-1,5
 157 -180 157 -180 123 -180 c 128,-1,6
 89 -180 89 -180 60.5 -167 c 128,-1,7
 32 -154 32 -154 32 -125 c 0,8,9
 32 -114 32 -114 38 -108 c 128,-1,10
 44 -102 44 -102 53 -102 c 128,-1,11
 62 -102 62 -102 84 -111 c 128,-1,12
 106 -120 106 -120 124 -120 c 0,13,14
 155 -120 155 -120 155 -100 c 0,15,16
 155 -91 155 -91 144 -81.5 c 128,-1,17
 133 -72 133 -72 120.5 -62.5 c 128,-1,18
 108 -53 108 -53 97 -33.5 c 128,-1,19
 86 -14 86 -14 86 10 c 1,20,-1
 148 10 l 1,0,1
EndSplineSet
Validated: 1
EndChar

StartChar: onesuperior
Encoding: 185 185 120
Width: 168
Flags: HW
HStem: 668 112<21.5 81.5>
VStem: 57 54<448.281 691>
LayerCount: 2
Fore
SplineSet
48 682 m 2,0,1
 34 668 34 668 21.5 668 c 128,-1,2
 9 668 9 668 2 675.5 c 128,-1,3
 -5 683 -5 683 -5 693.5 c 128,-1,4
 -5 704 -5 704 9 718 c 2,5,-1
 57 768 l 1,6,7
 71 780 71 780 81.5 780 c 128,-1,8
 92 780 92 780 101.5 773 c 128,-1,9
 111 766 111 766 111 751 c 2,10,-1
 111 480 l 2,11,12
 111 448 111 448 84 448 c 128,-1,13
 57 448 57 448 57 480 c 2,14,-1
 57 691 l 1,15,-1
 48 682 l 2,0,1
EndSplineSet
Validated: 1
EndChar

StartChar: ordmasculine
Encoding: 186 186 121
Width: 386
Flags: HW
HStem: 154 55<70.252 313.717> 239 51<147.771 238.228> 420 51<147.771 238.228>
VStem: 88 51<296.709 413.291> 247 51<297.224 412.776>
LayerCount: 2
Fore
SplineSet
188 290 m 2,0,-1
 197 290 l 2,1,2
 230 290 230 290 238.5 297 c 128,-1,3
 247 304 247 304 247 333 c 2,4,-1
 247 377 l 2,5,6
 247 406 247 406 238.5 413 c 128,-1,7
 230 420 230 420 197 420 c 2,8,-1
 188 420 l 2,9,10
 156 420 156 420 147.5 413.5 c 128,-1,11
 139 407 139 407 139 377 c 2,12,-1
 139 333 l 2,13,14
 139 303 139 303 147.5 296.5 c 128,-1,15
 156 290 156 290 188 290 c 2,0,-1
88 333 m 2,16,-1
 88 377 l 2,17,18
 88 432 88 432 110.5 451.5 c 128,-1,19
 133 471 133 471 188 471 c 2,20,-1
 197 471 l 2,21,22
 252 471 252 471 275 451.5 c 128,-1,23
 298 432 298 432 298 377 c 2,24,-1
 298 333 l 2,25,26
 298 278 298 278 275.5 258.5 c 128,-1,27
 253 239 253 239 197 239 c 2,28,-1
 188 239 l 2,29,30
 133 239 133 239 110.5 258.5 c 128,-1,31
 88 278 88 278 88 333 c 2,16,-1
94 209 m 2,32,-1
 290 209 l 2,33,34
 305 209 305 209 314 201 c 128,-1,35
 323 193 323 193 323 180 c 0,36,37
 323 154 323 154 290 154 c 2,38,-1
 94 154 l 2,39,40
 78 154 78 154 70 162 c 0,41,42
 62 171 62 171 62 181 c 0,43,44
 62 192 62 192 70 200 c 128,-1,45
 78 208 78 208 94 209 c 2,32,-1
EndSplineSet
Validated: 1
EndChar

StartChar: guillemotright
Encoding: 187 187 122
Width: 509
Flags: HW
VStem: 68 253 222 253
LayerCount: 2
Back
SplineSet
273 531 m 2x40
 455 362 l 1
 468.333 350.667 475 341 475 333 c 0
 475 323 468.333 312.667 455 302 c 1
 273 133 l 2
 267.667 127.667 259 125 247 125 c 0
 230.333 125 222 133.333 222 150 c 0
 222 162.667 227 174.333 237 185 c 2
 389 333 l 1
 237 480 l 1
 227 491.333 222 503 222 515 c 0
 222 531.667 230.333 540 247 540 c 0
 258.333 540 267 537 273 531 c 2x40
119 531 m 2x80
 301 362 l 1
 314.333 350.667 321 341 321 333 c 0
 321 323 314.333 312.667 301 302 c 1
 119 133 l 2
 113.667 127.667 105 125 93 125 c 0
 76.3333 125 68 133.333 68 150 c 0
 68 162.667 73 174.333 83 185 c 2
 235 333 l 1
 83 480 l 1
 73 491.333 68 503 68 515 c 0
 68 531.667 76.3333 540 93 540 c 0
 104.333 540 113 537 119 531 c 2x80
EndSplineSet
Fore
Refer: 649 8250 N 1 0 0 1 0 0 2
Refer: 649 8250 N 1 0 0 1 154 0 2
Validated: 1
EndChar

StartChar: onequarter
Encoding: 188 188 123
Width: 594
Flags: HW
HStem: 90 53<353 426 480 549.728> 534 112<115.5 175.5>
VStem: 151 54<314.281 557> 426 54<-13.7188 90 143 241>
LayerCount: 2
Back
SplineSet
480 18 m 2
 480 -3.33333 471 -14 453 -14 c 128
 435 -14 426 -3.33333 426 18 c 2
 426 90 l 1
 294 90 l 1
 294 149 l 1
 418 315 l 1
 480 315 l 1
 480 143 l 1
 519 143 l 2
 539.667 143 550 134.333 550 117 c 0
 550 99 539.667 90 519 90 c 2
 480 90 l 1
 480 18 l 2
426 143 m 1
 426 241 l 1
 353 143 l 1
 426 143 l 1
506 491 m 2
 96 81 l 2
 86.6667 72.3333 77.3333 68 68 68 c 0
 51.3333 68 43 76.3333 43 93 c 0
 43 102.333 47.3333 111.667 56 121 c 2
 466 531 l 2
 475.334 539.667 484.667 544 494 544 c 0
 510.667 544 519 535.667 519 519 c 0
 519 509.667 514.667 500.333 506 491 c 2
114 534 m 0
 106.667 534 100.667 536.5 96 541.5 c 128
 91.3333 546.5 89 552 89 558 c 0
 89 566 93.6667 574.667 103 584 c 2
 151 634 l 1
 160.333 642 169 646 177 646 c 0
 183 646 189.167 643.667 195.5 639 c 128
 201.833 634.333 205 627 205 617 c 2
 205 346 l 2
 205 324.667 196 314 178 314 c 128
 160 314 151 324.667 151 346 c 2
 151 557 l 1
 142 548 l 2
 132.667 538.667 123.333 534 114 534 c 0
EndSplineSet
Fore
Refer: 651 8308 S 1 0 0 1 262 -462 2
Refer: 120 185 N 1 0 0 1 94 -134 2
Refer: 650 8260 N 1 0 0 1 169 0 2
Validated: 1
EndChar

StartChar: onehalf
Encoding: 189 189 124
Width: 622
Flags: HW
HStem: -11 53<382 568.451> 262 53<380.877 501.554> 534 112<123.5 183.5>
VStem: 159 54<314.281 557> 324 56<213.861 260.816> 516 53<190.807 256.201>
LayerCount: 2
Back
SplineSet
122 534 m 0
 114.667 534 108.667 536.5 104 541.5 c 128
 99.3333 546.5 97 552 97 558 c 0
 97 566 101.667 574.667 111 584 c 2
 159 634 l 1
 168.333 642 177 646 185 646 c 0
 191 646 197.167 643.667 203.5 639 c 128
 209.833 634.333 213 627 213 617 c 2
 213 346 l 2
 213 324.667 204 314 186 314 c 128
 168 314 159 324.667 159 346 c 2
 159 557 l 1
 150 548 l 2
 140.667 538.667 131.333 534 122 534 c 0
569 15 m 0
 569 9 565.667 3.16667 559 -2.5 c 128
 552.333 -8.16666 545 -11 537 -11 c 2
 324 -11 l 1
 324 21 l 2
 324 51 334 77.3333 354 100 c 128
 374 122.667 396 139.5 420 150.5 c 128
 444 161.5 466 173.167 486 185.5 c 128
 506 197.833 516 209.333 516 220 c 0
 516 239.333 511.333 251.167 502 255.5 c 128
 492.667 259.833 471.667 262 439 262 c 2
 413 262 l 2
 391 262 380 255 380 241 c 0
 380 233 377.167 226.333 371.5 221 c 128
 365.833 215.667 359.333 213 352 213 c 0
 346 213 339.833 215.667 333.5 221 c 128
 327.167 226.333 324 233 324 241 c 0
 324 262.333 332.5 280 349.5 294 c 128
 366.5 308 386.333 315 409 315 c 2
 439 315 l 2
 481.667 315 514 309 536 297 c 128
 558 285 569 259.333 569 220 c 0
 569 200.667 560 182.5 542 165.5 c 128
 524 148.5 503.833 134.833 481.5 124.5 c 128
 459.167 114.167 437.833 101.667 417.5 87 c 128
 397.167 72.3333 385.333 57.3333 382 42 c 1
 537 42 l 1
 545 41.3333 552.333 38.5 559 33.5 c 128
 565.667 28.5 569 22.3333 569 15 c 0
503 491 m 2
 93 81 l 2
 83.6667 72.3333 74.3333 68 65 68 c 0
 48.3333 68 40 76.3333 40 93 c 0
 40 102.333 44.3333 111.667 53 121 c 2
 463 531 l 2
 472.335 539.667 481.668 544 491 544 c 0
 507.667 544 516 535.667 516 519 c 0
 516 509.667 511.667 500.333 503 491 c 2
EndSplineSet
Fore
Refer: 113 178 N 1 0 0 1 277 -462 2
Refer: 120 185 N 1 0 0 1 102 -134 2
Refer: 650 8260 N 1 0 0 1 166 0 2
Validated: 1
EndChar

StartChar: threequarters
Encoding: 190 190 125
Width: 641
Flags: HW
HStem: 90 53<399 472 526 595.728> 320 53<119.103 235.049> 460 53<142.253 226.537> 593 53<119.355 237.45>
VStem: 63 56<378.739 411.78 554.22 587.261> 244 52<378.719 441.103 528.275 585.011> 472 54<-13.7188 90 143 241>
LayerCount: 2
Back
SplineSet
119 570 m 0
 119 554.667 109.333 547 90 547 c 0
 82.6667 547 76.3333 549.333 71 554 c 128
 65.6667 558.667 63 564.667 63 572 c 0
 63 589.333 73.1667 606 93.5 622 c 128
 113.833 638 139.333 646 170 646 c 0
 185.333 646 197.333 645.833 206 645.5 c 128
 214.667 645.147 225.5 643.314 238.5 640 c 128
 251.5 636.657 261.5 631.824 268.5 625.5 c 128
 275.5 619.162 281.833 609.829 287.5 597.5 c 128
 293.167 585.164 296 570.331 296 553 c 0
 296 526.333 278.667 504.333 244 487 c 1
 278.667 467 296 441 296 409 c 0
 296 389 292.667 372.5 286 359.5 c 128
 279.332 346.5 269.166 337.333 255.5 332 c 128
 241.833 326.667 229 323.333 217 322 c 128
 205 320.667 189.333 320 170 320 c 0
 139.333 320 113.833 328 93.5 344 c 128
 73.1667 360 63 376.667 63 394 c 0
 63 401.333 65.6667 407.333 71 412 c 128
 76.3334 416.667 82.6667 419 90 419 c 0
 109.333 419 119 411.333 119 396 c 0
 119 389.333 125 383.833 137 379.5 c 128
 149 375.167 161.333 373 174 373 c 0
 199.333 373 217.333 375 228 379 c 128
 238.667 383 244 393.333 244 410 c 0
 244 422.667 234.833 434.167 216.5 444.5 c 128
 198.167 454.833 180 460 162 460 c 0
 152 460 144.833 463 140.5 469 c 128
 136.167 475 134 481 134 487 c 0
 134 494.333 136.667 500.5 142 505.5 c 128
 147.333 510.5 154 513 162 513 c 0
 180.667 513 199 517.167 217 525.5 c 128
 235 533.833 244 544 244 556 c 0
 244 567.333 240.667 575.833 234 581.5 c 128
 227.333 587.167 219.833 590.5 211.5 591.5 c 128
 203.167 592.5 190.667 593 174 593 c 0
 161.333 593 149 590.833 137 586.5 c 128
 125 582.167 119 576.667 119 570 c 0
557 491 m 2
 147 81 l 2
 137.666 72.3333 128.333 68 119 68 c 0
 102.333 68 94 76.3333 94 93 c 0
 94 102.333 98.3333 111.667 107 121 c 2
 517 531 l 2
 526.333 539.667 535.667 544 545 544 c 0
 561.667 544 570 535.667 570 519 c 0
 570 509.667 565.667 500.333 557 491 c 2
526 18 m 2
 526 -3.33333 517 -14 499 -14 c 128
 481 -14 472 -3.33333 472 18 c 2
 472 90 l 1
 340 90 l 1
 340 149 l 1
 464 315 l 1
 526 315 l 1
 526 143 l 1
 565 143 l 2
 585.667 143 596 134.333 596 117 c 0
 596 99 585.667 90 565 90 c 2
 526 90 l 1
 526 18 l 2
472 143 m 1
 472 241 l 1
 399 143 l 1
 472 143 l 1
EndSplineSet
Fore
Refer: 114 179 N 1 0 0 1 28 -131 2
Refer: 651 8308 N 1 0 0 1 308 -462 2
Refer: 650 8260 N 1 0 0 1 220 0 2
Validated: 1
EndChar

StartChar: questiondown
Encoding: 191 191 126
Width: 537
Flags: HW
HStem: -175 62<132.692 408.702> 404 92<238.146 332.854>
VStem: 37 62<-78.3032 68.4984> 229 113<415.473 484.913> 254 62<184 322.072> 440 63<-81.9561 44.6641>
LayerCount: 2
Fore
SplineSet
248 417.5 m 128,-1,1
 229 431 229 431 229 450.5 c 128,-1,2
 229 470 229 470 247.5 483 c 128,-1,3
 266 496 266 496 285.5 496 c 128,-1,4
 305 496 305 496 323.5 482.5 c 128,-1,5
 342 469 342 469 342 450 c 128,-1,6
 342 431 342 431 323 417.5 c 128,-1,7
 304 404 304 404 285.5 404 c 128,-1,0
 267 404 267 404 248 417.5 c 128,-1,1
254 285 m 2,8,9
 254 323 254 323 285 323 c 128,-1,10
 316 323 316 323 316 285 c 2,11,-1
 316 137 l 1,12,-1
 155 93 l 2,13,14
 132 87 132 87 115.5 60 c 128,-1,15
 99 33 99 33 99 -6 c 128,-1,16
 99 -45 99 -45 121.5 -79 c 128,-1,17
 144 -113 144 -113 191 -113 c 2,18,-1
 285 -113 l 2,19,20
 332 -113 332 -113 357 -110 c 128,-1,21
 382 -107 382 -107 403.5 -94.5 c 128,-1,22
 425 -82 425 -82 432.5 -58 c 128,-1,23
 440 -34 440 -34 440 -4 c 0,24,25
 440 46 440 46 471.5 46 c 128,-1,26
 503 46 503 46 503 8 c 0,27,28
 503 -106 503 -106 442 -143 c 0,29,30
 411 -162 411 -162 375 -168.5 c 128,-1,31
 339 -175 339 -175 285 -175 c 2,32,-1
 209 -175 l 2,33,34
 118 -175 118 -175 77.5 -125 c 128,-1,35
 37 -75 37 -75 37 -6 c 128,-1,36
 37 63 37 63 67 101.5 c 128,-1,37
 97 140 97 140 169 160 c 2,38,-1
 254 184 l 1,39,-1
 254 285 l 2,8,9
EndSplineSet
Validated: 8388609
EndChar

StartChar: Agrave
Encoding: 192 192 127
Width: 590
Flags: HW
HStem: 194 62<181 409> 616 20<251.331 338.669> 678 141
VStem: 24 63<-14.375 10> 182 142 503 63<-14.5627 10>
LayerCount: 2
Back
SplineSet
331 636 m 1
 563 31 l 2
 565 25 566 19 566 14 c 0
 566 -10 543 -16 535 -16 c 0
 520 -16 509 -6 503 10 c 2
 433 194 l 1
 157 194 l 1
 87 10 l 2
 80 -6 68 -16 55 -16 c 0
 47 -16 24 -10 24 14 c 0
 24 19 25 25 27 31 c 2
 259 636 l 1
 331 636 l 1
409 256 m 1
 294 546 l 1
 181 256 l 1
 409 256 l 1
241 804 m 2
 311 735 l 2
 319 726 324 718 324 707 c 0
 324 694 312 678 294 678 c 0
 284 678 274 683 265 693 c 2
 196 761 l 2
 188 770 182 778 182 789 c 0
 182 802 197 819 213 819 c 0
 219 819 228 817 241 804 c 2
EndSplineSet
Fore
Refer: 325 768 S 1 0 0 1 562 178 2
Refer: 34 65 N 1 0 0 1 0 0 3
Validated: 1
EndChar

StartChar: Aacute
Encoding: 193 193 128
Width: 590
Flags: HW
HStem: 194 62<181 409> 616 20<251.331 338.669> 678 141
VStem: 24 63<-14.375 10> 246 142 503 63<-14.5627 10>
LayerCount: 2
Back
SplineSet
331 636 m 1
 563 31 l 2
 565 25 566 19 566 14 c 0
 566 -10 543 -16 535 -16 c 0
 520 -16 509 -6 503 10 c 2
 433 194 l 1
 157 194 l 1
 87 10 l 2
 80 -6 68 -16 55 -16 c 0
 47 -16 24 -10 24 14 c 0
 24 19 25 25 27 31 c 2
 259 636 l 1
 331 636 l 1
409 256 m 1
 294 546 l 1
 181 256 l 1
 409 256 l 1
329 804 m 2
 342 817 351 819 357 819 c 0
 373 819 388 802 388 789 c 0
 388 778 382 770 374 761 c 2
 305 693 l 2
 296 683 286 678 276 678 c 0
 258 678 246 694 246 707 c 0
 246 718 251 726 259 735 c 2
 329 804 l 2
EndSplineSet
Fore
Refer: 326 769 S 1 0 0 1 626 178 2
Refer: 34 65 N 1 0 0 1 0 0 3
Validated: 1
EndChar

StartChar: Acircumflex
Encoding: 194 194 129
Width: 590
Flags: HW
HStem: 194 62<181 409> 616 20<251.331 338.669> 646 173
VStem: 24 63<-14.375 10> 149 293<646 688> 503 63<-14.5627 10>
LayerCount: 2
Back
SplineSet
331 636 m 1
 563 31 l 2
 565 25 566 19 566 14 c 0
 566 -10 543 -16 535 -16 c 0
 520 -16 509 -6 503 10 c 2
 433 194 l 1
 157 194 l 1
 87 10 l 2
 80 -6 68 -16 55 -16 c 0
 47 -16 24 -10 24 14 c 0
 24 19 25 25 27 31 c 2
 259 636 l 1
 331 636 l 1
409 256 m 1
 294 546 l 1
 181 256 l 1
 409 256 l 1
156 695 m 2
 263 819 l 1
 326 819 l 1
 435 695 l 2
 438 692 442 682 442 674 c 0
 442 665 438 646 414 646 c 0
 397 646 391 659 382 668 c 2
 295 750 l 1
 209 668 l 2
 200 659 194 646 177 646 c 0
 153 646 149 665 149 674 c 0
 149 682 153 692 156 695 c 2
EndSplineSet
Fore
Refer: 327 770 S 1 0 0 1 597 141 2
Refer: 34 65 N 1 0 0 1 0 0 3
Validated: 1
EndChar

StartChar: Atilde
Encoding: 195 195 130
Width: 590
Flags: HW
HStem: 194 62<181 409> 616 20<251.331 338.669> 696 67<289.359 376.346> 736 67<212.565 299.641>
VStem: 24 63<-14.375 10> 149 291<738.656 760.344> 503 63<-14.5627 10>
LayerCount: 2
Back
SplineSet
331 636 m 1x94
 563 31 l 2
 565 25 566 19 566 14 c 0
 566 -10 543 -16 535 -16 c 0
 520 -16 509 -6 503 10 c 2
 433 194 l 1
 157 194 l 1
 87 10 l 2
 80 -6 68 -16 55 -16 c 0
 47 -16 24 -10 24 14 c 0
 24 19 25 25 27 31 c 2
 259 636 l 1
 331 636 l 1x94
409 256 m 1
 294 546 l 1
 181 256 l 1
 409 256 l 1
341 765 m 2x28
 346 763 347 763 349 763 c 0x48
 350 763 352 763 354 765 c 2
 385 793 l 2
 392 800 400 803 410 803 c 0x28
 423 803 440 792 440 774 c 0
 440 762 434 752 424 744 c 2
 379 706 l 2
 372 701 364 696 356 696 c 0x48
 350 696 346 696 342 698 c 2
 248 734 l 2
 243 736 242 736 240 736 c 0x28
 239 736 237 736 235 734 c 2
 204 706 l 2
 197 699 189 696 179 696 c 0x48
 166 696 149 707 149 725 c 0
 149 737 155 747 165 755 c 2
 210 793 l 2
 217 798 225 803 233 803 c 0
 239 803 243 803 247 801 c 2
 341 765 l 2x28
EndSplineSet
Fore
Refer: 328 771 S 1 0 0 1 575 212 2
Refer: 34 65 N 1 0 0 1 0 0 3
Validated: 1
EndChar

StartChar: Adieresis
Encoding: 196 196 131
Width: 590
Flags: HW
HStem: 194 62<181 409> 616 20<251.331 338.669> 697 92<154.351 248.443 340.351 434.443>
VStem: 24 63<-14.375 10> 146 112<708.087 777.135> 332 112<708.087 777.135> 503 63<-14.5627 10>
LayerCount: 2
Back
SplineSet
331 636 m 1
 563 31 l 2
 565 25 566 19 566 14 c 0
 566 -10 543 -16 535 -16 c 0
 520 -16 509 -6 503 10 c 2
 433 194 l 1
 157 194 l 1
 87 10 l 2
 80 -6 68 -16 55 -16 c 0
 47 -16 24 -10 24 14 c 0
 24 19 25 25 27 31 c 2
 259 636 l 1
 331 636 l 1
409 256 m 1
 294 546 l 1
 181 256 l 1
 409 256 l 1
278 743 m 0
 278 715 244 697 222 697 c 0
 198 697 166 715 166 743 c 0
 166 771 200 789 222 789 c 0
 243 789 278 771 278 743 c 0
424 743 m 0
 424 715 390 697 368 697 c 0
 344 697 312 715 312 743 c 0
 312 771 346 789 368 789 c 0
 389 789 424 771 424 743 c 0
EndSplineSet
Fore
Refer: 332 776 S 1 0 0 1 603 197 2
Refer: 34 65 N 1 0 0 1 0 0 3
Validated: 1
EndChar

StartChar: Aring
Encoding: 197 197 132
Width: 590
Flags: HW
HStem: 194 62<181 409> 616 20<251.331 338.669> 655 44<264.574 325.426> 775 44<264.574 325.426>
VStem: 24 63<-14.375 10> 213 44<706.574 767.426> 333 44<706.574 767.426> 503 63<-14.5627 10>
LayerCount: 2
Back
SplineSet
331 636 m 1
 563 31 l 2
 565 25 566 19 566 14 c 0
 566 -10 543 -16 535 -16 c 0
 520 -16 509 -6 503 10 c 2
 433 194 l 1
 157 194 l 1
 87 10 l 2
 80 -6 68 -16 55 -16 c 0
 47 -16 24 -10 24 14 c 0
 24 19 25 25 27 31 c 2
 259 636 l 1
 331 636 l 1
409 256 m 1
 294 546 l 1
 181 256 l 1
 409 256 l 1
257 737 m 0
 257 716 274 699 295 699 c 0
 316 699 333 716 333 737 c 0
 333 758 316 775 295 775 c 0
 274 775 257 758 257 737 c 0
213 737 m 0
 213 782 250 819 295 819 c 0
 340 819 377 782 377 737 c 0
 377 692 340 655 295 655 c 0
 250 655 213 692 213 737 c 0
EndSplineSet
Fore
Refer: 334 778 S 1 0 0 1 602 155 2
Refer: 34 65 N 1 0 0 1 0 0 3
Validated: 1
EndChar

StartChar: AE
Encoding: 198 198 133
Width: 884
Flags: HW
HStem: 0 62<465 834.629> 189 62<232 402> 322 62<465 717.523> 574 62<465 834.629>
VStem: 402 63<62 189 251 322 384 511>
AnchorPoint: "bottom" 434 0 basechar 0
AnchorPoint: "top" 434 678 basechar 0
LayerCount: 2
Fore
SplineSet
465 322 m 1,0,-1
 465 62 l 1,1,-1
 797 62 l 2,2,3
 836 62 836 62 836 29 c 0,4,5
 836 0 836 0 797 0 c 2,6,-1
 431 0 l 2,7,8
 402 0 402 0 402 40 c 2,9,-1
 402 189 l 1,10,-1
 191 189 l 1,11,-1
 71 9 l 2,12,13
 54 -16 54 -16 34 -16 c 0,14,15
 26 -16 26 -16 18 -10 c 1,16,17
 9 -6 9 -6 9 7 c 0,18,19
 9 18 9 18 18 32 c 2,20,-1
 408 624 l 2,21,22
 416 636 416 636 431 636 c 2,23,-1
 797 636 l 2,24,25
 836 636 836 636 836 603 c 0,26,27
 836 574 836 574 797 574 c 2,28,-1
 465 574 l 1,29,-1
 465 384 l 1,30,-1
 677 384 l 2,31,32
 719 384 719 384 719 351 c 0,33,34
 719 322 719 322 677 322 c 2,35,-1
 465 322 l 1,0,-1
232 251 m 1,36,-1
 402 251 l 1,37,-1
 402 511 l 1,38,-1
 232 251 l 1,36,-1
EndSplineSet
Validated: 1
EndChar

StartChar: Ccedilla
Encoding: 199 199 134
Width: 610
Flags: HW
HStem: -180 60<251.687 356.996> 0 62<167.588 293.188 351 482.167> 574 62<165.946 482.167>
VStem: 71 62<94.9629 541.967> 357 62<-119.246 -73.4756> 493 62<74.8961 155.865 480.049 561.619>
LayerCount: 2
Fore
SplineSet
288 0 m 1,0,1
 174 2 174 2 122.5 40 c 128,-1,2
 71 78 71 78 71 182 c 2,3,-1
 71 454 l 2,4,5
 71 562 71 562 125.5 599 c 128,-1,6
 180 636 180 636 297 636 c 2,7,-1
 450 636 l 2,8,9
 513 636 513 636 534 604 c 128,-1,10
 555 572 555 572 555 519 c 0,11,12
 555 479 555 479 524 479 c 128,-1,13
 493 479 493 479 493 514.5 c 128,-1,14
 493 550 493 550 482.5 562 c 128,-1,15
 472 574 472 574 443 574 c 2,16,-1
 297 574 l 2,17,18
 201 574 201 574 167 552.5 c 128,-1,19
 133 531 133 531 133 453 c 2,20,-1
 133 183 l 2,21,22
 133 104 133 104 168.5 83 c 128,-1,23
 204 62 204 62 309 62 c 2,24,-1
 443 62 l 2,25,26
 472 62 472 62 482.5 74.5 c 128,-1,27
 493 87 493 87 493 122 c 128,-1,28
 493 157 493 157 524 157 c 128,-1,29
 555 157 555 157 555 110.5 c 128,-1,30
 555 64 555 64 534 32 c 128,-1,31
 513 0 513 0 450 0 c 2,32,-1
 351 0 l 1,33,34
 356 -18 356 -18 388 -38 c 0,35,36
 400 -45 400 -45 409.5 -59.5 c 128,-1,37
 419 -74 419 -74 419 -94 c 0,38,39
 419 -133 419 -133 389 -156.5 c 128,-1,40
 359 -180 359 -180 325 -180 c 128,-1,41
 291 -180 291 -180 262.5 -167 c 128,-1,42
 234 -154 234 -154 234 -125 c 0,43,44
 234 -114 234 -114 240 -108 c 128,-1,45
 246 -102 246 -102 255 -102 c 128,-1,46
 264 -102 264 -102 286 -111 c 128,-1,47
 308 -120 308 -120 326 -120 c 0,48,49
 357 -120 357 -120 357 -100 c 0,50,51
 357 -90 357 -90 341 -78 c 0,52,53
 293 -44 293 -44 288 0 c 1,0,1
EndSplineSet
Validated: 1
EndChar

StartChar: Egrave
Encoding: 200 200 135
Width: 617
Flags: HW
HStem: 0 62<146 566.629> 327 62<146 449.488> 574 62<146 566.629> 678 141
VStem: 84 62<62 327 389 574> 209 142
LayerCount: 2
Back
SplineSet
146 327 m 1
 146 62 l 1
 529 62 l 2
 557 62 568 49 568 29 c 0
 568 6 552 0 529 0 c 2
 113 0 l 2
 90 0 84 18 84 40 c 2
 84 596 l 2
 84 625 96 636 113 636 c 2
 529 636 l 2
 557 636 568 623 568 603 c 0
 568 580 552 574 529 574 c 2
 146 574 l 1
 146 389 l 1
 408 389 l 2
 439 389 451 376 451 356 c 0
 451 333 433 327 408 327 c 2
 146 327 l 1
268 804 m 2
 338 735 l 2
 346 726 351 718 351 707 c 0
 351 694 339 678 321 678 c 0
 311 678 301 683 292 693 c 2
 223 761 l 2
 215 770 209 778 209 789 c 0
 209 802 224 819 240 819 c 0
 246 819 255 817 268 804 c 2
EndSplineSet
Fore
Refer: 325 768 S 1 0 0 1 589 178 2
Refer: 38 69 N 1 0 0 1 0 0 3
Validated: 1
EndChar

StartChar: Eacute
Encoding: 201 201 136
Width: 617
Flags: HW
HStem: 0 62<146 566.629> 327 62<146 449.488> 574 62<146 566.629> 678 141
VStem: 84 62<62 327 389 574> 260 142
LayerCount: 2
Back
SplineSet
146 327 m 1
 146 62 l 1
 529 62 l 2
 557 62 568 49 568 29 c 0
 568 6 552 0 529 0 c 2
 113 0 l 2
 90 0 84 18 84 40 c 2
 84 596 l 2
 84 625 96 636 113 636 c 2
 529 636 l 2
 557 636 568 623 568 603 c 0
 568 580 552 574 529 574 c 2
 146 574 l 1
 146 389 l 1
 408 389 l 2
 439 389 451 376 451 356 c 0
 451 333 433 327 408 327 c 2
 146 327 l 1
343 804 m 2
 356 817 365 819 371 819 c 0
 387 819 402 802 402 789 c 0
 402 778 396 770 388 761 c 2
 319 693 l 2
 310 683 300 678 290 678 c 0
 272 678 260 694 260 707 c 0
 260 718 265 726 273 735 c 2
 343 804 l 2
EndSplineSet
Fore
Refer: 326 769 S 1 0 0 1 640 178 2
Refer: 38 69 N 1 0 0 1 0 0 3
Validated: 1
EndChar

StartChar: Ecircumflex
Encoding: 202 202 137
Width: 617
Flags: HW
HStem: 0 62<146 566.629> 327 62<146 449.488> 574 62<146 566.629> 646 173
VStem: 84 62<62 327 389 574> 175 293<646 688>
LayerCount: 2
Back
SplineSet
146 327 m 1
 146 62 l 1
 529 62 l 2
 557 62 568 49 568 29 c 0
 568 6 552 0 529 0 c 2
 113 0 l 2
 90 0 84 18 84 40 c 2
 84 596 l 2
 84 625 96 636 113 636 c 2
 529 636 l 2
 557 636 568 623 568 603 c 0
 568 580 552 574 529 574 c 2
 146 574 l 1
 146 389 l 1
 408 389 l 2
 439 389 451 376 451 356 c 0
 451 333 433 327 408 327 c 2
 146 327 l 1
182 695 m 2
 289 819 l 1
 352 819 l 1
 461 695 l 2
 464 692 468 682 468 674 c 0
 468 665 464 646 440 646 c 0
 423 646 417 659 408 668 c 2
 321 750 l 1
 235 668 l 2
 226 659 220 646 203 646 c 0
 179 646 175 665 175 674 c 0
 175 682 179 692 182 695 c 2
EndSplineSet
Fore
Refer: 327 770 S 1 0 0 1 623 141 2
Refer: 38 69 N 1 0 0 1 0 0 3
Validated: 1
EndChar

StartChar: Edieresis
Encoding: 203 203 138
Width: 617
Flags: HW
HStem: 0 62<146 566.629> 327 62<146 449.488> 574 62<146 566.629> 697 92<181.351 275.443 367.351 461.443>
VStem: 84 62<62 327 389 574> 173 112<708.087 777.135> 359 112<708.087 777.135>
LayerCount: 2
Back
SplineSet
146 327 m 1
 146 62 l 1
 529 62 l 2
 557 62 568 49 568 29 c 0
 568 6 552 0 529 0 c 2
 113 0 l 2
 90 0 84 18 84 40 c 2
 84 596 l 2
 84 625 96 636 113 636 c 2
 529 636 l 2
 557 636 568 623 568 603 c 0
 568 580 552 574 529 574 c 2
 146 574 l 1
 146 389 l 1
 408 389 l 2
 439 389 451 376 451 356 c 0
 451 333 433 327 408 327 c 2
 146 327 l 1
305 743 m 0
 305 715 271 697 249 697 c 0
 225 697 193 715 193 743 c 0
 193 771 227 789 249 789 c 0
 270 789 305 771 305 743 c 0
451 743 m 0
 451 715 417 697 395 697 c 0
 371 697 339 715 339 743 c 0
 339 771 373 789 395 789 c 0
 416 789 451 771 451 743 c 0
EndSplineSet
Fore
Refer: 332 776 S 1 0 0 1 630 197 2
Refer: 38 69 N 1 0 0 1 0 0 3
Validated: 1
EndChar

StartChar: Igrave
Encoding: 204 204 139
Width: 230
Flags: HW
HStem: -7 21<99.5 130.5> 623 20<99.5 130.5> 678 141
VStem: 3 142 84 62<-6.12109 642.097>
LayerCount: 2
Back
SplineSet
146 29 m 2xc8
 146 12 140 -7 114 -7 c 0
 102 -7 84 -1 84 29 c 2
 84 606 l 2
 84 637 103 643 115 643 c 0
 127 643 146 637 146 606 c 2
 146 29 l 2xc8
63 805 m 2x30
 133 736 l 2
 141 727 146 719 146 708 c 0
 146 695 134 679 116 679 c 0
 106 679 96 684 87 694 c 2
 18 762 l 2
 10 771 4 779 4 790 c 0
 4 803 19 820 35 820 c 0
 41 820 50 818 63 805 c 2x30
EndSplineSet
Fore
Refer: 325 768 S 1 0 0 1 383 178 2
Refer: 42 73 N 1 0 0 1 0 0 3
Validated: 1
EndChar

StartChar: Iacute
Encoding: 205 205 140
Width: 230
Flags: HW
HStem: -7 21<99.5 130.5> 623 20<99.5 130.5> 678 141
VStem: 84 62<-6.12109 642.097> 84 142
LayerCount: 2
Back
SplineSet
146 29 m 2xd0
 146 12 140 -7 114 -7 c 0
 102 -7 84 -1 84 29 c 2
 84 606 l 2
 84 637 103 643 115 643 c 0
 127 643 146 637 146 606 c 2
 146 29 l 2xd0
168 805 m 2x28
 181 818 190 820 196 820 c 0
 212 820 227 803 227 790 c 0
 227 779 221 771 213 762 c 2
 144 694 l 2
 135 684 125 679 115 679 c 0
 97 679 85 695 85 708 c 0
 85 719 90 727 98 736 c 2
 168 805 l 2x28
EndSplineSet
Fore
Refer: 326 769 N 1 0 0 1 464 178 2
Refer: 42 73 N 1 0 0 1 0 0 3
Validated: 1
EndChar

StartChar: Icircumflex
Encoding: 206 206 141
Width: 230
Flags: HW
HStem: -7 21<99.5 130.5> 623 20<99.5 130.5> 646 173
VStem: -30 293<646 688> 84 62<-6.12109 642.097>
LayerCount: 2
Back
SplineSet
146 29 m 2xc8
 146 12 140 -7 114 -7 c 0
 102 -7 84 -1 84 29 c 2
 84 606 l 2
 84 637 103 643 115 643 c 0
 127 643 146 637 146 606 c 2
 146 29 l 2xc8
-23 695 m 2x30
 84 819 l 1
 147 819 l 1
 256 695 l 2
 259 692 263 682 263 674 c 0
 263 665 259 646 235 646 c 0
 218 646 212 659 203 668 c 2
 116 750 l 1
 30 668 l 2
 21 659 15 646 -2 646 c 0
 -26 646 -30 665 -30 674 c 0
 -30 682 -26 692 -23 695 c 2x30
EndSplineSet
Fore
Refer: 327 770 N 1 0 0 1 418 141 2
Refer: 42 73 N 1 0 0 1 0 0 3
Validated: 1
EndChar

StartChar: Idieresis
Encoding: 207 207 142
Width: 230
Flags: HW
HStem: -7 21<99.5 130.5> 623 20<99.5 130.5> 697 92<-24.6488 69.4429 161.351 255.443>
VStem: -33 112<708.087 777.135> 84 62<-6.12109 642.097> 153 112<708.087 777.135>
LayerCount: 2
Back
SplineSet
146 29 m 2xc8
 146 12 140 -7 114 -7 c 0
 102 -7 84 -1 84 29 c 2
 84 606 l 2
 84 637 103 643 115 643 c 0
 127 643 146 637 146 606 c 2
 146 29 l 2xc8
99 743 m 0x34
 99 715 65 697 43 697 c 0
 19 697 -13 715 -13 743 c 0
 -13 771 21 789 43 789 c 0
 64 789 99 771 99 743 c 0x34
245 743 m 0
 245 715 211 697 189 697 c 0
 165 697 133 715 133 743 c 0
 133 771 167 789 189 789 c 0
 210 789 245 771 245 743 c 0
EndSplineSet
Fore
Refer: 332 776 N 1 0 0 1 424 197 2
Refer: 42 73 N 1 0 0 1 0 0 3
Validated: 1
EndChar

StartChar: Eth
Encoding: 208 208 143
Width: 639
Flags: HW
HStem: 0 62<146 472.669> 293 63<48.3008 84 146 277.848> 574 62<146 473.432>
VStem: 84 62<62 293 356 574> 506 62<95.7427 541.967>
LayerCount: 2
Fore
SplineSet
506 183 m 2,0,-1
 506 453 l 2,1,2
 506 532 506 532 472 553 c 128,-1,3
 438 574 438 574 343 574 c 2,4,-1
 146 574 l 1,5,-1
 146 356 l 1,6,-1
 240 356 l 2,7,8
 279 356 279 356 279 324 c 0,9,10
 279 293 279 293 242 293 c 0,11,12
 241 293 241 293 240 293 c 2,13,-1
 146 293 l 1,14,-1
 146 62 l 1,15,-1
 331 62 l 2,16,17
 435 62 435 62 470.5 83 c 128,-1,18
 506 104 506 104 506 183 c 2,0,-1
568 454 m 2,19,-1
 568 182 l 2,20,21
 568 73 568 73 512 36.5 c 128,-1,22
 456 0 456 0 331 0 c 2,23,-1
 113 0 l 2,24,25
 84 0 84 0 84 40 c 2,26,-1
 84 293 l 1,27,28
 47 293 47 293 47 326 c 0,29,30
 47 356 47 356 84 356 c 1,31,-1
 84 596 l 2,32,33
 84 636 84 636 113 636 c 2,34,-1
 343 636 l 2,35,36
 459 636 459 636 513.5 599 c 128,-1,37
 568 562 568 562 568 454 c 2,19,-1
EndSplineSet
Validated: 1
EndChar

StartChar: Ntilde
Encoding: 209 209 144
Width: 652
Flags: HW
HStem: -7 21<99.5 130.5 529.5 553> 623 20<98.5 123 521.5 552.5> 696 67<319.359 406.346> 736 67<242.565 329.641>
VStem: 84 62<-6.07227 530> 179 291<738.656 760.344> 506 62<107 641.999>
LayerCount: 2
Back
SplineSet
538 -7 m 0xca
 524 -7 517 -3 514 0 c 2
 146 530 l 1
 146 29 l 2
 146 9 140 -7 115 -7 c 0
 96 -7 84 4 84 31 c 2
 84 604 l 2
 84 624 90 643 113 643 c 0
 127 643 137 637 147 622 c 2
 506 107 l 1
 506 602 l 2
 506 638 524 643 536 643 c 0
 555 643 568 633 568 604 c 2
 568 31 l 2
 568 11 562 -7 538 -7 c 0xca
371 765 m 2x14
 376 763 377 763 379 763 c 0x24
 380 763 382 763 384 765 c 2
 415 793 l 2
 422 800 430 803 440 803 c 0x14
 453 803 470 792 470 774 c 0
 470 762 464 752 454 744 c 2
 409 706 l 2
 402 701 394 696 386 696 c 0x24
 380 696 376 696 372 698 c 2
 278 734 l 2
 273 736 272 736 270 736 c 0x14
 269 736 267 736 265 734 c 2
 234 706 l 2
 227 699 219 696 209 696 c 0x24
 196 696 179 707 179 725 c 0
 179 737 185 747 195 755 c 2
 240 793 l 2
 247 798 255 803 263 803 c 0
 269 803 273 803 277 801 c 2
 371 765 l 2x14
EndSplineSet
Fore
Refer: 328 771 N 1 0 0 1 605 212 2
Refer: 47 78 N 1 0 0 1 0 0 3
Validated: 1
EndChar

StartChar: Ograve
Encoding: 210 210 145
Width: 614
Flags: HW
HStem: -9 62<206.13 407.437> 583 62<206.463 407.104> 678 141
VStem: 65 62<132.613 503.012> 195 142 487 62<132.613 503.012>
LayerCount: 2
Back
SplineSet
307 -9 m 0
 166 -9 65 78 65 229 c 2
 65 407 l 2
 65 558 166 645 307 645 c 0
 447 645 549 558 549 407 c 2
 549 229 l 2
 549 78 447 -9 307 -9 c 0
307 583 m 0
 189 583 127 516 127 405 c 2
 127 231 l 2
 127 119 189 53 307 53 c 0
 425 53 487 119 487 231 c 2
 487 405 l 2
 487 516 425 583 307 583 c 0
254 805 m 2
 324 736 l 2
 332 727 337 719 337 708 c 0
 337 695 325 679 307 679 c 0
 297 679 287 684 278 694 c 2
 209 762 l 2
 201 771 195 779 195 790 c 0
 195 803 210 820 226 820 c 0
 232 820 241 818 254 805 c 2
EndSplineSet
Fore
Refer: 325 768 S 1 0 0 1 575 178 2
Refer: 48 79 N 1 0 0 1 0 0 3
Validated: 1
EndChar

StartChar: Oacute
Encoding: 211 211 146
Width: 614
Flags: HW
HStem: -9 62<206.13 407.437> 583 62<206.463 407.104> 678 141
VStem: 65 62<132.613 503.012> 276 142 487 62<132.613 503.012>
LayerCount: 2
Back
SplineSet
307 -9 m 0
 166 -9 65 78 65 229 c 2
 65 407 l 2
 65 558 166 645 307 645 c 0
 447 645 549 558 549 407 c 2
 549 229 l 2
 549 78 447 -9 307 -9 c 0
307 583 m 0
 189 583 127 516 127 405 c 2
 127 231 l 2
 127 119 189 53 307 53 c 0
 425 53 487 119 487 231 c 2
 487 405 l 2
 487 516 425 583 307 583 c 0
359 805 m 2
 372 818 381 820 387 820 c 0
 403 820 418 803 418 790 c 0
 418 779 412 771 404 762 c 2
 335 694 l 2
 326 684 316 679 306 679 c 0
 288 679 276 695 276 708 c 0
 276 719 281 727 289 736 c 2
 359 805 l 2
EndSplineSet
Fore
Refer: 326 769 S 1 0 0 1 656 178 2
Refer: 48 79 N 1 0 0 1 0 0 3
Validated: 1
EndChar

StartChar: Ocircumflex
Encoding: 212 212 147
Width: 614
Flags: HW
HStem: -9 62<206.13 407.437> 583 62<206.463 407.104> 646 173
VStem: 65 62<132.613 503.012> 161 293<646 688> 487 62<132.613 503.012>
LayerCount: 2
Back
SplineSet
307 -9 m 0
 166 -9 65 78 65 229 c 2
 65 407 l 2
 65 558 166 645 307 645 c 0
 447 645 549 558 549 407 c 2
 549 229 l 2
 549 78 447 -9 307 -9 c 0
307 583 m 0
 189 583 127 516 127 405 c 2
 127 231 l 2
 127 119 189 53 307 53 c 0
 425 53 487 119 487 231 c 2
 487 405 l 2
 487 516 425 583 307 583 c 0
168 695 m 2
 275 819 l 1
 338 819 l 1
 447 695 l 2
 450 692 454 682 454 674 c 0
 454 665 450 646 426 646 c 0
 409 646 403 659 394 668 c 2
 307 750 l 1
 221 668 l 2
 212 659 206 646 189 646 c 0
 165 646 161 665 161 674 c 0
 161 682 165 692 168 695 c 2
EndSplineSet
Fore
Refer: 327 770 S 1 0 0 1 609 141 2
Refer: 48 79 N 1 0 0 1 0 0 3
Validated: 1
EndChar

StartChar: Otilde
Encoding: 213 213 148
Width: 614
Flags: HW
HStem: -9 62<206.13 407.437> 583 62<206.463 407.104> 696 67<301.359 388.346> 736 67<224.565 311.641>
VStem: 65 62<132.613 503.012> 161 291<738.656 760.344> 487 62<132.613 503.012>
LayerCount: 2
Back
SplineSet
307 -9 m 0xca
 166 -9 65 78 65 229 c 2
 65 407 l 2
 65 558 166 645 307 645 c 0
 447 645 549 558 549 407 c 2
 549 229 l 2
 549 78 447 -9 307 -9 c 0xca
307 583 m 0
 189 583 127 516 127 405 c 2
 127 231 l 2
 127 119 189 53 307 53 c 0
 425 53 487 119 487 231 c 2
 487 405 l 2
 487 516 425 583 307 583 c 0
353 765 m 2x14
 358 763 359 763 361 763 c 0x24
 362 763 364 763 366 765 c 2
 397 793 l 2
 404 800 412 803 422 803 c 0x14
 435 803 452 792 452 774 c 0
 452 762 446 752 436 744 c 2
 391 706 l 2
 384 701 376 696 368 696 c 0x24
 362 696 358 696 354 698 c 2
 260 734 l 2
 255 736 254 736 252 736 c 0x14
 251 736 249 736 247 734 c 2
 216 706 l 2
 209 699 201 696 191 696 c 0x24
 178 696 161 707 161 725 c 0
 161 737 167 747 177 755 c 2
 222 793 l 2
 229 798 237 803 245 803 c 0
 251 803 255 803 259 801 c 2
 353 765 l 2x14
EndSplineSet
Fore
Refer: 328 771 N 1 0 0 1 587 212 2
Refer: 48 79 N 1 0 0 1 0 0 3
Validated: 1
EndChar

StartChar: Odieresis
Encoding: 214 214 149
Width: 614
Flags: HW
HStem: -9 62<206.13 407.437> 583 62<206.463 407.104> 697 92<167.351 261.443 353.351 447.443>
VStem: 65 62<132.613 503.012> 159 112<708.087 777.135> 345 112<708.087 777.135> 487 62<132.613 503.012>
LayerCount: 2
Back
SplineSet
307 -9 m 0
 166 -9 65 78 65 229 c 2
 65 407 l 2
 65 558 166 645 307 645 c 0
 447 645 549 558 549 407 c 2
 549 229 l 2
 549 78 447 -9 307 -9 c 0
307 583 m 0
 189 583 127 516 127 405 c 2
 127 231 l 2
 127 119 189 53 307 53 c 0
 425 53 487 119 487 231 c 2
 487 405 l 2
 487 516 425 583 307 583 c 0
291 743 m 0
 291 715 257 697 235 697 c 0
 211 697 179 715 179 743 c 0
 179 771 213 789 235 789 c 0
 256 789 291 771 291 743 c 0
437 743 m 0
 437 715 403 697 381 697 c 0
 357 697 325 715 325 743 c 0
 325 771 359 789 381 789 c 0
 402 789 437 771 437 743 c 0
EndSplineSet
Fore
Refer: 332 776 S 1 0 0 1 616 197 2
Refer: 48 79 N 1 0 0 1 0 0 3
Validated: 1
EndChar

StartChar: multiply
Encoding: 215 215 150
Width: 502
Flags: W
LayerCount: 2
Fore
SplineSet
416 109 m 2,0,1
 429 96 429 96 429 83.5 c 128,-1,2
 429 71 429 71 419 61.5 c 128,-1,3
 409 52 409 52 397 52 c 128,-1,4
 385 52 385 52 372 65 c 2,5,-1
 250 187 l 1,6,-1
 123 60 l 2,7,8
 111 47 111 47 97.5 47 c 128,-1,9
 84 47 84 47 75 55 c 128,-1,10
 66 63 66 63 66 76 c 128,-1,11
 66 89 66 89 81 102 c 1,12,-1
 208 229 l 1,13,-1
 86 351 l 2,14,15
 74 363 74 363 74 376 c 128,-1,16
 74 389 74 389 83 398.5 c 128,-1,17
 92 408 92 408 104.5 408 c 128,-1,18
 117 408 117 408 130 395 c 2,19,-1
 252 273 l 1,20,-1
 379 400 l 1,21,22
 391 414 391 414 404.5 414 c 128,-1,23
 418 414 418 414 426.5 405 c 128,-1,24
 435 396 435 396 435 384 c 128,-1,25
 435 372 435 372 421 358 c 2,26,-1
 294 231 l 1,27,-1
 416 109 l 2,0,1
EndSplineSet
Validated: 1
EndChar

StartChar: Oslash
Encoding: 216 216 151
Width: 614
Flags: HW
HStem: -9 62<208.05 408.018> 583 62<206.048 406.847>
VStem: 65 62<149.968 503.012> 487 62<132.613 484.842>
AnchorPoint: "top" 307 678 basechar 0
AnchorPoint: "bottom" 307 0 basechar 0
LayerCount: 2
Fore
SplineSet
437 540 m 1,0,1
 389 583 389 583 304.5 583 c 128,-1,2
 220 583 220 583 173.5 536 c 128,-1,3
 127 489 127 489 127 405 c 2,4,-1
 127 231 l 2,5,6
 127 185 127 185 141 148 c 1,7,-1
 437 540 l 1,0,1
493 615 m 2,8,9
 506 632 506 632 519.5 632 c 128,-1,10
 533 632 533 632 542.5 623 c 128,-1,11
 552 614 552 614 552 602.5 c 128,-1,12
 552 591 552 591 542 577 c 2,13,-1
 515 541 l 1,14,15
 549 484 549 484 549 407 c 2,16,-1
 549 229 l 2,17,18
 549 118 549 118 481.5 54.5 c 128,-1,19
 414 -9 414 -9 310 -9 c 128,-1,20
 206 -9 206 -9 142 46 c 1,21,-1
 123 21 l 2,22,23
 110 4 110 4 97 4 c 128,-1,24
 84 4 84 4 73.5 12.5 c 128,-1,25
 63 21 63 21 63 32.5 c 128,-1,26
 63 44 63 44 73 58 c 2,27,-1
 100 94 l 1,28,29
 65 151 65 151 65 229 c 2,30,-1
 65 407 l 2,31,32
 65 518 65 518 132 581.5 c 128,-1,33
 199 645 199 645 304 645 c 128,-1,34
 409 645 409 645 473 589 c 1,35,-1
 493 615 l 2,8,9
473 486 m 1,36,-1
 178 95 l 1,37,38
 226 53 226 53 310.5 53 c 128,-1,39
 395 53 395 53 441 99.5 c 128,-1,40
 487 146 487 146 487 231 c 2,41,-1
 487 405 l 2,42,43
 487 449 487 449 473 486 c 1,36,-1
EndSplineSet
Validated: 1
EndChar

StartChar: Ugrave
Encoding: 217 217 152
Width: 640
Flags: HW
HStem: -10 63<219.526 421.148> 623 20<93.5 124.5 515.5 546.5> 626 188
VStem: 78 62<132.496 642.097> 209 165 500 62<132.496 642.097>
LayerCount: 2
Back
SplineSet
500 607 m 2xd4
 500 636 518 643 532 643 c 0
 544 643 562 637 562 606 c 2
 562 229 l 2
 562 78 460 -9 320 -9 c 0
 179 -9 78 78 78 229 c 2
 78 606 l 2
 78 637 97 643 109 643 c 0
 123 643 140 636 140 607 c 2
 140 231 l 2
 140 119 202 53 320 53 c 0
 438 53 500 119 500 231 c 2
 500 607 l 2xd4
268 797 m 2x28
 364 682 l 2
 370 675 374 666 374 656 c 0
 374 638 357 626 344 626 c 0
 334 626 325 632 315 643 c 2
 219 758 l 2
 212 766 209 775 209 783 c 0
 209 802 225 814 239 814 c 0
 249 814 258 808 268 797 c 2x28
EndSplineSet
Fore
Refer: 65 96 S 1 0 0 1 185 126 2
Refer: 54 85 N 1 0 0 1 0 0 3
Validated: 1
EndChar

StartChar: Uacute
Encoding: 218 218 153
Width: 640
Flags: HW
HStem: -10 63<219.526 421.148> 623 20<93.5 124.5 515.5 546.5> 626 188
VStem: 78 62<132.496 642.097> 290 165 500 62<132.496 642.097>
LayerCount: 2
Back
SplineSet
500 607 m 2xd4
 500 636 518 643 532 643 c 0
 544 643 562 637 562 606 c 2
 562 229 l 2
 562 78 460 -9 320 -9 c 0
 179 -9 78 78 78 229 c 2
 78 606 l 2
 78 637 97 643 109 643 c 0
 123 643 140 636 140 607 c 2
 140 231 l 2
 140 119 202 53 320 53 c 0
 438 53 500 119 500 231 c 2
 500 607 l 2xd4
349 643 m 2x28
 339 632 330 626 320 626 c 0
 308 626 290 638 290 656 c 0
 290 666 294 675 300 682 c 2
 396 797 l 2
 406 808 415 814 425 814 c 0
 439 814 455 802 455 783 c 0
 455 775 452 766 445 758 c 2
 349 643 l 2x28
EndSplineSet
Fore
Refer: 115 180 S 1 0 0 1 266 126 2
Refer: 54 85 N 1 0 0 1 0 0 3
Validated: 1
EndChar

StartChar: Ucircumflex
Encoding: 219 219 154
Width: 640
Flags: HW
HStem: -10 63<219.526 421.148> 623 20<93.5 124.5 515.5 546.5> 646 173
VStem: 78 62<132.496 642.097> 174 293<646 688> 500 62<132.496 642.097>
LayerCount: 2
Back
SplineSet
500 607 m 2
 500 636 518 643 532 643 c 0
 544 643 562 637 562 606 c 2
 562 229 l 2
 562 78 460 -9 320 -9 c 0
 179 -9 78 78 78 229 c 2
 78 606 l 2
 78 637 97 643 109 643 c 0
 123 643 140 636 140 607 c 2
 140 231 l 2
 140 119 202 53 320 53 c 0
 438 53 500 119 500 231 c 2
 500 607 l 2
181 695 m 2
 288 819 l 1
 351 819 l 1
 460 695 l 2
 463 692 467 682 467 674 c 0
 467 665 463 646 439 646 c 0
 422 646 416 659 407 668 c 2
 320 750 l 1
 234 668 l 2
 225 659 219 646 202 646 c 0
 178 646 174 665 174 674 c 0
 174 682 178 692 181 695 c 2
EndSplineSet
Fore
Refer: 327 770 S 1 0 0 1 622 141 2
Refer: 54 85 N 1 0 0 1 0 0 3
Validated: 1
EndChar

StartChar: Udieresis
Encoding: 220 220 155
Width: 640
Flags: HW
HStem: -10 63<219.526 421.148> 623 20<93.5 124.5 515.5 546.5> 697 92<180.351 274.443 366.351 460.443>
VStem: 78 62<132.496 642.097> 172 112<708.087 777.135> 358 112<708.087 777.135> 500 62<132.496 642.097>
LayerCount: 2
Back
SplineSet
500 607 m 2
 500 636 518 643 532 643 c 0
 544 643 562 637 562 606 c 2
 562 229 l 2
 562 78 460 -9 320 -9 c 0
 179 -9 78 78 78 229 c 2
 78 606 l 2
 78 637 97 643 109 643 c 0
 123 643 140 636 140 607 c 2
 140 231 l 2
 140 119 202 53 320 53 c 0
 438 53 500 119 500 231 c 2
 500 607 l 2
304 743 m 0
 304 715 270 697 248 697 c 0
 224 697 192 715 192 743 c 0
 192 771 226 789 248 789 c 0
 269 789 304 771 304 743 c 0
450 743 m 0
 450 715 416 697 394 697 c 0
 370 697 338 715 338 743 c 0
 338 771 372 789 394 789 c 0
 415 789 450 771 450 743 c 0
EndSplineSet
Fore
Refer: 332 776 S 1 0 0 1 629 197 2
Refer: 54 85 N 1 0 0 1 0 0 3
Validated: 1
EndChar

StartChar: Yacute
Encoding: 221 221 156
Width: 541
Flags: HW
HStem: -7 21<254 286> 623 20<42 54 485 497> 626 188
VStem: 238 65<-5.76953 307> 240 165
LayerCount: 2
Back
SplineSet
238 307 m 1xd0
 26 590 l 2
 22 596 17 604 17 613 c 0
 17 631 34 643 47 643 c 0
 59 643 68 634 76 623 c 2
 270 362 l 1
 463 623 l 2
 476 639 486 643 493 643 c 0
 505 643 523 631 523 613 c 0
 523 604 518 596 514 590 c 2
 303 307 l 1
 303 28 l 2
 303 11 296 -7 270 -7 c 0
 256 -7 238 0 238 28 c 2
 238 307 l 1xd0
299 643 m 2x28
 289 632 280 626 270 626 c 0
 258 626 240 638 240 656 c 0
 240 666 244 675 250 682 c 2
 346 797 l 2
 356 808 365 814 375 814 c 0
 389 814 405 802 405 783 c 0
 405 775 402 766 395 758 c 2
 299 643 l 2x28
EndSplineSet
Fore
Refer: 115 180 N 1 0 0 1 216 126 2
Refer: 58 89 N 1 0 0 1 0 0 3
Validated: 1
EndChar

StartChar: Thorn
Encoding: 222 222 157
Width: 540
Flags: HW
HStem: -7 21G<99.5 130.5> 157 56<146 411.563> 409 62<146 409.737>
VStem: 84 62<-6.09668 157 213 409 471 610.072> 442 63<241.269 379.222>
LayerCount: 2
Fore
SplineSet
146 471 m 1,0,-1
 323 471 l 2,1,2
 409 471 409 471 457 431 c 0,3,4
 505 390 505 390 505 314 c 128,-1,5
 505 238 505 238 457 197.5 c 128,-1,6
 409 157 409 157 322 157 c 2,7,-1
 146 157 l 1,8,-1
 146 30 l 2,9,10
 146 -7 146 -7 115 -7 c 128,-1,11
 84 -7 84 -7 84 30 c 2,12,-1
 84 573 l 2,13,14
 84 611 84 611 115 611 c 128,-1,15
 146 611 146 611 146 573 c 2,16,-1
 146 471 l 1,0,-1
275 409 m 2,17,-1
 146 409 l 1,18,-1
 146 213 l 1,19,-1
 274 213 l 2,20,21
 372 213 372 213 407 232 c 0,22,23
 442 250 442 250 442 310 c 128,-1,24
 442 370 442 370 406 389.5 c 128,-1,25
 370 409 370 409 275 409 c 2,17,-1
EndSplineSet
Validated: 1
EndChar

StartChar: germandbls
Encoding: 223 223 158
Width: 485
Flags: HW
HStem: -20 62<239.46 349.735> -7 21G<77.5 108.5> 347 59<164 267.906> 574 62<148.098 297.734>
VStem: 32 93<403.284 459.262> 63 62<-5.55859 409.808 452.855 550.25> 152 70<55.4104 135.308> 316 62<448.779 558.047> 384 62<81.5259 273.562>
LayerCount: 2
Fore
SplineSet
164 347 m 1,0,-1
 164 406 l 1,1,2
 316 406 316 406 316 517 c 0,3,4
 316 543 316 543 294.5 558.5 c 128,-1,5
 273 574 273 574 224 574 c 128,-1,6
 175 574 175 574 150 553.5 c 128,-1,7
 125 533 125 533 125 461 c 2,8,-1
 125 34 l 2,9,10
 125 -7 125 -7 92 -7 c 0,11,12
 63 -7 63 -7 63 33 c 2,13,-1
 63 402 l 1,14,15
 32 404 32 404 32 433 c 0,16,17
 32 457 32 457 63 461 c 1,18,19
 68 568 68 568 120 604 c 0,20,21
 166 636 166 636 235.5 636 c 128,-1,22
 305 636 305 636 341.5 600 c 128,-1,23
 378 564 378 564 378 515 c 0,24,25
 378 431 378 431 310 382 c 1,26,27
 446 339 446 339 446 197 c 0,28,29
 446 66 446 66 390 20 c 0,30,31
 343 -20 343 -20 291 -20 c 128,-1,32
 239 -20 239 -20 195.5 10.5 c 128,-1,33
 152 41 152 41 152 96 c 0,34,35
 152 137 152 137 187 137 c 128,-1,36
 222 137 222 137 222 98 c 0,37,38
 222 68 222 68 244.5 55 c 128,-1,39
 267 42 267 42 297 42 c 0,40,41
 384 42 384 42 384 199 c 0,42,43
 384 273 384 273 322 312 c 0,44,45
 268 347 268 347 164 347 c 1,0,-1
EndSplineSet
Validated: 8388609
EndChar

StartChar: agrave
Encoding: 224 224 159
Width: 573
Flags: HW
HStem: 0 62<135.076 368.18> 238 62<155.025 440> 399 62<142.158 429.167> 497 188
VStem: 60 62<74.2539 207.003 304.977 377.706> 170 165 440 62<-6.02344 56 133.49 238 300 388.168>
LayerCount: 2
Back
SplineSet
298 238 m 2
 166 238 122 228 122 121 c 0
 122 89 149 62 172 62 c 2
 265 62 l 2
 407 62 440 146 440 228 c 2
 440 238 l 1
 298 238 l 2
298 300 m 2
 440 300 l 1
 440 350 l 2
 440 386 430 399 390 399 c 2
 249 399 l 2
 151 399 122 377 122 344 c 0
 122 321 116 304 90 304 c 0
 78 304 60 310 60 344 c 0
 60 429 137 461 242 461 c 2
 397 461 l 2
 481 461 502 423 502 333 c 2
 502 31 l 2
 502 4 490 -7 471 -7 c 0
 446 -7 440 13 440 33 c 2
 440 56 l 1
 399 17 335 0 265 0 c 2
 172 0 l 2
 108 0 60 48 60 126 c 0
 60 270 147 300 298 300 c 2
229 668 m 2
 325 553 l 2
 331 546 335 537 335 527 c 0
 335 509 318 497 305 497 c 0
 295 497 286 503 276 514 c 2
 180 629 l 2
 173 637 170 646 170 654 c 0
 170 673 186 685 200 685 c 0
 210 685 219 679 229 668 c 2
EndSplineSet
Fore
Refer: 65 96 S 1 0 0 1 146 -3 2
Refer: 66 97 N 1 0 0 1 0 0 3
Validated: 1
EndChar

StartChar: aacute
Encoding: 225 225 160
Width: 573
Flags: HW
HStem: 0 62<135.076 368.18> 238 62<155.025 440> 399 62<142.158 429.167> 500 188
VStem: 60 62<74.2539 207.003 304.977 377.706> 251 165 440 62<-6.02344 56 133.49 238 300 388.168>
LayerCount: 2
Back
SplineSet
298 238 m 2
 166 238 122 228 122 121 c 0
 122 89 149 62 172 62 c 2
 265 62 l 2
 407 62 440 146 440 228 c 2
 440 238 l 1
 298 238 l 2
298 300 m 2
 440 300 l 1
 440 350 l 2
 440 386 430 399 390 399 c 2
 249 399 l 2
 151 399 122 377 122 344 c 0
 122 321 116 304 90 304 c 0
 78 304 60 310 60 344 c 0
 60 429 137 461 242 461 c 2
 397 461 l 2
 481 461 502 423 502 333 c 2
 502 31 l 2
 502 4 490 -7 471 -7 c 0
 446 -7 440 13 440 33 c 2
 440 56 l 1
 399 17 335 0 265 0 c 2
 172 0 l 2
 108 0 60 48 60 126 c 0
 60 270 147 300 298 300 c 2
310 517 m 2
 300 506 291 500 281 500 c 0
 269 500 251 512 251 530 c 0
 251 540 255 549 261 556 c 2
 357 671 l 2
 367 682 376 688 386 688 c 0
 400 688 416 676 416 657 c 0
 416 649 413 640 406 632 c 2
 310 517 l 2
EndSplineSet
Fore
Refer: 115 180 S 1 0 0 1 227 0 2
Refer: 66 97 N 1 0 0 1 0 0 3
Validated: 1
EndChar

StartChar: acircumflex
Encoding: 226 226 161
Width: 573
Flags: HW
HStem: 0 62<135.076 368.18> 238 62<155.025 440> 399 62<142.158 429.167> 517 173
VStem: 60 62<74.2539 207.003 304.977 377.706> 135 293<517 559> 440 62<-6.02344 56 133.49 238 300 388.168>
LayerCount: 2
Back
SplineSet
298 238 m 2
 166 238 122 228 122 121 c 0
 122 89 149 62 172 62 c 2
 265 62 l 2
 407 62 440 146 440 228 c 2
 440 238 l 1
 298 238 l 2
298 300 m 2
 440 300 l 1
 440 350 l 2
 440 386 430 399 390 399 c 2
 249 399 l 2
 151 399 122 377 122 344 c 0
 122 321 116 304 90 304 c 0
 78 304 60 310 60 344 c 0
 60 429 137 461 242 461 c 2
 397 461 l 2
 481 461 502 423 502 333 c 2
 502 31 l 2
 502 4 490 -7 471 -7 c 0
 446 -7 440 13 440 33 c 2
 440 56 l 1
 399 17 335 0 265 0 c 2
 172 0 l 2
 108 0 60 48 60 126 c 0
 60 270 147 300 298 300 c 2
142 566 m 2
 249 690 l 1
 312 690 l 1
 421 566 l 2
 424 563 428 553 428 545 c 0
 428 536 424 517 400 517 c 0
 383 517 377 530 368 539 c 2
 281 621 l 1
 195 539 l 2
 186 530 180 517 163 517 c 0
 139 517 135 536 135 545 c 0
 135 553 139 563 142 566 c 2
EndSplineSet
Fore
Refer: 327 770 S 1 0 0 1 583 12 2
Refer: 66 97 N 1 0 0 1 0 0 3
Validated: 1
EndChar

StartChar: atilde
Encoding: 227 227 162
Width: 573
Flags: HW
HStem: 0 62<135.076 368.18> 238 62<155.025 440> 399 62<142.158 429.167> 512 67<276.359 363.346> 552 67<199.565 286.641>
VStem: 60 62<74.2539 207.003 304.977 377.706> 136 291<554.656 576.344> 440 62<-6.02344 56 133.49 238 300 388.168>
LayerCount: 2
Back
SplineSet
298 238 m 2xe5
 166 238 122 228 122 121 c 0
 122 89 149 62 172 62 c 2
 265 62 l 2
 407 62 440 146 440 228 c 2
 440 238 l 1
 298 238 l 2xe5
298 300 m 2
 440 300 l 1
 440 350 l 2
 440 386 430 399 390 399 c 2
 249 399 l 2
 151 399 122 377 122 344 c 0
 122 321 116 304 90 304 c 0
 78 304 60 310 60 344 c 0
 60 429 137 461 242 461 c 2
 397 461 l 2
 481 461 502 423 502 333 c 2
 502 31 l 2
 502 4 490 -7 471 -7 c 0
 446 -7 440 13 440 33 c 2
 440 56 l 1
 399 17 335 0 265 0 c 2
 172 0 l 2
 108 0 60 48 60 126 c 0
 60 270 147 300 298 300 c 2
328 581 m 2x0a
 333 579 334 579 336 579 c 0x12
 337 579 339 579 341 581 c 2
 372 609 l 2
 379 616 387 619 397 619 c 0x0a
 410 619 427 608 427 590 c 0
 427 578 421 568 411 560 c 2
 366 522 l 2
 359 517 351 512 343 512 c 0x12
 337 512 333 512 329 514 c 2
 235 550 l 2
 230 552 229 552 227 552 c 0x0a
 226 552 224 552 222 550 c 2
 191 522 l 2
 184 515 176 512 166 512 c 0x12
 153 512 136 523 136 541 c 0
 136 553 142 563 152 571 c 2
 197 609 l 2
 204 614 212 619 220 619 c 0
 226 619 230 619 234 617 c 2
 328 581 l 2x0a
EndSplineSet
Fore
Refer: 328 771 S 1 0 0 1 562 28 2
Refer: 66 97 N 1 0 0 1 0 0 3
Validated: 1
EndChar

StartChar: adieresis
Encoding: 228 228 163
Width: 573
Flags: HW
HStem: 0 62<135.076 368.18> 238 62<155.025 440> 399 62<142.158 429.167> 512 92<140.351 234.443 326.351 420.443>
VStem: 60 62<74.2539 207.003 304.977 377.706> 132 112<523.087 592.135> 318 112<523.087 592.135> 440 62<-6.02344 56 133.49 238 300 388.168>
LayerCount: 2
Back
SplineSet
298 238 m 2
 166 238 122 228 122 121 c 0
 122 89 149 62 172 62 c 2
 265 62 l 2
 407 62 440 146 440 228 c 2
 440 238 l 1
 298 238 l 2
298 300 m 2
 440 300 l 1
 440 350 l 2
 440 386 430 399 390 399 c 2
 249 399 l 2
 151 399 122 377 122 344 c 0
 122 321 116 304 90 304 c 0
 78 304 60 310 60 344 c 0
 60 429 137 461 242 461 c 2
 397 461 l 2
 481 461 502 423 502 333 c 2
 502 31 l 2
 502 4 490 -7 471 -7 c 0
 446 -7 440 13 440 33 c 2
 440 56 l 1
 399 17 335 0 265 0 c 2
 172 0 l 2
 108 0 60 48 60 126 c 0
 60 270 147 300 298 300 c 2
264 558 m 0
 264 530 230 512 208 512 c 0
 184 512 152 530 152 558 c 0
 152 586 186 604 208 604 c 0
 229 604 264 586 264 558 c 0
410 558 m 0
 410 530 376 512 354 512 c 0
 330 512 298 530 298 558 c 0
 298 586 332 604 354 604 c 0
 375 604 410 586 410 558 c 0
EndSplineSet
Fore
Refer: 332 776 S 1 0 0 1 589 12 2
Refer: 66 97 N 1 0 0 1 0 0 3
Validated: 1
EndChar

StartChar: aring
Encoding: 229 229 164
Width: 573
Flags: HW
HStem: 0 62<135.076 368.18> 238 62<155.025 440> 399 62<142.158 429.167> 512 44<251.574 312.426> 632 44<251.574 312.426>
VStem: 60 62<74.2539 207.003 304.977 377.706> 200 44<563.574 624.426> 320 44<563.574 624.426> 440 62<-6.02344 56 133.49 238 300 388.168>
LayerCount: 2
Back
SplineSet
298 238 m 2
 166 238 122 228 122 121 c 0
 122 89 149 62 172 62 c 2
 265 62 l 2
 407 62 440 146 440 228 c 2
 440 238 l 1
 298 238 l 2
298 300 m 2
 440 300 l 1
 440 350 l 2
 440 386 430 399 390 399 c 2
 249 399 l 2
 151 399 122 377 122 344 c 0
 122 321 116 304 90 304 c 0
 78 304 60 310 60 344 c 0
 60 429 137 461 242 461 c 2
 397 461 l 2
 481 461 502 423 502 333 c 2
 502 31 l 2
 502 4 490 -7 471 -7 c 0
 446 -7 440 13 440 33 c 2
 440 56 l 1
 399 17 335 0 265 0 c 2
 172 0 l 2
 108 0 60 48 60 126 c 0
 60 270 147 300 298 300 c 2
244 594 m 0
 244 573 261 556 282 556 c 0
 303 556 320 573 320 594 c 0
 320 615 303 632 282 632 c 0
 261 632 244 615 244 594 c 0
200 594 m 0
 200 639 237 676 282 676 c 0
 327 676 364 639 364 594 c 0
 364 549 327 512 282 512 c 0
 237 512 200 549 200 594 c 0
EndSplineSet
Fore
Refer: 334 778 N 1 0 0 1 589 12 2
Refer: 66 97 N 1 0 0 1 0 0 3
Validated: 1
EndChar

StartChar: ae
Encoding: 230 230 165
Width: 964
Flags: HW
HStem: 0 62<135.076 366.446 531.377 831.167> 238 62<154.538 432 497 842> 399 62<138.453 420.652 531.734 808.57>
VStem: 60 62<74.2539 207.188 304.977 381.528> 432 65<129.805 238 300 367.603> 842 62<74.8961 155.556 300 367.276>
AnchorPoint: "top" 484 510 basechar 0
AnchorPoint: "bottom" 459 0 basechar 0
LayerCount: 2
Fore
SplineSet
288 238 m 2,0,1
 190 238 190 238 156 217.5 c 128,-1,2
 122 197 122 197 122 121 c 0,3,4
 122 98 122 98 138 80 c 128,-1,5
 154 62 154 62 172 62 c 2,6,-1
 265 62 l 2,7,8
 358 62 358 62 396 109 c 128,-1,9
 434 156 434 156 434 228 c 1,10,-1
 432 238 l 1,11,-1
 288 238 l 2,0,1
677 399 m 2,12,-1
 669 399 l 2,13,14
 572 399 572 399 536 380.5 c 128,-1,15
 500 362 500 362 497 300 c 1,16,-1
 842 300 l 1,17,18
 839 362 839 362 804 380.5 c 128,-1,19
 769 399 769 399 677 399 c 2,12,-1
904 284 m 2,20,-1
 904 238 l 1,21,-1
 497 238 l 1,22,-1
 499 179 l 1,23,24
 499 103 499 103 533.5 82.5 c 128,-1,25
 568 62 568 62 669 62 c 2,26,-1
 792 62 l 2,27,28
 821 62 821 62 831.5 74.5 c 128,-1,29
 842 87 842 87 842 122 c 128,-1,30
 842 157 842 157 873 157 c 0,31,32
 904 156 904 156 904 110 c 128,-1,33
 904 64 904 64 883 32 c 128,-1,34
 862 0 862 0 799 0 c 2,35,-1
 669 0 l 2,36,37
 586 0 586 0 534.5 15.5 c 128,-1,38
 483 31 483 31 458 74 c 1,39,40
 427 39 427 39 370 19.5 c 128,-1,41
 313 0 313 0 265 0 c 2,42,-1
 172 0 l 2,43,44
 123 0 123 0 91.5 34.5 c 128,-1,45
 60 69 60 69 60 126 c 0,46,47
 60 227 60 227 116 263.5 c 128,-1,48
 172 300 172 300 288 300 c 2,49,-1
 432 300 l 1,50,-1
 432 350 l 2,51,52
 432 378 432 378 421 388.5 c 128,-1,53
 410 399 410 399 380 399 c 2,54,-1
 239 399 l 2,55,56
 122 399 122 399 122 344 c 0,57,58
 122 304 122 304 91 304 c 128,-1,59
 60 304 60 304 60 344 c 0,60,61
 60 404 60 404 107.5 432.5 c 128,-1,62
 155 461 155 461 232 461 c 2,63,-1
 387 461 l 2,64,65
 460 461 460 461 482 418 c 1,66,67
 532 461 532 461 669 461 c 2,68,-1
 677 461 l 2,69,70
 794 461 794 461 849 425 c 128,-1,71
 904 389 904 389 904 284 c 2,20,-1
EndSplineSet
Validated: 1
EndChar

StartChar: ccedilla
Encoding: 231 231 166
Width: 604
Flags: HW
HStem: -180 60<232.687 337.996> 0 62<156.852 274.188 332 473.167> 399 62<158.084 473.167>
VStem: 62 62<93.375 367.276> 338 62<-119.18 -73.4756> 484 62<74.8961 155.865 305.074 386.619>
LayerCount: 2
Fore
SplineSet
269 0 m 1,0,1
 161 3 161 3 111.5 40.5 c 128,-1,2
 62 78 62 78 62 177 c 2,3,-1
 62 284 l 2,4,5
 62 389 62 389 118.5 425 c 128,-1,6
 175 461 175 461 300 461 c 2,7,-1
 441 461 l 2,8,9
 508 461 508 461 529 423 c 0,10,11
 546 392 546 392 546 348 c 128,-1,12
 546 304 546 304 515 304 c 128,-1,13
 484 304 484 304 484 339.5 c 128,-1,14
 484 375 484 375 473.5 387 c 128,-1,15
 463 399 463 399 434 399 c 2,16,-1
 300 399 l 2,17,18
 194 399 194 399 159 378.5 c 128,-1,19
 124 358 124 358 124 282 c 2,20,-1
 124 179 l 2,21,22
 124 103 124 103 159 82.5 c 128,-1,23
 194 62 194 62 300 62 c 2,24,-1
 434 62 l 2,25,26
 463 62 463 62 473.5 74.5 c 128,-1,27
 484 87 484 87 484 122 c 128,-1,28
 484 157 484 157 515 157 c 128,-1,29
 546 157 546 157 546 110.5 c 128,-1,30
 546 64 546 64 525 32 c 128,-1,31
 504 0 504 0 441 0 c 2,32,-1
 332 0 l 1,33,34
 338 -18 338 -18 370 -38 c 0,35,36
 382 -45 382 -45 391 -59.5 c 128,-1,37
 400 -74 400 -74 400 -94 c 0,38,39
 400 -133 400 -133 370 -156.5 c 128,-1,40
 340 -180 340 -180 306 -180 c 128,-1,41
 272 -180 272 -180 243.5 -167 c 128,-1,42
 215 -154 215 -154 215 -125 c 0,43,44
 215 -114 215 -114 221 -108 c 128,-1,45
 227 -102 227 -102 236 -102 c 128,-1,46
 245 -102 245 -102 267 -111 c 0,47,48
 288 -120 288 -120 306 -120 c 0,49,50
 338 -120 338 -120 338 -99 c 0,51,52
 338 -90 338 -90 322 -78 c 0,53,54
 274 -44 274 -44 269 0 c 1,0,1
EndSplineSet
Validated: 1
EndChar

StartChar: egrave
Encoding: 232 232 167
Width: 626
Flags: HW
HStem: 0 62<158.084 493.167> 240 62<124 504> 399 62<155.7 472.379> 497 188
VStem: 62 62<93.7236 240 302 369.53> 201 165 504 62<74.8961 155.556 302 369.53>
LayerCount: 2
Back
SplineSet
566 284 m 2
 566 240 l 1
 124 240 l 1
 124 179 l 2
 124 72 168 62 300 62 c 2
 454 62 l 2
 494 62 504 77 504 119 c 0
 504 151 523 157 535 157 c 0
 554 157 566 146 566 116 c 0
 566 60 554 0 461 0 c 2
 300 0 l 2
 147 0 62 28 62 177 c 2
 62 284 l 2
 62 433 147 461 300 461 c 2
 329 461 l 2
 481 461 566 433 566 284 c 2
329 399 m 2
 300 399 l 2
 172 399 127 388 124 302 c 1
 504 302 l 1
 501 388 456 399 329 399 c 2
260 671 m 2
 356 556 l 2
 362 549 366 540 366 530 c 0
 366 512 349 500 336 500 c 0
 326 500 317 506 307 517 c 2
 211 632 l 2
 204 640 201 649 201 657 c 0
 201 676 217 688 231 688 c 0
 241 688 250 682 260 671 c 2
EndSplineSet
Fore
Refer: 65 96 S 1 0 0 1 177 -3 2
Refer: 70 101 N 1 0 0 1 0 0 3
Validated: 1
EndChar

StartChar: eacute
Encoding: 233 233 168
Width: 626
Flags: HW
HStem: 0 62<158.084 493.167> 240 62<124 504> 399 62<155.7 472.379> 500 188
VStem: 62 62<93.7236 240 302 369.53> 285 165 504 62<74.8961 155.556 302 369.53>
LayerCount: 2
Back
SplineSet
566 284 m 2
 566 240 l 1
 124 240 l 1
 124 179 l 2
 124 72 168 62 300 62 c 2
 454 62 l 2
 494 62 504 77 504 119 c 0
 504 151 523 157 535 157 c 0
 554 157 566 146 566 116 c 0
 566 60 554 0 461 0 c 2
 300 0 l 2
 147 0 62 28 62 177 c 2
 62 284 l 2
 62 433 147 461 300 461 c 2
 329 461 l 2
 481 461 566 433 566 284 c 2
329 399 m 2
 300 399 l 2
 172 399 127 388 124 302 c 1
 504 302 l 1
 501 388 456 399 329 399 c 2
344 517 m 2
 334 506 325 500 315 500 c 0
 303 500 285 512 285 530 c 0
 285 540 289 549 295 556 c 2
 391 671 l 2
 401 682 410 688 420 688 c 0
 434 688 450 676 450 657 c 0
 450 649 447 640 440 632 c 2
 344 517 l 2
EndSplineSet
Fore
Refer: 115 180 S 1 0 0 1 261 0 2
Refer: 70 101 N 1 0 0 1 0 0 3
Validated: 1
EndChar

StartChar: ecircumflex
Encoding: 234 234 169
Width: 626
Flags: HW
HStem: 0 62<158.084 493.167> 240 62<124 504> 399 62<155.7 472.379> 517 173
VStem: 62 62<93.7236 240 302 369.53> 168 293<517 559> 504 62<74.8961 155.556 302 369.53>
LayerCount: 2
Back
SplineSet
566 284 m 2
 566 240 l 1
 124 240 l 1
 124 179 l 2
 124 72 168 62 300 62 c 2
 454 62 l 2
 494 62 504 77 504 119 c 0
 504 151 523 157 535 157 c 0
 554 157 566 146 566 116 c 0
 566 60 554 0 461 0 c 2
 300 0 l 2
 147 0 62 28 62 177 c 2
 62 284 l 2
 62 433 147 461 300 461 c 2
 329 461 l 2
 481 461 566 433 566 284 c 2
329 399 m 2
 300 399 l 2
 172 399 127 388 124 302 c 1
 504 302 l 1
 501 388 456 399 329 399 c 2
175 566 m 2
 282 690 l 1
 345 690 l 1
 454 566 l 2
 457 563 461 553 461 545 c 0
 461 536 457 517 433 517 c 0
 416 517 410 530 401 539 c 2
 314 621 l 1
 228 539 l 2
 219 530 213 517 196 517 c 0
 172 517 168 536 168 545 c 0
 168 553 172 563 175 566 c 2
EndSplineSet
Fore
Refer: 327 770 S 1 0 0 1 616 12 2
Refer: 70 101 N 1 0 0 1 0 0 3
Validated: 1
EndChar

StartChar: edieresis
Encoding: 235 235 170
Width: 626
Flags: HW
HStem: 0 62<158.084 493.167> 240 62<124 504> 399 62<155.7 472.379> 512 92<174.351 268.443 360.351 454.443>
VStem: 62 62<93.7236 240 302 369.53> 166 112<523.087 592.135> 352 112<523.087 592.135> 504 62<74.8961 155.556 302 369.53>
LayerCount: 2
Back
SplineSet
566 284 m 2
 566 240 l 1
 124 240 l 1
 124 179 l 2
 124 72 168 62 300 62 c 2
 454 62 l 2
 494 62 504 77 504 119 c 0
 504 151 523 157 535 157 c 0
 554 157 566 146 566 116 c 0
 566 60 554 0 461 0 c 2
 300 0 l 2
 147 0 62 28 62 177 c 2
 62 284 l 2
 62 433 147 461 300 461 c 2
 329 461 l 2
 481 461 566 433 566 284 c 2
329 399 m 2
 300 399 l 2
 172 399 127 388 124 302 c 1
 504 302 l 1
 501 388 456 399 329 399 c 2
298 558 m 0
 298 530 264 512 242 512 c 0
 218 512 186 530 186 558 c 0
 186 586 220 604 242 604 c 0
 263 604 298 586 298 558 c 0
444 558 m 0
 444 530 410 512 388 512 c 0
 364 512 332 530 332 558 c 0
 332 586 366 604 388 604 c 0
 409 604 444 586 444 558 c 0
EndSplineSet
Fore
Refer: 332 776 S 1 0 0 1 623 12 2
Refer: 70 101 N 1 0 0 1 0 0 3
Validated: 1
EndChar

StartChar: igrave
Encoding: 236 236 171
Width: 208
Flags: HW
HStem: 501 188
VStem: -30 165 73 62<-16.0967 477.072>
LayerCount: 2
Back
SplineSet
73 20 m 2x20
 73 440 l 2
 73 472 92 478 104 478 c 0
 116 478 135 472 135 440 c 2
 135 20 l 2
 135 2 129 -17 103 -17 c 0
 91 -17 73 -11 73 20 c 2x20
29 672 m 2xc0
 125 557 l 2
 131 550 135 541 135 531 c 0
 135 513 118 501 105 501 c 0
 95 501 86 507 76 518 c 2
 -20 633 l 2
 -27 641 -30 650 -30 658 c 0
 -30 677 -14 689 0 689 c 0
 10 689 19 683 29 672 c 2xc0
EndSplineSet
Fore
Refer: 65 96 N 1 0 0 1 -54 1 2
Refer: 236 305 N 1 0 0 1 0 0 3
Validated: 1
EndChar

StartChar: iacute
Encoding: 237 237 172
Width: 208
Flags: HW
HStem: 500 188
VStem: 73 62<-16.0967 477.072> 73 165
LayerCount: 2
Back
SplineSet
73 20 m 2x40
 73 440 l 2
 73 472 92 478 104 478 c 0
 116 478 135 472 135 440 c 2
 135 20 l 2
 135 2 129 -17 103 -17 c 0
 91 -17 73 -11 73 20 c 2x40
132 517 m 2xa0
 122 506 113 500 103 500 c 0
 91 500 73 512 73 530 c 0
 73 540 77 549 83 556 c 2
 179 671 l 2
 189 682 198 688 208 688 c 0
 222 688 238 676 238 657 c 0
 238 649 235 640 228 632 c 2
 132 517 l 2xa0
EndSplineSet
Fore
Refer: 115 180 N 1 0 0 1 49 0 2
Refer: 236 305 N 1 0 0 1 0 0 3
Validated: 1
EndChar

StartChar: icircumflex
Encoding: 238 238 173
Width: 208
Flags: HW
HStem: 524 173
VStem: -42 293<524 566> 73 62<-16.0967 477.072>
LayerCount: 2
Back
SplineSet
73 20 m 2x20
 73 440 l 2
 73 472 92 478 104 478 c 0
 116 478 135 472 135 440 c 2
 135 20 l 2
 135 2 129 -17 103 -17 c 0
 91 -17 73 -11 73 20 c 2x20
-35 573 m 2xc0
 72 697 l 1
 135 697 l 1
 244 573 l 2
 247 570 251 560 251 552 c 0
 251 543 247 524 223 524 c 0
 206 524 200 537 191 546 c 2
 104 628 l 1
 18 546 l 2
 9 537 3 524 -14 524 c 0
 -38 524 -42 543 -42 552 c 0
 -42 560 -38 570 -35 573 c 2xc0
EndSplineSet
Fore
Refer: 327 770 N 1 0 0 1 406 19 2
Refer: 236 305 N 1 0 0 1 0 0 3
Validated: 1
EndChar

StartChar: idieresis
Encoding: 239 239 174
Width: 208
Flags: HW
HStem: 519 92<-36.6488 57.4429 149.351 243.443>
VStem: -45 112<530.087 599.135> 73 62<-16.0967 477.072> 141 112<530.087 599.135>
CounterMasks: 1 70
LayerCount: 2
Back
SplineSet
73 20 m 2x20
 73 440 l 2
 73 472 92 478 104 478 c 0
 116 478 135 472 135 440 c 2
 135 20 l 2
 135 2 129 -17 103 -17 c 0
 91 -17 73 -11 73 20 c 2x20
87 565 m 0xd0
 87 537 53 519 31 519 c 0
 7 519 -25 537 -25 565 c 0
 -25 593 9 611 31 611 c 0
 52 611 87 593 87 565 c 0xd0
233 565 m 0
 233 537 199 519 177 519 c 0
 153 519 121 537 121 565 c 0
 121 593 155 611 177 611 c 0
 198 611 233 593 233 565 c 0
EndSplineSet
Fore
Refer: 332 776 S 1 0 0 1 412 19 2
Refer: 236 305 N 1 0 0 1 0 0 3
Validated: 1
EndChar

StartChar: eth
Encoding: 240 240 175
Width: 584
Flags: HW
HStem: -16 62<198.655 390.098> 394 62<199.143 395.471> 573 63<122.266 241.22>
VStem: 46 62<132.958 307.837> 468 62<131.176 314.73>
LayerCount: 2
Fore
SplineSet
243 561 m 1,0,1
 199 573 199 573 160 573 c 128,-1,2
 121 573 121 573 121 603 c 0,3,4
 121 636 121 636 157 636 c 0,5,6
 230 636 230 636 296 611 c 1,7,-1
 328 641 l 2,8,9
 343 654 343 654 356.5 654 c 128,-1,10
 370 654 370 654 380.5 646 c 128,-1,11
 391 638 391 638 391 624.5 c 128,-1,12
 391 611 391 611 376 596 c 1,13,-1
 359 581 l 1,14,15
 530 475 530 475 530 223 c 0,16,17
 530 125 530 125 470 54.5 c 128,-1,18
 410 -16 410 -16 299.5 -16 c 128,-1,19
 189 -16 189 -16 117.5 47 c 128,-1,20
 46 110 46 110 46 220 c 128,-1,21
 46 330 46 330 117.5 393 c 128,-1,22
 189 456 189 456 305 456 c 0,23,24
 372 456 372 456 422 427 c 1,25,26
 384 495 384 495 310 535 c 1,27,-1
 260 490 l 2,28,29
 247 477 247 477 233.5 477 c 128,-1,30
 220 477 220 477 208.5 485.5 c 128,-1,31
 197 494 197 494 197 506.5 c 128,-1,32
 197 519 197 519 213 535 c 1,33,-1
 243 561 l 1,0,1
426.5 100.5 m 128,-1,35
 468 155 468 155 468 224 c 128,-1,36
 468 293 468 293 428 343.5 c 128,-1,37
 388 394 388 394 301.5 394 c 128,-1,38
 215 394 215 394 161.5 346.5 c 128,-1,39
 108 299 108 299 108 221 c 128,-1,40
 108 143 108 143 160.5 94.5 c 128,-1,41
 213 46 213 46 299 46 c 128,-1,34
 385 46 385 46 426.5 100.5 c 128,-1,35
EndSplineSet
Validated: 1
EndChar

StartChar: ntilde
Encoding: 241 241 176
Width: 647
Flags: HW
HStem: -7 21<89.5 120.5 531.5 562.5> 399 62<208.23 483.75> 512 67<320.359 407.346> 552 67<243.565 330.641>
VStem: 74 62<-6.07227 326.218 405 466.559> 180 291<554.656 576.344> 516 62<-6.07227 367.276>
LayerCount: 2
Back
SplineSet
312 399 m 2xca
 169 399 136 315 136 230 c 2
 136 31 l 2
 136 7 127 -7 105 -7 c 0
 86 -7 74 4 74 31 c 2
 74 429 l 2
 74 449 80 468 103 468 c 0
 123 468 136 456 136 427 c 2
 136 405 l 1
 177 443 241 461 312 461 c 2
 341 461 l 2
 493 461 578 433 578 284 c 2
 578 31 l 2
 578 11 572 -7 548 -7 c 0
 535 -7 516 -2 516 31 c 2
 516 282 l 2
 516 390 470 399 341 399 c 2
 312 399 l 2xca
372 588 m 2x14
 377 586 378 586 380 586 c 0x24
 381 586 383 586 385 588 c 2
 416 616 l 2
 423 623 431 626 441 626 c 0x14
 454 626 471 615 471 597 c 0
 471 585 465 575 455 567 c 2
 410 529 l 2
 403 524 395 519 387 519 c 0x24
 381 519 377 519 373 521 c 2
 279 557 l 2
 274 559 273 559 271 559 c 0x14
 270 559 268 559 266 557 c 2
 235 529 l 2
 228 522 220 519 210 519 c 0x24
 197 519 180 530 180 548 c 0
 180 560 186 570 196 578 c 2
 241 616 l 2
 248 621 256 626 264 626 c 0
 270 626 274 626 278 624 c 2
 372 588 l 2x14
EndSplineSet
Fore
Refer: 328 771 N 1 0 0 1 606 28 2
Refer: 79 110 N 1 0 0 1 0 0 3
Validated: 1
EndChar

StartChar: ograve
Encoding: 242 242 177
Width: 628
Flags: HW
HStem: 0 62<158.084 471.75> 399 62<158.084 471.75> 500 188
VStem: 62 62<93.7236 367.276> 203 165 504 62<93.7236 367.276>
LayerCount: 2
Back
SplineSet
329 0 m 2
 300 0 l 2
 147 0 62 28 62 177 c 2
 62 284 l 2
 62 433 147 461 300 461 c 2
 329 461 l 2
 481 461 566 433 566 284 c 2
 566 177 l 2
 566 28 481 0 329 0 c 2
300 62 m 2
 329 62 l 2
 458 62 504 71 504 179 c 2
 504 282 l 2
 504 390 458 399 329 399 c 2
 300 399 l 2
 168 399 124 389 124 282 c 2
 124 179 l 2
 124 72 168 62 300 62 c 2
262 671 m 2
 358 556 l 2
 364 549 368 540 368 530 c 0
 368 512 351 500 338 500 c 0
 328 500 319 506 309 517 c 2
 213 632 l 2
 206 640 203 649 203 657 c 0
 203 676 219 688 233 688 c 0
 243 688 252 682 262 671 c 2
EndSplineSet
Fore
Refer: 65 96 S 1 0 0 1 179 0 2
Refer: 80 111 N 1 0 0 1 0 0 3
Validated: 1
EndChar

StartChar: oacute
Encoding: 243 243 178
Width: 628
Flags: HW
HStem: 0 62<158.084 471.75> 399 62<158.084 471.75> 500 188
VStem: 62 62<93.7236 367.276> 283 165 504 62<93.7236 367.276>
LayerCount: 2
Back
SplineSet
329 0 m 2
 300 0 l 2
 147 0 62 28 62 177 c 2
 62 284 l 2
 62 433 147 461 300 461 c 2
 329 461 l 2
 481 461 566 433 566 284 c 2
 566 177 l 2
 566 28 481 0 329 0 c 2
300 62 m 2
 329 62 l 2
 458 62 504 71 504 179 c 2
 504 282 l 2
 504 390 458 399 329 399 c 2
 300 399 l 2
 168 399 124 389 124 282 c 2
 124 179 l 2
 124 72 168 62 300 62 c 2
342 517 m 2
 332 506 323 500 313 500 c 0
 301 500 283 512 283 530 c 0
 283 540 287 549 293 556 c 2
 389 671 l 2
 399 682 408 688 418 688 c 0
 432 688 448 676 448 657 c 0
 448 649 445 640 438 632 c 2
 342 517 l 2
EndSplineSet
Fore
Refer: 115 180 S 1 0 0 1 259 0 2
Refer: 80 111 N 1 0 0 1 0 0 3
Validated: 1
EndChar

StartChar: ocircumflex
Encoding: 244 244 179
Width: 628
Flags: HW
HStem: 0 62<158.084 471.75> 399 62<158.084 471.75> 517 173
VStem: 62 62<93.7236 367.276> 168 293<517 559> 504 62<93.7236 367.276>
LayerCount: 2
Back
SplineSet
329 0 m 2
 300 0 l 2
 147 0 62 28 62 177 c 2
 62 284 l 2
 62 433 147 461 300 461 c 2
 329 461 l 2
 481 461 566 433 566 284 c 2
 566 177 l 2
 566 28 481 0 329 0 c 2
300 62 m 2
 329 62 l 2
 458 62 504 71 504 179 c 2
 504 282 l 2
 504 390 458 399 329 399 c 2
 300 399 l 2
 168 399 124 389 124 282 c 2
 124 179 l 2
 124 72 168 62 300 62 c 2
175 566 m 2
 282 690 l 1
 345 690 l 1
 454 566 l 2
 457 563 461 553 461 545 c 0
 461 536 457 517 433 517 c 0
 416 517 410 530 401 539 c 2
 314 621 l 1
 228 539 l 2
 219 530 213 517 196 517 c 0
 172 517 168 536 168 545 c 0
 168 553 172 563 175 566 c 2
EndSplineSet
Fore
Refer: 327 770 S 1 0 0 1 616 12 2
Refer: 80 111 N 1 0 0 1 0 0 3
Validated: 1
EndChar

StartChar: otilde
Encoding: 245 245 180
Width: 628
Flags: HW
HStem: 0 62<158.084 471.75> 399 62<158.084 471.75> 512 67<308.359 395.346> 552 67<231.565 318.641>
VStem: 62 62<93.7236 367.276> 168 291<554.656 576.344> 504 62<93.7236 367.276>
LayerCount: 2
Back
SplineSet
329 0 m 2xca
 300 0 l 2
 147 0 62 28 62 177 c 2
 62 284 l 2
 62 433 147 461 300 461 c 2
 329 461 l 2
 481 461 566 433 566 284 c 2
 566 177 l 2
 566 28 481 0 329 0 c 2xca
300 62 m 2
 329 62 l 2
 458 62 504 71 504 179 c 2
 504 282 l 2
 504 390 458 399 329 399 c 2
 300 399 l 2
 168 399 124 389 124 282 c 2
 124 179 l 2
 124 72 168 62 300 62 c 2
360 581 m 2x14
 365 579 366 579 368 579 c 0x24
 369 579 371 579 373 581 c 2
 404 609 l 2
 411 616 419 619 429 619 c 0x14
 442 619 459 608 459 590 c 0
 459 578 453 568 443 560 c 2
 398 522 l 2
 391 517 383 512 375 512 c 0x24
 369 512 365 512 361 514 c 2
 267 550 l 2
 262 552 261 552 259 552 c 0x14
 258 552 256 552 254 550 c 2
 223 522 l 2
 216 515 208 512 198 512 c 0x24
 185 512 168 523 168 541 c 0
 168 553 174 563 184 571 c 2
 229 609 l 2
 236 614 244 619 252 619 c 0
 258 619 262 619 266 617 c 2
 360 581 l 2x14
EndSplineSet
Fore
Refer: 328 771 N 1 0 0 1 594 28 2
Refer: 80 111 N 1 0 0 1 0 0 3
Validated: 1
EndChar

StartChar: odieresis
Encoding: 246 246 181
Width: 628
Flags: HW
HStem: 0 62<158.084 471.75> 399 62<158.084 471.75> 512 92<174.351 268.443 360.351 454.443>
VStem: 62 62<93.7236 367.276> 166 112<523.087 592.135> 352 112<523.087 592.135> 504 62<93.7236 367.276>
LayerCount: 2
Back
SplineSet
329 0 m 2
 300 0 l 2
 147 0 62 28 62 177 c 2
 62 284 l 2
 62 433 147 461 300 461 c 2
 329 461 l 2
 481 461 566 433 566 284 c 2
 566 177 l 2
 566 28 481 0 329 0 c 2
300 62 m 2
 329 62 l 2
 458 62 504 71 504 179 c 2
 504 282 l 2
 504 390 458 399 329 399 c 2
 300 399 l 2
 168 399 124 389 124 282 c 2
 124 179 l 2
 124 72 168 62 300 62 c 2
298 558 m 0
 298 530 264 512 242 512 c 0
 218 512 186 530 186 558 c 0
 186 586 220 604 242 604 c 0
 263 604 298 586 298 558 c 0
444 558 m 0
 444 530 410 512 388 512 c 0
 364 512 332 530 332 558 c 0
 332 586 366 604 388 604 c 0
 409 604 444 586 444 558 c 0
EndSplineSet
Fore
Refer: 332 776 S 1 0 0 1 623 12 2
Refer: 80 111 N 1 0 0 1 0 0 3
Validated: 1
EndChar

StartChar: divide
Encoding: 247 247 182
Width: 439
Flags: HW
HStem: 82 92<167.351 261.443> 199 63<67.7682 367.14> 287 92<166.752 260.753>
VStem: 159 112<93.0874 162.135 298.498 367.135>
CounterMasks: 1 e0
LayerCount: 2
Back
SplineSet
95 262 m 2
 340 262 l 2
 366 262 379 251 379 229 c 0
 379 219.666 375.167 212.333 367.5 207 c 128
 359.832 201.667 350.665 199 340 199 c 2
 95 199 l 2
 71 199 59 209.667 59 231 c 0
 59 239 61.8333 246.167 67.5 252.5 c 128
 73.1667 258.833 82.3333 262 95 262 c 2
271 128 m 128
 271 115.333 264.833 104.5 252.5 95.5 c 128
 240.166 86.5 227.333 82 214 82 c 128
 200.667 82 188.167 86.3333 176.5 95 c 128
 164.833 103.667 159 114.667 159 128 c 128
 159 141.333 165.167 152.333 177.5 161 c 128
 189.833 169.667 202 174 214 174 c 128
 226 174 238.5 169.5 251.5 160.5 c 128
 264.5 151.5 271 140.667 271 128 c 128
271 333 m 128
 271 320.333 264.833 309.5 252.5 300.5 c 128
 240.166 291.5 227.333 287 214 287 c 128
 200.667 287 188 291.333 176 300 c 0
 164 308 158 318.333 158 331 c 0
 158 345 164.667 356.667 178 366 c 0
 190 375.333 202 379.833 214 379.5 c 128
 226 379.167 238.5 374.5 251.5 365.5 c 128
 264.5 356.5 271 345.667 271 333 c 128
EndSplineSet
Fore
SplineSet
271 333 m 0,0,1
 271 316 271 316 252 301 c 0,2,3
 234 287 234 287 214 287 c 0,4,5
 193 287 193 287 176 300 c 128,-1,6
 159 313 159 313 159 333 c 0,7,8
 159 354 159 354 177 366 c 0,9,10
 196 379 196 379 214 379 c 128,-1,11
 232 379 232 379 251.5 365.5 c 128,-1,12
 271 352 271 352 271 333 c 0,0,1
95 262 m 2,13,-1
 340 262 l 2,14,15
 379 262 379 262 379 229 c 0,16,17
 379 215 379 215 367.5 207 c 128,-1,18
 356 199 356 199 340 199 c 2,19,-1
 95 199 l 2,20,21
 59 199 59 199 59 231 c 0,22,23
 59 243 59 243 67.5 252.5 c 128,-1,24
 76 262 76 262 95 262 c 2,13,-1
271 128 m 128,-1,26
 271 109 271 109 252.5 95.5 c 128,-1,27
 234 82 234 82 214 82 c 128,-1,28
 194 82 194 82 176.5 95 c 128,-1,29
 159 108 159 108 159 128 c 128,-1,30
 159 148 159 148 177.5 161 c 128,-1,31
 196 174 196 174 214 174 c 128,-1,32
 232 174 232 174 251.5 160.5 c 128,-1,25
 271 147 271 147 271 128 c 128,-1,26
EndSplineSet
Validated: 1
EndChar

StartChar: oslash
Encoding: 248 248 183
Width: 628
Flags: HW
HStem: 0 62<177.076 471.75> 399 62<158.084 450.924>
VStem: 62 62<119.443 367.276> 504 62<93.7236 341.557>
AnchorPoint: "bottom" 314 0 basechar 0
AnchorPoint: "top" 314 510 basechar 0
LayerCount: 2
Fore
SplineSet
300 62 m 2,0,-1
 329 62 l 2,1,2
 433 62 433 62 468.5 82 c 128,-1,3
 504 102 504 102 504 179 c 2,4,-1
 504 282 l 2,5,6
 504 322 504 322 496 343 c 1,7,-1
 176 74 l 1,8,9
 210 62 210 62 300 62 c 2,0,-1
329 0 m 2,10,-1
 300 0 l 2,11,12
 178 0 178 0 125 31 c 1,13,-1
 113 21 l 1,14,15
 98 10 98 10 86 10 c 128,-1,16
 74 10 74 10 66 20 c 1,17,18
 57 33 57 33 57 45 c 128,-1,19
 57 57 57 57 73 69 c 2,20,-1
 82 77 l 1,21,22
 62 115 62 115 62 177 c 2,23,-1
 62 284 l 2,24,25
 62 389 62 389 118.5 425 c 128,-1,26
 175 461 175 461 300 461 c 2,27,-1
 329 461 l 2,28,29
 450 461 450 461 503 430 c 1,30,-1
 515 440 l 2,31,32
 529 451 529 451 541 451 c 128,-1,33
 553 451 553 451 562 441.5 c 128,-1,34
 571 432 571 432 571 418 c 128,-1,35
 571 404 571 404 555 392 c 2,36,-1
 546 384 l 1,37,38
 566 346 566 346 566 284 c 2,39,-1
 566 177 l 2,40,41
 566 72 566 72 509.5 36 c 128,-1,42
 453 0 453 0 329 0 c 2,10,-1
132 118 m 1,43,-1
 452 387 l 1,44,45
 418 399 418 399 329 399 c 2,46,-1
 300 399 l 2,47,48
 194 399 194 399 159 378.5 c 128,-1,49
 124 358 124 358 124 282 c 2,50,-1
 124 179 l 2,51,52
 124 139 124 139 132 118 c 1,43,-1
EndSplineSet
Validated: 1
EndChar

StartChar: ugrave
Encoding: 249 249 184
Width: 647
Flags: HW
HStem: 0 62<163.25 438.77> 448 20<84.5 115.5 526.5 557.5> 500 188
VStem: 69 62<93.7236 467.072> 209 165 511 62<-5.55859 56 134.782 467.072>
LayerCount: 2
Back
SplineSet
335 62 m 2
 478 62 511 147 511 231 c 2
 511 430 l 2
 511 454 520 468 542 468 c 0
 561 468 573 457 573 430 c 2
 573 32 l 2
 573 12 567 -7 544 -7 c 0
 524 -7 511 4 511 34 c 2
 511 56 l 1
 470 18 406 0 335 0 c 2
 306 0 l 2
 154 0 69 28 69 177 c 2
 69 430 l 2
 69 450 75 468 99 468 c 0
 112 468 131 463 131 430 c 2
 131 179 l 2
 131 71 177 62 306 62 c 2
 335 62 l 2
268 671 m 2
 364 556 l 2
 370 549 374 540 374 530 c 0
 374 512 357 500 344 500 c 0
 334 500 325 506 315 517 c 2
 219 632 l 2
 212 640 209 649 209 657 c 0
 209 676 225 688 239 688 c 0
 249 688 258 682 268 671 c 2
EndSplineSet
Fore
Refer: 65 96 S 1 0 0 1 185 0 2
Refer: 86 117 N 1 0 0 1 0 0 3
Validated: 1
EndChar

StartChar: uacute
Encoding: 250 250 185
Width: 647
Flags: HW
HStem: 0 62<163.25 438.77> 448 20<84.5 115.5 526.5 557.5> 500 188
VStem: 69 62<93.7236 467.072> 291 165 511 62<-5.55859 56 134.782 467.072>
LayerCount: 2
Back
SplineSet
335 62 m 2
 478 62 511 147 511 231 c 2
 511 430 l 2
 511 454 520 468 542 468 c 0
 561 468 573 457 573 430 c 2
 573 32 l 2
 573 12 567 -7 544 -7 c 0
 524 -7 511 4 511 34 c 2
 511 56 l 1
 470 18 406 0 335 0 c 2
 306 0 l 2
 154 0 69 28 69 177 c 2
 69 430 l 2
 69 450 75 468 99 468 c 0
 112 468 131 463 131 430 c 2
 131 179 l 2
 131 71 177 62 306 62 c 2
 335 62 l 2
350 517 m 2
 340 506 331 500 321 500 c 0
 309 500 291 512 291 530 c 0
 291 540 295 549 301 556 c 2
 397 671 l 2
 407 682 416 688 426 688 c 0
 440 688 456 676 456 657 c 0
 456 649 453 640 446 632 c 2
 350 517 l 2
EndSplineSet
Fore
Refer: 115 180 S 1 0 0 1 267 0 2
Refer: 86 117 N 1 0 0 1 0 0 3
Validated: 1
EndChar

StartChar: ucircumflex
Encoding: 251 251 186
Width: 647
Flags: HW
HStem: 0 62<163.25 438.77> 448 20<84.5 115.5 526.5 557.5> 524 173
VStem: 69 62<93.7236 467.072> 174 293<524 566> 511 62<-5.55859 56 134.782 467.072>
LayerCount: 2
Back
SplineSet
335 62 m 2
 478 62 511 147 511 231 c 2
 511 430 l 2
 511 454 520 468 542 468 c 0
 561 468 573 457 573 430 c 2
 573 32 l 2
 573 12 567 -7 544 -7 c 0
 524 -7 511 4 511 34 c 2
 511 56 l 1
 470 18 406 0 335 0 c 2
 306 0 l 2
 154 0 69 28 69 177 c 2
 69 430 l 2
 69 450 75 468 99 468 c 0
 112 468 131 463 131 430 c 2
 131 179 l 2
 131 71 177 62 306 62 c 2
 335 62 l 2
181 573 m 2
 288 697 l 1
 351 697 l 1
 460 573 l 2
 463 570 467 560 467 552 c 0
 467 543 463 524 439 524 c 0
 422 524 416 537 407 546 c 2
 320 628 l 1
 234 546 l 2
 225 537 219 524 202 524 c 0
 178 524 174 543 174 552 c 0
 174 560 178 570 181 573 c 2
EndSplineSet
Fore
Refer: 327 770 S 1 0 0 1 622 19 2
Refer: 86 117 N 1 0 0 1 0 0 3
Validated: 1
EndChar

StartChar: udieresis
Encoding: 252 252 187
Width: 647
Flags: HW
HStem: 0 62<163.25 438.77> 448 20<84.5 115.5 526.5 557.5> 519 92<180.351 274.443 366.351 460.443>
VStem: 69 62<93.7236 467.072> 172 112<530.087 599.135> 358 112<530.087 599.135> 511 62<-5.55859 56 134.782 467.072>
LayerCount: 2
Back
SplineSet
335 62 m 2
 478 62 511 147 511 231 c 2
 511 430 l 2
 511 454 520 468 542 468 c 0
 561 468 573 457 573 430 c 2
 573 32 l 2
 573 12 567 -7 544 -7 c 0
 524 -7 511 4 511 34 c 2
 511 56 l 1
 470 18 406 0 335 0 c 2
 306 0 l 2
 154 0 69 28 69 177 c 2
 69 430 l 2
 69 450 75 468 99 468 c 0
 112 468 131 463 131 430 c 2
 131 179 l 2
 131 71 177 62 306 62 c 2
 335 62 l 2
304 565 m 0
 304 537 270 519 248 519 c 0
 224 519 192 537 192 565 c 0
 192 593 226 611 248 611 c 0
 269 611 304 593 304 565 c 0
450 565 m 0
 450 537 416 519 394 519 c 0
 370 519 338 537 338 565 c 0
 338 593 372 611 394 611 c 0
 415 611 450 593 450 565 c 0
EndSplineSet
Fore
Refer: 332 776 S 1 0 0 1 629 19 2
Refer: 86 117 N 1 0 0 1 0 0 3
Validated: 1
EndChar

StartChar: yacute
Encoding: 253 253 188
Width: 648
Flags: HW
HStem: -205 62<141.833 503.261> 0 62<163.25 438.77> 448 20<84.5 115.5 526.5 557.5> 500 188
VStem: 69 62<-130.619 -49.0742 93.7236 467.072> 291 165 511 62<-134.23 56 134.782 467.072>
LayerCount: 2
Back
SplineSet
573 -82 m 2
 573 -167 554 -205 477 -205 c 2
 174 -205 l 2
 81 -205 69 -144 69 -88 c 0
 69 -68 75 -48 100 -48 c 0
 125 -48 131 -66 131 -86 c 0
 131 -130 143 -143 181 -143 c 2
 470 -143 l 2
 505 -143 511 -134 511 -98 c 2
 511 56 l 1
 470 18 406 0 335 0 c 2
 306 0 l 2
 154 0 69 28 69 177 c 2
 69 430 l 2
 69 450 75 468 99 468 c 0
 112 468 131 463 131 430 c 2
 131 179 l 2
 131 71 177 62 306 62 c 2
 335 62 l 2
 478 62 511 147 511 231 c 2
 511 430 l 2
 511 454 520 468 542 468 c 0
 561 468 573 457 573 430 c 2
 573 -82 l 2
351 517 m 2
 341 506 332 500 322 500 c 0
 310 500 292 512 292 530 c 0
 292 540 296 549 302 556 c 2
 398 671 l 2
 408 682 417 688 427 688 c 0
 441 688 457 676 457 657 c 0
 457 649 454 640 447 632 c 2
 351 517 l 2
EndSplineSet
Fore
Refer: 115 180 S 1 0 0 1 267 0 2
Refer: 90 121 N 1 0 0 1 0 0 3
Validated: 1
EndChar

StartChar: thorn
Encoding: 254 254 189
Width: 641
Flags: HW
HStem: -182 21G<89.5 120.5> 0 62<137 483.845> 399 62<209.23 484.75> 623 20G<90.5 121.5>
VStem: 75 62<-180.594 0 62 327.079 405 642.023> 517 62<93.7236 367.276>
LayerCount: 2
Fore
SplineSet
517 282 m 2,0,1
 517 359 517 359 481.5 379 c 128,-1,2
 446 399 446 399 342 399 c 2,3,-1
 313 399 l 2,4,5
 137 399 137 399 137 232 c 2,6,-1
 137 62 l 1,7,-1
 344 62 l 2,8,9
 447 62 447 62 482 82 c 128,-1,10
 517 102 517 102 517 179 c 2,11,-1
 517 282 l 2,0,1
579 177 m 2,12,13
 579 72 579 72 523 36 c 128,-1,14
 467 0 467 0 344 0 c 2,15,-1
 137 0 l 1,16,-1
 137 -142 l 2,17,18
 137 -182 137 -182 104 -182 c 0,19,20
 75 -182 75 -182 75 -142 c 2,21,-1
 75 603 l 2,22,23
 75 643 75 643 106 643 c 128,-1,24
 137 643 137 643 137 603 c 2,25,-1
 137 405 l 1,26,27
 197 461 197 461 313 461 c 2,28,-1
 342 461 l 2,29,30
 466 461 466 461 522.5 425 c 128,-1,31
 579 389 579 389 579 284 c 2,32,-1
 579 177 l 2,12,13
EndSplineSet
Validated: 1
EndChar

StartChar: ydieresis
Encoding: 255 255 190
Width: 648
Flags: HW
HStem: -205 62<141.833 503.261> 0 62<163.25 438.77> 448 20<84.5 115.5 526.5 557.5> 519 92<180.351 274.443 366.351 460.443>
VStem: 69 62<-130.619 -49.0742 93.7236 467.072> 172 112<530.087 599.135> 358 112<530.087 599.135> 511 62<-134.23 56 134.782 467.072>
LayerCount: 2
Back
SplineSet
304 575 m 0
 304 547 270 529 248 529 c 0
 224 529 192 547 192 575 c 0
 192 603 226 621 248 621 c 0
 269 621 304 603 304 575 c 0
450 575 m 0
 450 547 416 529 394 529 c 0
 370 529 338 547 338 575 c 0
 338 603 372 621 394 621 c 0
 415 621 450 603 450 575 c 0
573 -82 m 2
 573 -167 554 -205 477 -205 c 2
 174 -205 l 2
 81 -205 69 -144 69 -88 c 0
 69 -68 75 -48 100 -48 c 0
 125 -48 131 -66 131 -86 c 0
 131 -130 143 -143 181 -143 c 2
 470 -143 l 2
 505 -143 511 -134 511 -98 c 2
 511 56 l 1
 470 18 406 0 335 0 c 2
 306 0 l 2
 154 0 69 28 69 177 c 2
 69 430 l 2
 69 450 75 468 99 468 c 0
 112 468 131 463 131 430 c 2
 131 179 l 2
 131 71 177 62 306 62 c 2
 335 62 l 2
 478 62 511 147 511 231 c 2
 511 430 l 2
 511 454 520 468 542 468 c 0
 561 468 573 457 573 430 c 2
 573 -82 l 2
EndSplineSet
Fore
Refer: 332 776 N 1 0 0 1 629 19 2
Refer: 90 121 N 1 0 0 1 0 0 3
Validated: 1
EndChar

StartChar: Amacron
Encoding: 256 256 191
Width: 590
Flags: HW
HStem: 194 62<181 409> 616 20<251.331 338.669> 707 63<143.768 443.14>
VStem: 24 63<-14.375 10> 135 320<715.251 760.203> 503 63<-14.5627 10>
CounterMasks: 1 1c
LayerCount: 2
Back
SplineSet
171 770 m 2
 416 770 l 2
 440 770 455 758 455 737 c 0
 455 718 437 707 416 707 c 2
 171 707 l 2
 144 707 135 723 135 739 c 0
 135 752 143 770 171 770 c 2
331 636 m 1
 563 31 l 2
 565 25 566 19 566 14 c 0
 566 -10 543 -16 535 -16 c 0
 520 -16 509 -6 503 10 c 2
 433 194 l 1
 157 194 l 1
 87 10 l 2
 80 -6 68 -16 55 -16 c 0
 47 -16 24 -10 24 14 c 0
 24 19 25 25 27 31 c 2
 259 636 l 1
 331 636 l 1
409 256 m 1
 294 546 l 1
 181 256 l 1
 409 256 l 1
EndSplineSet
Fore
Refer: 329 772 N 1 0 0 1 578 200 2
Refer: 34 65 N 1 0 0 1 0 0 3
Validated: 1
EndChar

StartChar: amacron
Encoding: 257 257 192
Width: 573
Flags: HW
HStem: 0 62<135.076 368.18> 238 62<155.025 440> 399 62<142.158 429.167> 522 63<128.768 428.14>
VStem: 60 62<74.2539 207.003 304.977 377.706> 120 320<530.251 575.203> 440 62<-6.02344 56 133.49 238 300 388.168>
LayerCount: 2
Back
SplineSet
156 585 m 2x14
 401 585 l 2
 425 585 440 573 440 552 c 0
 440 533 422 522 401 522 c 2
 156 522 l 2
 129 522 120 538 120 554 c 0
 120 567 128 585 156 585 c 2x14
298 238 m 2xea
 166 238 122 228 122 121 c 0
 122 89 149 62 172 62 c 2
 265 62 l 2
 407 62 440 146 440 228 c 2
 440 238 l 1
 298 238 l 2xea
298 300 m 2
 440 300 l 1
 440 350 l 2
 440 386 430 399 390 399 c 2
 249 399 l 2
 151 399 122 377 122 344 c 0
 122 321 116 304 90 304 c 0
 78 304 60 310 60 344 c 0
 60 429 137 461 242 461 c 2
 397 461 l 2
 481 461 502 423 502 333 c 2
 502 31 l 2
 502 4 490 -7 471 -7 c 0
 446 -7 440 13 440 33 c 2
 440 56 l 1
 399 17 335 0 265 0 c 2
 172 0 l 2
 108 0 60 48 60 126 c 0
 60 270 147 300 298 300 c 2
EndSplineSet
Fore
Refer: 329 772 S 1 0 0 1 563 15 2
Refer: 66 97 N 1 0 0 1 0 0 3
Validated: 1
EndChar

StartChar: Abreve
Encoding: 258 258 193
Width: 590
Flags: HW
HStem: 194 62<181 409> 616 20<251.331 338.669> 698 64<247.442 290 291 342.558>
VStem: 24 63<-14.375 10> 170 63<779.533 819> 357 63<779.533 819> 503 63<-14.5627 10>
LayerCount: 2
Back
SplineSet
170 819 m 1
 233 819 l 1
 233 794 245 762 295 762 c 0
 345 762 357 794 357 819 c 1
 420 819 l 1
 420 723 337 698 295 698 c 0
 250 698 170 723 170 819 c 1
331 636 m 1
 563 31 l 2
 565 25 566 19 566 14 c 0
 566 -10 543 -16 535 -16 c 0
 520 -16 509 -6 503 10 c 2
 433 194 l 1
 157 194 l 1
 87 10 l 2
 80 -6 68 -16 55 -16 c 0
 47 -16 24 -10 24 14 c 0
 24 19 25 25 27 31 c 2
 259 636 l 1
 331 636 l 1
409 256 m 1
 294 546 l 1
 181 256 l 1
 409 256 l 1
EndSplineSet
Fore
Refer: 319 728 S 1 0 0 1 81 95 2
Refer: 34 65 N 1 0 0 1 0 0 3
Validated: 1
EndChar

StartChar: abreve
Encoding: 259 259 194
Width: 573
Flags: HW
HStem: 0 62<135.076 368.18> 238 62<155.025 440> 399 62<142.158 429.167> 522 64<235.442 278 279 330.558>
VStem: 60 62<74.2539 207.003 304.977 377.706> 158 63<603.533 643> 345 63<603.533 643> 440 62<-6.02344 56 133.49 238 300 388.168>
LayerCount: 2
Back
SplineSet
158 643 m 1
 221 643 l 1
 221 618 233 586 283 586 c 0
 333 586 345 618 345 643 c 1
 408 643 l 1
 408 547 325 522 283 522 c 0
 238 522 158 547 158 643 c 1
298 238 m 2
 166 238 122 228 122 121 c 0
 122 89 149 62 172 62 c 2
 265 62 l 2
 407 62 440 146 440 228 c 2
 440 238 l 1
 298 238 l 2
298 300 m 2
 440 300 l 1
 440 350 l 2
 440 386 430 399 390 399 c 2
 249 399 l 2
 151 399 122 377 122 344 c 0
 122 321 116 304 90 304 c 0
 78 304 60 310 60 344 c 0
 60 429 137 461 242 461 c 2
 397 461 l 2
 481 461 502 423 502 333 c 2
 502 31 l 2
 502 4 490 -7 471 -7 c 0
 446 -7 440 13 440 33 c 2
 440 56 l 1
 399 17 335 0 265 0 c 2
 172 0 l 2
 108 0 60 48 60 126 c 0
 60 270 147 300 298 300 c 2
EndSplineSet
Fore
Refer: 319 728 S 1 0 0 1 69 -81 2
Refer: 66 97 N 1 0 0 1 0 0 3
Validated: 1
EndChar

StartChar: Aogonek
Encoding: 260 260 195
Width: 590
Flags: HW
HStem: -257 60<515.278 617.472> 194 62<181 409> 616 20<251.331 338.669>
VStem: 24 63<-14.375 10> 449 62<-193.894 -97.2915> 503 63<-14.5627 10>
AnchorPoint: "bottom" 294 0 basechar 0
AnchorPoint: "top" 294 678 basechar 0
LayerCount: 2
Back
SplineSet
409 256 m 1
 294 546 l 1
 181 256 l 1
 409 256 l 1
55 -16 m 0
 47 -16 24 -10 24 14 c 0
 24 19 25 25 27 31 c 2
 263 646 l 1
 327 646 l 1
 563 31 l 2
 565 25 566 19 566 14 c 0
 566 -9 546 -15 537 -16 c 1
 504 -46 489 -88 489 -96 c 0
 489 -132 504 -145 526 -145 c 0
 554 -145 576 -128 592 -128 c 0
 603 -128 612 -134 612 -150 c 0
 612 -194 552 -205 528 -205 c 0
 471 -205 427 -162 427 -96 c 0
 427 -60 466 -5 496 28 c 1
 433 194 l 1
 157 194 l 1
 87 10 l 2
 80 -6 68 -16 55 -16 c 0
EndSplineSet
Fore
Refer: 322 731 N 1 0 0 1 414 -52 2
Refer: 34 65 N 1 0 0 1 0 0 2
Validated: 5
EndChar

StartChar: aogonek
Encoding: 261 261 196
Width: 573
Flags: HW
HStem: -248 60<452.278 554.472> 0 62<135.076 368.18> 238 62<155.025 440> 399 62<142.158 429.167>
VStem: 60 62<74.2539 207.003 304.977 377.706> 386 62<-184.894 -88.2915> 440 62<-6.02344 56 133.49 238 300 388.168>
AnchorPoint: "top" 287 510 basechar 0
AnchorPoint: "bottom" 262 0 basechar 0
LayerCount: 2
Back
SplineSet
492 0 m 1
 447 -27 423 -86 423 -96 c 0
 423 -132 438 -145 460 -145 c 0
 488 -145 510 -128 526 -128 c 0
 537 -128 546 -134 546 -150 c 0
 546 -194 486 -205 462 -205 c 0
 405 -205 361 -162 361 -96 c 0
 361 -56 409 6 440 38 c 1
 440 56 l 1
 399 17 335 0 265 0 c 2
 172 0 l 2
 108 0 60 48 60 126 c 0
 60 270 147 300 298 300 c 2
 440 300 l 1
 440 350 l 2
 440 386 430 399 390 399 c 2
 249 399 l 2
 151 399 122 377 122 344 c 0
 122 321 116 304 90 304 c 0
 78 304 60 310 60 344 c 0
 60 429 137 461 242 461 c 2
 397 461 l 2
 481 461 502 423 502 333 c 2
 502 31 l 2
 502 16 498 6 492 0 c 1
298 238 m 2
 166 238 122 228 122 121 c 0
 122 89 149 62 172 62 c 2
 265 62 l 2
 407 62 440 146 440 228 c 2
 440 238 l 1
 298 238 l 2
EndSplineSet
Fore
Refer: 322 731 N 1 0 0 1 351 -43 2
Refer: 66 97 N 1 0 0 1 0 0 2
Validated: 5
EndChar

StartChar: Cacute
Encoding: 262 262 197
Width: 610
Flags: HW
HStem: 0 62<167.084 482.167> 574 62<165.946 482.167> 678 141
VStem: 71 62<95.7427 541.967> 266 142 493 62<74.8961 155.556 480.034 561.619>
LayerCount: 2
Back
SplineSet
349 804 m 2
 362 817 371 819 377 819 c 0
 393 819 408 802 408 789 c 0
 408 778 402 770 394 761 c 2
 325 693 l 2
 316 683 306 678 296 678 c 0
 278 678 266 694 266 707 c 0
 266 718 271 726 279 735 c 2
 349 804 l 2
450 0 m 2
 309 0 l 2
 156 0 71 28 71 182 c 2
 71 454 l 2
 71 608 156 636 297 636 c 2
 450 636 l 2
 543 636 555 576 555 519 c 0
 555 499 549 479 524 479 c 0
 512 479 493 485 493 517 c 0
 493 561 481 574 443 574 c 2
 297 574 l 2
 179 574 133 563 133 453 c 2
 133 183 l 2
 133 72 179 62 309 62 c 2
 443 62 l 2
 483 62 493 77 493 119 c 0
 493 151 512 157 524 157 c 0
 543 157 555 146 555 116 c 0
 555 60 543 0 450 0 c 2
EndSplineSet
Fore
Refer: 326 769 S 1 0 0 1 646 178 2
Refer: 36 67 N 1 0 0 1 0 0 3
Validated: 1
EndChar

StartChar: cacute
Encoding: 263 263 198
Width: 604
Flags: HW
HStem: 0 62<158.084 473.167> 399 62<158.084 473.167> 500 188
VStem: 62 62<93.7236 367.276> 253 165 484 62<74.8961 155.865 305.074 386.619>
LayerCount: 2
Back
SplineSet
312 517 m 2
 302 506 293 500 283 500 c 0
 271 500 253 512 253 530 c 0
 253 540 257 549 263 556 c 2
 359 671 l 2
 369 682 378 688 388 688 c 0
 402 688 418 676 418 657 c 0
 418 649 415 640 408 632 c 2
 312 517 l 2
441 0 m 2
 300 0 l 2
 147 0 62 28 62 177 c 2
 62 284 l 2
 62 433 147 461 300 461 c 2
 441 461 l 2
 534 461 546 400 546 344 c 0
 546 324 540 304 515 304 c 0
 503 304 484 310 484 342 c 0
 484 386 472 399 434 399 c 2
 300 399 l 2
 168 399 124 389 124 282 c 2
 124 179 l 2
 124 72 168 62 300 62 c 2
 434 62 l 2
 474 62 484 77 484 119 c 0
 484 151 503 157 515 157 c 0
 534 157 546 146 546 116 c 0
 546 60 534 0 441 0 c 2
EndSplineSet
Fore
Refer: 115 180 S 1 0 0 1 229 0 2
Refer: 68 99 N 1 0 0 1 0 0 3
Validated: 1
EndChar

StartChar: Ccircumflex
Encoding: 264 264 199
Width: 610
Flags: HW
HStem: 0 62<167.084 482.167> 574 62<165.946 482.167> 646 173
VStem: 71 62<95.7427 541.967> 169 293<646 688> 493 62<74.8961 155.556 480.034 561.619>
LayerCount: 2
Back
SplineSet
450 0 m 2
 309 0 l 2
 156 0 71 28 71 182 c 2
 71 454 l 2
 71 608 156 636 297 636 c 2
 450 636 l 2
 543 636 555 576 555 519 c 0
 555 499 549 479 524 479 c 0
 512 479 493 485 493 517 c 0
 493 561 481 574 443 574 c 2
 297 574 l 2
 179 574 133 563 133 453 c 2
 133 183 l 2
 133 72 179 62 309 62 c 2
 443 62 l 2
 483 62 493 77 493 119 c 0
 493 151 512 157 524 157 c 0
 543 157 555 146 555 116 c 0
 555 60 543 0 450 0 c 2
176 697 m 2
 283 821 l 1
 346 821 l 1
 455 697 l 2
 458 694 462 684 462 676 c 0
 462 667 458 648 434 648 c 0
 417 648 411 661 402 670 c 2
 315 752 l 1
 229 670 l 2
 220 661 214 648 197 648 c 0
 173 648 169 667 169 676 c 0
 169 684 173 694 176 697 c 2
EndSplineSet
Fore
Refer: 327 770 S 1 0 0 1 617 141 2
Refer: 36 67 N 1 0 0 1 0 0 3
Validated: 1
EndChar

StartChar: ccircumflex
Encoding: 265 265 200
Width: 604
Flags: HW
HStem: 0 62<158.084 473.167> 399 62<158.084 473.167> 517 173
VStem: 62 62<93.7236 367.276> 158 293<517 559> 484 62<74.8961 155.865 305.074 386.619>
LayerCount: 2
Back
SplineSet
165 566 m 2
 272 690 l 1
 335 690 l 1
 444 566 l 2
 447 563 451 553 451 545 c 0
 451 536 447 517 423 517 c 0
 406 517 400 530 391 539 c 2
 304 621 l 1
 218 539 l 2
 209 530 203 517 186 517 c 0
 162 517 158 536 158 545 c 0
 158 553 162 563 165 566 c 2
441 0 m 2
 300 0 l 2
 147 0 62 28 62 177 c 2
 62 284 l 2
 62 433 147 461 300 461 c 2
 441 461 l 2
 534 461 546 400 546 344 c 0
 546 324 540 304 515 304 c 0
 503 304 484 310 484 342 c 0
 484 386 472 399 434 399 c 2
 300 399 l 2
 168 399 124 389 124 282 c 2
 124 179 l 2
 124 72 168 62 300 62 c 2
 434 62 l 2
 474 62 484 77 484 119 c 0
 484 151 503 157 515 157 c 0
 534 157 546 146 546 116 c 0
 546 60 534 0 441 0 c 2
EndSplineSet
Fore
Refer: 327 770 N 1 0 0 1 606 12 2
Refer: 68 99 N 1 0 0 1 0 0 3
Validated: 1
EndChar

